<svg width="44" height="44" viewBox="0 0 44 44" fill="none" xmlns="http://www.w3.org/2000/svg">
<path d="M32 0H12C5.37258 0 0 5.37258 0 12V32C0 38.6274 5.37258 44 12 44H32C38.6274 44 44 38.6274 44 32V12C44 5.37258 38.6274 0 32 0Z" fill="#F2C129"/>
<path d="M28.366 24.994L26.766 23.394C26.6176 23.2456 26.4163 23.1622 26.2065 23.1622C25.9966 23.1622 25.7953 23.2456 25.6469 23.394C25.4986 23.5424 25.4152 23.7437 25.4152 23.9535C25.4152 24.1634 25.4986 24.3646 25.6469 24.513L25.894 24.76H25.6059C24.7946 24.7606 23.9949 24.9529 23.2719 25.321C22.772 25.5756 22.219 25.7083 21.6579 25.7083C21.0969 25.7083 20.5439 25.5756 20.044 25.321C19.3211 24.9531 18.5215 24.7613 17.7105 24.7613C16.8994 24.7613 16.0998 24.9531 15.377 25.321C14.877 25.5756 14.324 25.7083 13.763 25.7083C13.2019 25.7083 12.6489 25.5756 12.1489 25.321C11.9621 25.2255 11.745 25.2082 11.5454 25.2728C11.3457 25.3374 11.1799 25.4787 11.0844 25.6655C10.989 25.8524 10.9716 26.0695 11.0362 26.2691C11.1009 26.4687 11.2421 26.6345 11.429 26.73C12.1518 27.0979 12.9514 27.2897 13.7625 27.2897C14.5735 27.2897 15.3731 27.0979 16.096 26.73C16.5959 26.4754 17.1489 26.3426 17.7099 26.3426C18.271 26.3426 18.824 26.4754 19.3239 26.73C20.0468 27.0979 20.8464 27.2897 21.6575 27.2897C22.4685 27.2897 23.2681 27.0979 23.991 26.73C24.4943 26.475 25.0507 26.342 25.6149 26.342H25.894L25.6469 26.589C25.5735 26.6625 25.5152 26.7497 25.4754 26.8457C25.4357 26.9417 25.4152 27.0446 25.4152 27.1485C25.4152 27.2524 25.4357 27.3553 25.4754 27.4513C25.5152 27.5473 25.5735 27.6345 25.6469 27.708C25.7204 27.7815 25.8077 27.8398 25.9037 27.8795C25.9997 27.9193 26.1025 27.9397 26.2065 27.9397C26.3104 27.9397 26.4133 27.9193 26.5093 27.8795C26.6053 27.8398 26.6925 27.7815 26.766 27.708L28.366 26.108C28.5129 25.9599 28.5953 25.7597 28.5953 25.551C28.5953 25.3424 28.5129 25.1422 28.366 24.994Z" fill="white"/>
<path d="M28.3659 18.641L26.7749 17.05C26.7014 16.9765 26.6142 16.9182 26.5182 16.8785C26.4222 16.8387 26.3193 16.8183 26.2154 16.8183C26.1115 16.8183 26.0086 16.8387 25.9126 16.8785C25.8166 16.9182 25.7294 16.9765 25.6559 17.05C25.5824 17.1235 25.5241 17.2107 25.4844 17.3067C25.4446 17.4027 25.4242 17.5056 25.4242 17.6095C25.4242 17.7134 25.4446 17.8163 25.4844 17.9123C25.5241 18.0083 25.5824 18.0955 25.6559 18.169L25.8959 18.409H25.6079C24.7966 18.4097 23.9969 18.6019 23.2739 18.97C22.774 19.2246 22.2209 19.3573 21.6599 19.3573C21.0989 19.3573 20.5458 19.2246 20.0459 18.97C19.3231 18.6021 18.5235 18.4103 17.7124 18.4103C16.9013 18.4103 16.1017 18.6021 15.3789 18.97C14.879 19.2246 14.3259 19.3573 13.7649 19.3573C13.2039 19.3573 12.6508 19.2246 12.1509 18.97C11.9641 18.8745 11.7469 18.8572 11.5473 18.9218C11.3477 18.9864 11.1819 19.1277 11.0864 19.3145C10.9909 19.5014 10.9736 19.7185 11.0382 19.9181C11.1028 20.1177 11.2441 20.2835 11.4309 20.379C12.1537 20.7469 12.9533 20.9387 13.7644 20.9387C14.5755 20.9387 15.3751 20.7469 16.0979 20.379C16.5978 20.1245 17.1509 19.9917 17.7119 19.9917C18.2729 19.9917 18.826 20.1245 19.3259 20.379C20.0487 20.7469 20.8483 20.9387 21.6594 20.9387C22.4705 20.9387 23.2701 20.7469 23.9929 20.379C24.4961 20.1235 25.0526 19.9906 25.6169 19.991H25.8959L25.6559 20.231C25.5824 20.3045 25.5241 20.3917 25.4844 20.4877C25.4446 20.5837 25.4242 20.6866 25.4242 20.7905C25.4242 20.8944 25.4446 20.9973 25.4844 21.0933C25.5241 21.1893 25.5824 21.2765 25.6559 21.35C25.7294 21.4235 25.8166 21.4818 25.9126 21.5215C26.0086 21.5613 26.1115 21.5818 26.2154 21.5818C26.3193 21.5818 26.4222 21.5613 26.5182 21.5215C26.6142 21.4818 26.7014 21.4235 26.7749 21.35L28.3659 19.759C28.5141 19.6107 28.5973 19.4096 28.5973 19.2C28.5973 18.9904 28.5141 18.7893 28.3659 18.641V18.641Z" fill="white"/>
<path d="M31.288 11H14.359C14.1468 11 13.9433 11.0843 13.7933 11.2343C13.6432 11.3843 13.559 11.5878 13.559 11.8V15.753C13.5589 15.8611 13.581 15.968 13.6238 16.0672C13.6666 16.1663 13.7294 16.2557 13.8081 16.3297C13.8868 16.4038 13.9798 16.4609 14.0814 16.4975C14.1831 16.5342 14.2911 16.5497 14.399 16.543C14.6035 16.5253 14.7938 16.4308 14.9315 16.2785C15.0691 16.1261 15.144 15.9273 15.141 15.722V12.591H19.959V15.218C19.9589 15.3261 19.981 15.433 20.0238 15.5322C20.0666 15.6313 20.1293 15.7207 20.2081 15.7947C20.2868 15.8688 20.3798 15.9259 20.4814 15.9625C20.5831 15.9992 20.6911 16.0147 20.799 16.008C21.0035 15.9903 21.1938 15.8958 21.3315 15.7435C21.4692 15.5911 21.544 15.3923 21.541 15.187V12.587H24.776V15.214C24.7759 15.3221 24.798 15.429 24.8408 15.5282C24.8836 15.6273 24.9463 15.7167 25.0251 15.7907C25.1038 15.8648 25.1968 15.9219 25.2984 15.9585C25.4001 15.9952 25.5081 16.0107 25.616 16.004C25.8205 15.9863 26.0108 15.8918 26.1485 15.7395C26.2861 15.5871 26.361 15.3883 26.358 15.183V12.583H31.258V32.307H26.358V29.707C26.361 29.5017 26.2861 29.3029 26.1485 29.1505C26.0108 28.9982 25.8205 28.9037 25.616 28.886C25.5081 28.8793 25.4001 28.8948 25.2984 28.9315C25.1968 28.9681 25.1038 29.0253 25.0251 29.0993C24.9463 29.1733 24.8836 29.2627 24.8408 29.3619C24.798 29.461 24.7759 29.568 24.776 29.676V32.303H21.559V29.703C21.562 29.4977 21.4871 29.2989 21.3495 29.1465C21.2118 28.9942 21.0215 28.8997 20.817 28.882C20.7091 28.8753 20.601 28.8908 20.4994 28.9275C20.3978 28.9641 20.3048 29.0213 20.2261 29.0953C20.1474 29.1693 20.0846 29.2587 20.0418 29.3579C19.999 29.457 19.9769 29.564 19.977 29.672V32.299H15.159V29.168C15.162 28.9627 15.0872 28.7639 14.9495 28.6115C14.8118 28.4592 14.6215 28.3647 14.417 28.347C14.3091 28.3403 14.2011 28.3558 14.0994 28.3925C13.9978 28.4291 13.9048 28.4863 13.826 28.5603C13.7473 28.6343 13.6846 28.7237 13.6418 28.8229C13.599 28.922 13.5769 29.029 13.577 29.137V33.09C13.577 33.1951 13.5977 33.2991 13.6379 33.3962C13.6781 33.4932 13.737 33.5814 13.8113 33.6557C13.8856 33.73 13.9738 33.7889 14.0708 33.8291C14.1679 33.8693 14.2719 33.89 14.377 33.89H31.304C31.5096 33.89 31.7132 33.8495 31.9032 33.7708C32.0932 33.6921 32.2659 33.5768 32.4113 33.4313C32.5567 33.2859 32.6721 33.1133 32.7508 32.9233C32.8295 32.7333 32.87 32.5297 32.87 32.324V12.566C32.87 12.359 32.8289 12.154 32.7493 11.963C32.6696 11.772 32.5528 11.5986 32.4057 11.453C32.2585 11.3074 32.084 11.1923 31.8922 11.1146C31.7003 11.0368 31.495 10.9979 31.288 11V11Z" fill="white"/>
</svg>
