<svg xmlns="http://www.w3.org/2000/svg" width="41.025" height="41.025" viewBox="0 0 41.025 41.025">
  <g id="Group_525" data-name="Group 525" transform="translate(-1131.803 -304.459)">
    <circle id="Ellipse_52" data-name="Ellipse 52" cx="19.512" cy="19.512" r="19.512" transform="translate(1132.803 305.459)" fill="#7075f6" stroke="#fff" stroke-width="2"/>
    <path id="Path_1488" data-name="Path 1488" d="M309.85,92.022a4.206,4.206,0,1,1,4.206,4.207A4.211,4.211,0,0,1,309.85,92.022Zm5.142,5.141a6,6,0,0,1,4.3,1.813,6.134,6.134,0,0,1,1.777,4.325.467.467,0,0,1-.467.467H307.512a.467.467,0,0,1-.467-.467,6.129,6.129,0,0,1,1.777-4.325,6,6,0,0,1,4.3-1.813Z" transform="translate(838.008 228.394)" fill="#fff" fill-rule="evenodd"/>
  </g>
</svg>
