<svg xmlns="http://www.w3.org/2000/svg" width="96" height="89" viewBox="0 0 96 89">
  <g id="Group_557" data-name="Group 557" transform="translate(-282 -1202)">
    <g id="Group_526" data-name="Group 526" transform="translate(282 1202)">
      <g id="ios-qr-scanner">
        <path id="Path_1998" data-name="Path 1998" d="M32.692,4.5H19.011A15.638,15.638,0,0,0,3.375,20.136v13.68a3.256,3.256,0,1,0,6.513,0V19.9a8.916,8.916,0,0,1,2.724-6.1,8.886,8.886,0,0,1,6.165-2.793H32.692a3.256,3.256,0,0,0,0-6.513Z" transform="translate(-3.375 -4.497)" fill="#7075f6"/>
        <path id="Path_1999" data-name="Path 1999" d="M39.95,4.5H26.038a3.256,3.256,0,0,0,0,6.513H39.954a8.872,8.872,0,0,1,6.165,2.793,8.93,8.93,0,0,1,2.724,6.1V33.819a3.256,3.256,0,1,0,6.513,0V19.9A15.423,15.423,0,0,0,39.95,4.5Z" transform="translate(40.645 -4.499)" fill="#7075f6"/>
        <path id="Path_2000" data-name="Path 2000" d="M32.692,47.714H18.776a8.872,8.872,0,0,1-6.165-2.793,8.93,8.93,0,0,1-2.724-6.1V24.913a3.256,3.256,0,0,0-6.513,0V38.829a15.423,15.423,0,0,0,15.4,15.4H32.692a3.256,3.256,0,0,0,0-6.513Z" transform="translate(-3.375 34.767)" fill="#7075f6"/>
        <path id="Path_2001" data-name="Path 2001" d="M52.1,21.656a3.267,3.267,0,0,0-3.256,3.256V38.828a9.475,9.475,0,0,1-8.889,8.889H26.038a3.256,3.256,0,0,0,0,6.513h13.68A15.653,15.653,0,0,0,55.355,38.593V24.916A3.267,3.267,0,0,0,52.1,21.659Z" transform="translate(40.645 34.764)" fill="#7075f6"/>
      </g>
      <path id="barcode" d="M0,3V49.781H4.659V3ZM8.649,3V49.781h1.12V3Zm2.689,0V49.781H14.88V3H11.338Zm7.14,0V49.781H19.99V3Zm5.5,0V49.781H25.1V3H23.981Zm1.6,0V49.781h4.63V3Zm7.407,0V49.781h2.331V3Zm6.925,0V49.781h.517V3h-.516Zm4.072,0V49.781h1.557V3H43.983Zm5.546,0V49.781h1.12V3h-1.12Zm1.6,0V49.781h4.631V3h-4.63Z" transform="translate(20.181 17.881)" fill="#7075f6" opacity="0.302"/>
    </g>
    <text id="_" data-name="􀁡" transform="translate(330 1258)" fill="#d91e27" font-size="34" font-family="SFProText-Regular, SF Pro Text"><tspan x="-19.905" y="0">􀁡</tspan></text>
  </g>
</svg>
