<svg width="44" height="44" viewBox="0 0 44 44" fill="none" xmlns="http://www.w3.org/2000/svg">
<path d="M32 0H12C5.37258 0 0 5.37258 0 12V32C0 38.6274 5.37258 44 12 44H32C38.6274 44 44 38.6274 44 32V12C44 5.37258 38.6274 0 32 0Z" fill="#F2C129"/>
<path d="M32.643 16.154H31.067V13.789C31.067 13.5797 30.9838 13.379 30.8359 13.2311C30.6879 13.0831 30.4873 13 30.278 13H25.55C25.4464 13 25.3439 13.0204 25.2482 13.0601C25.1526 13.0998 25.0656 13.1579 24.9924 13.2311C24.9192 13.3044 24.8612 13.3914 24.8217 13.4871C24.7821 13.5828 24.7618 13.6854 24.762 13.789V16.154H18.462V13.789C18.4621 13.6854 18.4418 13.5828 18.4023 13.4871C18.3627 13.3914 18.3048 13.3044 18.2316 13.2311C18.1584 13.1579 18.0714 13.0998 17.9758 13.0601C17.8801 13.0204 17.7776 13 17.674 13H12.945C12.8414 13 12.7389 13.0204 12.6432 13.0601C12.5475 13.0998 12.4606 13.1579 12.3875 13.2311C12.3143 13.3044 12.2562 13.3914 12.2167 13.4871C12.1771 13.5828 12.1569 13.6854 12.157 13.789V16.154H10.581C10.3739 16.154 10.1689 16.1948 9.97766 16.274C9.78639 16.3533 9.61261 16.4695 9.46625 16.6159C9.31989 16.7624 9.20384 16.9363 9.1247 17.1276C9.04555 17.3189 9.00487 17.5239 9.00501 17.731V30.348C9.00487 30.555 9.04555 30.7601 9.1247 30.9514C9.20384 31.1427 9.31989 31.3166 9.46625 31.463C9.61261 31.6095 9.78639 31.7257 9.97766 31.8049C10.1689 31.8842 10.3739 31.925 10.581 31.925H32.648C33.0661 31.9247 33.4669 31.7585 33.7625 31.4627C34.058 31.167 34.224 30.7661 34.224 30.348V17.731C34.224 17.5236 34.1831 17.3182 34.1036 17.1266C34.0241 16.935 33.9075 16.761 33.7607 16.6145C33.6138 16.468 33.4395 16.3519 33.2477 16.2729C33.0559 16.1939 32.8504 16.1535 32.643 16.154V16.154ZM18.457 22.854C18.4571 22.9058 18.447 22.9571 18.4272 23.0049C18.4075 23.0528 18.3785 23.0963 18.3419 23.1329C18.3052 23.1695 18.2618 23.1985 18.2139 23.2183C18.1661 23.238 18.1148 23.2481 18.063 23.248H12.546C12.4415 23.248 12.3413 23.2065 12.2674 23.1326C12.1935 23.0587 12.152 22.9585 12.152 22.854V22.065C12.1518 22.0132 12.1619 21.9619 12.1817 21.9141C12.2015 21.8662 12.2305 21.8227 12.2671 21.7861C12.3037 21.7495 12.3472 21.7205 12.3951 21.7007C12.4429 21.681 12.4942 21.6709 12.546 21.671H18.063C18.1148 21.6709 18.1661 21.681 18.2139 21.7007C18.2618 21.7205 18.3052 21.7495 18.3419 21.7861C18.3785 21.8227 18.4075 21.8662 18.4272 21.9141C18.447 21.9619 18.4571 22.0132 18.457 22.065V22.854ZM31.067 22.854C31.067 22.9063 31.0566 22.958 31.0364 23.0062C31.0163 23.0544 30.9867 23.0981 30.9495 23.1347C30.9122 23.1714 30.8681 23.2003 30.8196 23.2198C30.7711 23.2392 30.7192 23.2488 30.667 23.248H28.697V25.219C28.6978 25.2712 28.6882 25.3231 28.6688 25.3716C28.6493 25.4201 28.6204 25.4643 28.5837 25.5015C28.5471 25.5387 28.5033 25.5683 28.4551 25.5884C28.4069 25.6086 28.3552 25.619 28.303 25.619H27.515C27.4628 25.619 27.411 25.6086 27.3628 25.5884C27.3146 25.5683 27.2709 25.5387 27.2343 25.5015C27.1976 25.4643 27.1687 25.4201 27.1492 25.3716C27.1298 25.3231 27.1202 25.2712 27.121 25.219V23.248H25.151C25.0465 23.248 24.9463 23.2065 24.8724 23.1326C24.7985 23.0587 24.757 22.9585 24.757 22.854V22.065C24.757 21.9605 24.7985 21.8603 24.8724 21.7864C24.9463 21.7125 25.0465 21.671 25.151 21.671H27.121V19.7C27.1202 19.6478 27.1298 19.5959 27.1492 19.5474C27.1687 19.4989 27.1976 19.4547 27.2343 19.4175C27.2709 19.3803 27.3146 19.3507 27.3628 19.3306C27.411 19.3104 27.4628 19.3 27.515 19.3H28.303C28.3552 19.3 28.4069 19.3104 28.4551 19.3306C28.5033 19.3507 28.5471 19.3803 28.5837 19.4175C28.6204 19.4547 28.6493 19.4989 28.6688 19.5474C28.6882 19.5959 28.6978 19.6478 28.697 19.7V21.679H30.667C30.7192 21.6782 30.7711 21.6878 30.8196 21.7072C30.8681 21.7267 30.9122 21.7556 30.9495 21.7923C30.9867 21.8289 31.0163 21.8726 31.0364 21.9208C31.0566 21.969 31.067 22.0207 31.067 22.073V22.854Z" fill="white"/>
</svg>
