<svg width="44" height="44" viewBox="0 0 44 44" fill="none" xmlns="http://www.w3.org/2000/svg">
<path d="M32 0H12C5.37258 0 0 5.37258 0 12V32C0 38.6274 5.37258 44 12 44H32C38.6274 44 44 38.6274 44 32V12C44 5.37258 38.6274 0 32 0Z" fill="#F2C129"/>
<path d="M21.995 9.32599H21.97C21.7221 9.32757 21.4849 9.42724 21.3102 9.60319C21.1356 9.77914 21.0377 10.0171 21.038 10.265V12.2C21.0384 12.3239 21.0632 12.4464 21.111 12.5607C21.1588 12.675 21.2287 12.7787 21.3167 12.8659C21.4047 12.9531 21.509 13.0222 21.6236 13.069C21.7383 13.1159 21.8611 13.1396 21.985 13.139H21.996C24.3471 13.139 26.602 14.073 28.2645 15.7355C29.927 17.398 30.861 19.6528 30.861 22.004C30.861 22.013 30.861 22.021 30.861 22.03C30.86 22.154 30.8836 22.2769 30.9304 22.3918C30.9771 22.5066 31.0461 22.6111 31.1334 22.6992C31.2207 22.7873 31.3245 22.8573 31.4389 22.9051C31.5533 22.953 31.676 22.9777 31.8 22.978H33.735C33.9829 22.9783 34.2208 22.8804 34.3968 22.7057C34.5727 22.5311 34.6724 22.2939 34.674 22.046C34.674 22.032 34.674 22.018 34.674 22.004C34.6737 18.6415 33.3378 15.4168 30.96 13.0392C28.5823 10.6617 25.3575 9.32599 21.995 9.32599V9.32599Z" fill="white"/>
<path d="M30.084 23.752C29.8571 23.5256 29.6775 23.2563 29.5556 22.9598C29.4337 22.6633 29.372 22.3455 29.374 22.025V22.004C29.3719 20.0473 28.5937 18.1714 27.2101 16.7879C25.8265 15.4043 23.9506 14.6261 21.994 14.624H21.983C21.339 14.6243 20.7212 14.3691 20.2651 13.9145C19.809 13.4599 19.5518 12.843 19.55 12.199V11.34C17.3782 11.6172 15.3275 12.4974 13.6306 13.881C11.9337 15.2646 10.6585 17.096 9.94967 19.1675C9.24087 21.2391 9.12683 23.4678 9.62048 25.6009C10.1141 27.734 11.1957 29.686 12.7425 31.2355C14.2894 32.7851 16.2395 33.8701 18.3717 34.3675C20.5039 34.8649 22.7328 34.7547 24.8056 34.0496C26.8784 33.3444 28.7121 32.0724 30.0986 30.378C31.4851 28.6835 32.369 26.6343 32.65 24.463H31.793C31.4753 24.4632 31.1607 24.4005 30.8674 24.2784C30.5741 24.1564 30.3078 23.9775 30.084 23.752V23.752ZM21.039 28.758C19.8919 28.758 18.7705 28.4178 17.8167 27.7805C16.8629 27.1432 16.1195 26.2374 15.6805 25.1776C15.2415 24.1177 15.1266 22.9516 15.3504 21.8265C15.5742 20.7014 16.1266 19.6679 16.9378 18.8568C17.7489 18.0456 18.7824 17.4932 19.9075 17.2694C21.0326 17.0456 22.1987 17.1605 23.2586 17.5995C24.3184 18.0385 25.2242 18.7819 25.8615 19.7357C26.4988 20.6895 26.839 21.8109 26.839 22.958C26.839 24.4963 26.2279 25.9715 25.1402 27.0592C24.0525 28.1469 22.5773 28.758 21.039 28.758V28.758Z" fill="white"/>
<path d="M21.039 22.187C20.8859 22.187 20.7363 22.2324 20.609 22.3174C20.4817 22.4025 20.3825 22.5234 20.3239 22.6648C20.2653 22.8062 20.25 22.9618 20.2799 23.112C20.3098 23.2621 20.3835 23.4 20.4917 23.5083C20.6 23.6165 20.7379 23.6902 20.888 23.7201C21.0382 23.75 21.1938 23.7347 21.3352 23.6761C21.4766 23.6175 21.5975 23.5183 21.6826 23.391C21.7676 23.2637 21.813 23.1141 21.813 22.961C21.8128 22.7558 21.7311 22.5591 21.586 22.414C21.4409 22.2689 21.2442 22.1873 21.039 22.187V22.187Z" fill="white"/>
<path d="M21 20C21.5523 20 22 19.5523 22 19C22 18.4477 21.5523 18 21 18C20.4477 18 20 18.4477 20 19C20 19.5523 20.4477 20 21 20Z" fill="white"/>
<path d="M21 28C21.5523 28 22 27.5523 22 27C22 26.4477 21.5523 26 21 26C20.4477 26 20 26.4477 20 27C20 27.5523 20.4477 28 21 28Z" fill="white"/>
<path d="M24 27C24.5523 27 25 26.5523 25 26C25 25.4477 24.5523 25 24 25C23.4477 25 23 25.4477 23 26C23 26.5523 23.4477 27 24 27Z" fill="white"/>
<path d="M18 27C18.5523 27 19 26.5523 19 26C19 25.4477 18.5523 25 18 25C17.4477 25 17 25.4477 17 26C17 26.5523 17.4477 27 18 27Z" fill="white"/>
<path d="M24 21C24.5523 21 25 20.5523 25 20C25 19.4477 24.5523 19 24 19C23.4477 19 23 19.4477 23 20C23 20.5523 23.4477 21 24 21Z" fill="white"/>
<path d="M18 21C18.5523 21 19 20.5523 19 20C19 19.4477 18.5523 19 18 19C17.4477 19 17 19.4477 17 20C17 20.5523 17.4477 21 18 21Z" fill="white"/>
<path d="M25 24C25.5523 24 26 23.5523 26 23C26 22.4477 25.5523 22 25 22C24.4477 22 24 22.4477 24 23C24 23.5523 24.4477 24 25 24Z" fill="white"/>
<path d="M17 24C17.5523 24 18 23.5523 18 23C18 22.4477 17.5523 22 17 22C16.4477 22 16 22.4477 16 23C16 23.5523 16.4477 24 17 24Z" fill="white"/>
</svg>
