<svg width="101" height="101" viewBox="0 0 101 101" fill="none" xmlns="http://www.w3.org/2000/svg">
<path d="M101 50.5C101 60.488 98.0382 70.2516 92.4892 78.5563C86.9402 86.861 79.0532 93.3337 69.8255 97.1559C60.5979 100.978 50.444 101.978 40.648 100.03C30.8519 98.0811 21.8537 93.2714 14.7911 86.2089C7.72858 79.1463 2.91892 70.1481 0.970366 60.3521C-0.978188 50.556 0.0218806 40.4022 3.84411 31.1745C7.66633 21.9468 14.139 14.0598 22.4437 8.51078C30.7484 2.96177 40.5121 0 50.5 0C57.1318 0 63.6986 1.30622 69.8255 3.84408C75.9525 6.38195 81.5196 10.1017 86.2089 14.7911C90.8983 19.4805 94.6181 25.0475 97.1559 31.1745C99.6938 37.3014 101 43.8682 101 50.5V50.5ZM44.659 77.239L82.126 39.772C82.4286 39.4695 82.6687 39.1103 82.8325 38.7149C82.9962 38.3196 83.0805 37.8959 83.0805 37.468C83.0805 37.0401 82.9962 36.6164 82.8325 36.2211C82.6687 35.8257 82.4286 35.4665 82.126 35.164L77.518 30.556C77.2155 30.2534 76.8563 30.0133 76.461 29.8496C76.0656 29.6858 75.6419 29.6015 75.214 29.6015C74.7861 29.6015 74.3624 29.6858 73.9671 29.8496C73.5718 30.0133 73.2126 30.2534 72.91 30.556L42.355 61.113L28.089 46.847C27.7865 46.5444 27.4273 46.3043 27.032 46.1406C26.6366 45.9768 26.2129 45.8925 25.785 45.8925C25.3571 45.8925 24.9334 45.9768 24.5381 46.1406C24.1428 46.3043 23.7836 46.5444 23.481 46.847L18.873 51.455C18.5704 51.7575 18.3304 52.1167 18.1666 52.5121C18.0028 52.9074 17.9185 53.3311 17.9185 53.759C17.9185 54.1869 18.0028 54.6106 18.1666 55.0059C18.3304 55.4013 18.5704 55.7605 18.873 56.063L40.051 77.239C40.3536 77.5416 40.7128 77.7817 41.1081 77.9454C41.5034 78.1092 41.9271 78.1935 42.355 78.1935C42.7829 78.1935 43.2066 78.1092 43.602 77.9454C43.9973 77.7817 44.3565 77.5416 44.659 77.239V77.239Z" fill="#F64E60"/>
<rect x="15" y="14" width="70" height="70" fill="#F64E60"/>
<path d="M70 32L32 69M32 32L70 69" stroke="white" stroke-width="7" stroke-linecap="round"/>
</svg>
