<svg width="60" height="60" viewBox="0 0 60 60" fill="none" xmlns="http://www.w3.org/2000/svg">
<path d="M48 0H12C5.37258 0 0 5.37258 0 12V48C0 54.6274 5.37258 60 12 60H48C54.6274 60 60 54.6274 60 48V12C60 5.37258 54.6274 0 48 0Z" fill="#F64E60"/>
<path d="M47.653 26.905L42.962 28.057C42.8138 28.1002 42.6716 28.162 42.539 28.241C42.3443 28.1223 42.1391 28.0219 41.926 27.941L41.252 26.247L40.052 23.247C39.5604 21.994 38.7018 20.9186 37.5887 20.1617C36.4757 19.4048 35.16 19.0016 33.814 19.005H26.196C24.8499 19.0015 23.5342 19.4046 22.4211 20.1615C21.308 20.9184 20.4495 21.9939 19.958 23.247L18.758 26.247L18.084 27.941C17.8758 28.0214 17.6751 28.1198 17.484 28.235C17.3418 28.1479 17.1884 28.0806 17.028 28.035L12.337 26.905C12.0584 26.8378 11.7682 26.8347 11.4883 26.896C11.2084 26.9572 10.946 27.0811 10.7209 27.2585C10.4958 27.4358 10.3139 27.6619 10.1888 27.9198C10.0638 28.1776 9.99888 28.4604 9.99899 28.747V31.254C9.99888 31.6777 10.1409 32.0892 10.4023 32.4226C10.6638 32.756 11.0295 32.9921 11.441 33.093L15.603 34.115V34.427C15.6053 35.3583 15.9465 36.257 16.563 36.955V40.223C16.5633 40.7319 16.7655 41.2198 17.1254 41.5796C17.4852 41.9395 17.9731 42.1417 18.482 42.142H20.409C20.918 42.1396 21.4052 41.9354 21.7636 41.5741C22.1221 41.2128 22.3226 40.724 22.321 40.215V38.282H37.677V40.218C37.6773 40.7269 37.8795 41.2148 38.2393 41.5746C38.5992 41.9345 39.0871 42.1367 39.596 42.137H41.533C42.042 42.1346 42.5291 41.9304 42.8876 41.5691C43.2461 41.2078 43.4466 40.719 43.445 40.21V36.952C44.0605 36.2534 44.4016 35.3551 44.405 34.424V34.11L48.549 33.11C48.9624 33.0103 49.3302 32.7744 49.5932 32.4403C49.8562 32.1062 49.9992 31.6932 49.999 31.268V28.74C49.9972 28.4536 49.9307 28.1712 49.8044 27.9141C49.678 27.657 49.4952 27.4318 49.2696 27.2553C49.044 27.0789 48.7814 26.9557 48.5014 26.895C48.2215 26.8343 47.9314 26.8377 47.653 26.905ZM23.512 24.672C23.7241 24.1357 24.0924 23.6756 24.5692 23.3512C25.046 23.0269 25.6093 22.8533 26.186 22.853H33.804C34.3806 22.8534 34.9439 23.027 35.4207 23.3514C35.8974 23.6757 36.2658 24.1358 36.478 24.672L37.678 27.672H22.312L23.512 24.672ZM20.402 34.413V34.419C20.1458 34.4248 19.8911 34.3794 19.6527 34.2855C19.4144 34.1915 19.1972 34.0508 19.014 33.8717C18.8307 33.6926 18.6851 33.4787 18.5857 33.2425C18.4863 33.0064 18.4351 32.7527 18.4351 32.4965C18.4351 32.2403 18.4863 31.9866 18.5857 31.7505C18.6851 31.5143 18.8307 31.3004 19.014 31.1213C19.1972 30.9422 19.4144 30.8015 19.6527 30.7075C19.8911 30.6136 20.1458 30.5682 20.402 30.574C21.1108 30.7197 21.7614 31.0702 22.2731 31.5819C22.7848 32.0936 23.1352 32.7441 23.281 33.453C23.282 34.606 21.554 34.414 20.402 34.414V34.413ZM39.602 34.413C38.45 34.413 36.723 34.603 36.723 33.448C36.8687 32.7391 37.2191 32.0886 37.7309 31.5769C38.2426 31.0652 38.8931 30.7147 39.602 30.569C40.1119 30.569 40.6009 30.7715 40.9614 31.1321C41.3219 31.4926 41.5245 31.9816 41.5245 32.4915C41.5245 33.0014 41.3219 33.4904 40.9614 33.8509C40.6009 34.2115 40.1119 34.414 39.602 34.414V34.413Z" fill="white"/>
</svg>
