<svg width="44" height="44" viewBox="0 0 44 44" fill="none" xmlns="http://www.w3.org/2000/svg">
<path d="M32 0H12C5.37258 0 0 5.37258 0 12V32C0 38.6274 5.37258 44 12 44H32C38.6274 44 44 38.6274 44 32V12C44 5.37258 38.6274 0 32 0Z" fill="#F2C129"/>
<path d="M36.424 18.285C36.3152 18.1174 36.1522 17.9922 35.9622 17.9303C35.7722 17.8685 35.5667 17.8736 35.38 17.945L24.714 22.025L22.73 20.041C22.6491 19.9599 22.5529 19.8955 22.447 19.8516C22.3412 19.8077 22.2277 19.785 22.113 19.785H19.138V16.576H21.764C21.8811 16.58 21.9978 16.5603 22.1071 16.5183C22.2164 16.4762 22.3161 16.4126 22.4004 16.3312C22.4846 16.2498 22.5515 16.1522 22.5973 16.0444C22.643 15.9366 22.6666 15.8206 22.6666 15.7035C22.6666 15.5864 22.643 15.4704 22.5973 15.3626C22.5515 15.2548 22.4846 15.1573 22.4004 15.0758C22.3161 14.9944 22.2164 14.9308 22.1071 14.8887C21.9978 14.8467 21.8811 14.827 21.764 14.831H14.764C14.647 14.827 14.5303 14.8467 14.421 14.8887C14.3117 14.9308 14.2119 14.9944 14.1277 15.0758C14.0435 15.1573 13.9765 15.2548 13.9308 15.3626C13.8851 15.4704 13.8615 15.5864 13.8615 15.7035C13.8615 15.8206 13.8851 15.9366 13.9308 16.0444C13.9765 16.1522 14.0435 16.2498 14.1277 16.3312C14.2119 16.4126 14.3117 16.4762 14.421 16.5183C14.5303 16.5603 14.647 16.58 14.764 16.576H17.39V19.785H15.571L7.61904 16.493C7.40511 16.4062 7.16562 16.4071 6.95231 16.4954C6.739 16.5837 6.569 16.7524 6.47904 16.965L4.88704 20.815C4.84312 20.9208 4.82048 21.0343 4.82043 21.1489C4.82039 21.2635 4.84292 21.377 4.88676 21.4828C4.9306 21.5887 4.99487 21.6849 5.07591 21.7659C5.15694 21.8469 5.25316 21.9112 5.35904 21.955V21.955L11.578 24.531V28.294C11.578 28.5255 11.67 28.7476 11.8337 28.9113C11.9975 29.075 12.2195 29.167 12.451 29.167H26.151C26.3825 29.1668 26.6044 29.0748 26.768 28.911L36.306 19.373C36.4468 19.2323 36.5352 19.0477 36.5567 18.8498C36.5781 18.6519 36.5313 18.4526 36.424 18.285V18.285ZM6.83304 20.678L7.76004 18.44L11.779 20.105C11.6499 20.2608 11.5792 20.4567 11.579 20.659V22.645L6.83304 20.678ZM25.793 27.424H13.326V24.01C13.3285 23.9724 13.3285 23.9346 13.326 23.897V21.531H21.751L23.88 23.66C23.999 23.7796 24.15 23.8622 24.3149 23.8977C24.4798 23.9332 24.6514 23.9201 24.809 23.86L32.18 21.039L25.793 27.424Z" fill="white" stroke="white"/>
<path d="M37.553 24.101C37.553 24.101 35.925 26.457 35.925 27.356C35.9196 27.5731 35.9577 27.7891 36.0371 27.9913C36.1165 28.1935 36.2355 28.3777 36.3872 28.5332C36.5388 28.6886 36.72 28.8122 36.9202 28.8965C37.1203 28.9809 37.3353 29.0244 37.5525 29.0244C37.7697 29.0244 37.9847 28.9809 38.1848 28.8965C38.385 28.8122 38.5662 28.6886 38.7178 28.5332C38.8695 28.3777 38.9885 28.1935 39.0679 27.9913C39.1473 27.7891 39.1854 27.5731 39.18 27.356C39.176 26.457 37.553 24.101 37.553 24.101Z" fill="white" stroke="white"/>
</svg>
