<svg width="60" height="60" viewBox="0 0 60 60" fill="none" xmlns="http://www.w3.org/2000/svg">
<path d="M48 0H12C5.37258 0 0 5.37258 0 12V48C0 54.6274 5.37258 60 12 60H48C54.6274 60 60 54.6274 60 48V12C60 5.37258 54.6274 0 48 0Z" fill="#F64E60"/>
<path d="M47.51 30.694L45.884 27.012C45.7984 26.8183 45.6583 26.6537 45.4807 26.5383C45.3031 26.4228 45.0958 26.3616 44.884 26.362H42.191C41.9018 26.362 41.6245 26.4768 41.4199 26.6812C41.2153 26.8856 41.1003 27.1628 41.1 27.452V29.172H40.262V27.757C40.262 27.4677 40.1471 27.1902 39.9425 26.9856C39.7379 26.781 39.4604 26.666 39.171 26.666H36.271V23.688C36.271 23.5447 36.2428 23.4029 36.188 23.2705C36.1331 23.1381 36.0528 23.0179 35.9515 22.9166C35.8501 22.8152 35.7299 22.7349 35.5975 22.6801C35.4651 22.6252 35.3233 22.597 35.18 22.597H29.807V21.558H35.175C35.4644 21.558 35.7419 21.4431 35.9465 21.2385C36.1511 21.0339 36.266 20.7564 36.266 20.467C36.266 20.1777 36.1511 19.9002 35.9465 19.6956C35.7419 19.491 35.4644 19.376 35.175 19.376H22.257C21.9676 19.376 21.6901 19.491 21.4855 19.6956C21.2809 19.9002 21.166 20.1777 21.166 20.467C21.166 20.7564 21.2809 21.0339 21.4855 21.2385C21.6901 21.4431 21.9676 21.558 22.257 21.558H27.625V22.597H22.257C21.9676 22.597 21.6901 22.712 21.4855 22.9166C21.2809 23.1212 21.166 23.3987 21.166 23.688V24.595H18.772C18.4826 24.595 18.2051 24.71 18.0005 24.9146C17.7959 25.1192 17.681 25.3967 17.681 25.686V31.541H16.181V25.686C16.181 25.3967 16.0661 25.1192 15.8615 24.9146C15.6569 24.71 15.3794 24.595 15.09 24.595C14.8006 24.595 14.5231 24.71 14.3185 24.9146C14.1139 25.1192 13.999 25.3967 13.999 25.686V39.579C13.999 39.8684 14.1139 40.1459 14.3185 40.3505C14.5231 40.5551 14.8006 40.67 15.09 40.67C15.3794 40.67 15.6569 40.5551 15.8615 40.3505C16.0661 40.1459 16.181 39.8684 16.181 39.579V33.728H17.681V39.583C17.681 39.8724 17.7959 40.1499 18.0005 40.3545C18.2051 40.5591 18.4826 40.674 18.772 40.674H23.012L27.319 44.274C27.5153 44.4381 27.7631 44.5281 28.019 44.528H39.17C39.4594 44.528 39.7369 44.4131 39.9415 44.2085C40.1461 44.0039 40.261 43.7264 40.261 43.437V40.462H41.1V42.182C41.1 42.4714 41.2149 42.7489 41.4195 42.9535C41.6241 43.1581 41.9016 43.273 42.191 43.273H44.886C45.0978 43.2734 45.3051 43.2122 45.4827 43.0968C45.6603 42.9813 45.8004 42.8167 45.886 42.623L47.512 38.941C47.5733 38.8021 47.605 38.6519 47.605 38.5V31.134C47.6043 30.9823 47.5719 30.8325 47.51 30.694V30.694ZM45.421 38.269L44.175 41.09H43.282V39.37C43.282 39.0807 43.1671 38.8032 42.9625 38.5986C42.7579 38.394 42.4804 38.279 42.191 38.279H39.17C39.0267 38.279 38.8849 38.3072 38.7525 38.3621C38.6201 38.4169 38.4999 38.4972 38.3985 38.5986C38.2972 38.6999 38.2169 38.8201 38.162 38.9525C38.1072 39.0849 38.079 39.2267 38.079 39.37V42.344H28.415L24.108 38.744C23.9117 38.5799 23.6639 38.49 23.408 38.49H19.863V26.778H22.257C22.5464 26.778 22.8239 26.6631 23.0285 26.4585C23.2331 26.2539 23.348 25.9764 23.348 25.687V24.78H34.083V27.758C34.083 28.0474 34.1979 28.3249 34.4025 28.5295C34.6071 28.7341 34.8846 28.849 35.174 28.849H38.074V30.264C38.074 30.5534 38.1889 30.8309 38.3935 31.0355C38.5981 31.2401 38.8756 31.355 39.165 31.355H42.185C42.4744 31.355 42.7519 31.2401 42.9565 31.0355C43.1611 30.8309 43.276 30.5534 43.276 30.264V28.544H44.169L45.415 31.365L45.421 38.269Z" fill="white"/>
</svg>
