<svg width="44" height="44" viewBox="0 0 44 44" fill="none" xmlns="http://www.w3.org/2000/svg">
<path d="M8.516 0H35.484C37.7426 0 39.9087 0.897219 41.5057 2.49428C43.1028 4.09134 44 6.25742 44 8.516V35.484C44 37.7426 43.1028 39.9087 41.5057 41.5057C39.9087 43.1028 37.7426 44 35.484 44H8.516C6.25742 44 4.09134 43.1028 2.49428 41.5057C0.897219 39.9087 0 37.7426 0 35.484L0 8.516C0 6.25742 0.897219 4.09134 2.49428 2.49428C4.09134 0.897219 6.25742 0 8.516 0V0Z" fill="#F2C129"/>
<path d="M24.5189 28.359H13.3329C13.1851 28.359 13.0435 28.4175 12.9387 28.5216C12.834 28.6258 12.7747 28.7672 12.7739 28.915V30.028C12.7747 30.1757 12.834 30.3171 12.9387 30.4213C13.0435 30.5255 13.1851 30.584 13.3329 30.584H24.5189C24.6666 30.5837 24.8082 30.5252 24.9128 30.421C25.0175 30.3169 25.0769 30.1756 25.0779 30.028V28.915C25.0769 28.7673 25.0175 28.6261 24.9128 28.5219C24.8082 28.4178 24.6666 28.3592 24.5189 28.359ZM30.0189 16.507L27.1859 13.689C27.0805 13.5855 26.9386 13.5276 26.7909 13.5276C26.6432 13.5276 26.5014 13.5855 26.3959 13.689L25.9959 14.082C25.892 14.1864 25.8336 14.3277 25.8336 14.475C25.8336 14.6223 25.892 14.7636 25.9959 14.868L27.3139 16.179V18.339C27.3163 18.8072 27.4872 19.2589 27.7953 19.6115C28.1035 19.964 28.5283 20.1939 28.9919 20.259V25.853C28.9919 26.0755 28.9035 26.2889 28.7462 26.4463C28.5888 26.6036 28.3754 26.692 28.1529 26.692C27.9304 26.692 27.717 26.6036 27.5596 26.4463C27.4023 26.2889 27.3139 26.0755 27.3139 25.853V24.739C27.313 24.336 27.2327 23.9372 27.0776 23.5652C26.9225 23.1933 26.6957 22.8555 26.41 22.5713C26.1244 22.287 25.7855 22.0618 25.4128 21.9085C25.0401 21.7553 24.6409 21.6769 24.2379 21.678H23.9579V14.998C23.9558 14.4062 23.719 13.8394 23.2994 13.4221C22.8798 13.0047 22.3117 12.7709 21.7199 12.772H16.1269C15.5353 12.7712 14.9675 13.0051 14.5481 13.4224C14.1287 13.8397 13.892 14.4064 13.8899 14.998V27.243H23.9579V23.343H24.2379C24.4212 23.3422 24.6029 23.3776 24.7725 23.4471C24.9421 23.5166 25.0964 23.6189 25.2264 23.7481C25.3565 23.8773 25.4598 24.0309 25.5304 24.2C25.601 24.3692 25.6375 24.5507 25.6379 24.734V25.701C25.6251 26.3409 25.8476 26.9632 26.2633 27.4499C26.679 27.9366 27.2588 28.2536 27.8929 28.341C28.2428 28.3773 28.5964 28.3399 28.931 28.2313C29.2655 28.1227 29.5736 27.9451 29.8354 27.7102C30.0972 27.4752 30.3069 27.1881 30.451 26.8672C30.5951 26.5463 30.6703 26.1987 30.6719 25.847V18.075C30.6689 17.4858 30.4322 16.9219 30.0139 16.507H30.0189ZM21.7269 19.454H16.1339V15.001H21.7269V19.454Z" fill="white"/>
</svg>
