<svg width="60" height="60" viewBox="0 0 60 60" fill="none" xmlns="http://www.w3.org/2000/svg">
<path d="M48 0H12C5.37258 0 0 5.37258 0 12V48C0 54.6274 5.37258 60 12 60H48C54.6274 60 60 54.6274 60 48V12C60 5.37258 54.6274 0 48 0Z" fill="#F64E60"/>
<path d="M19.067 29.556L19.629 28.144L20.629 25.644C21.0389 24.5995 21.7546 23.7031 22.6824 23.0722C23.6102 22.4412 24.707 22.1052 25.829 22.108H32.179C33.301 22.1053 34.3977 22.4414 35.3255 23.0723C36.2533 23.7033 36.969 24.5996 37.379 25.644L38.379 28.144L38.941 29.556C39.5491 29.7874 40.0725 30.1983 40.4417 30.7341C40.8108 31.2699 41.0084 31.9053 41.008 32.556V34.968C41.0057 35.7441 40.7214 36.4929 40.208 37.075V39.791C40.2088 40.0016 40.168 40.2103 40.0879 40.4051C40.0079 40.5999 39.8901 40.777 39.7415 40.9262C39.5928 41.0755 39.4162 41.1938 39.2217 41.2746C39.0272 41.3554 38.8186 41.397 38.608 41.397H37C36.7894 41.397 36.5808 41.3554 36.3863 41.2746C36.1918 41.1938 36.0152 41.0755 35.8665 40.9262C35.7178 40.777 35.6001 40.5999 35.5201 40.4051C35.44 40.2103 35.3992 40.0016 35.4 39.791V38.183H22.6V39.791C22.6008 40.0016 22.56 40.2103 22.4799 40.4051C22.3999 40.5999 22.2822 40.777 22.1335 40.9262C21.9848 41.0755 21.8082 41.1938 21.6137 41.2746C21.4192 41.3554 21.2106 41.397 21 41.397H19.4C19.1894 41.397 18.9808 41.3554 18.7863 41.2746C18.5918 41.1938 18.4152 41.0755 18.2665 40.9262C18.1178 40.777 18.0001 40.5999 17.9201 40.4051C17.84 40.2103 17.7992 40.0016 17.8 39.791V37.073C17.2866 36.4909 17.0023 35.7421 17 34.966V32.554C17 31.9037 17.1977 31.2687 17.5669 30.7333C17.936 30.1979 18.4592 29.7873 19.067 29.556V29.556ZM34.4 26.836C34.223 26.3892 33.9159 26.0058 33.5184 25.7355C33.121 25.4652 32.6516 25.3204 32.171 25.32H25.821C25.3404 25.3204 24.871 25.4652 24.4736 25.7355C24.0761 26.0058 23.769 26.3892 23.592 26.836L22.592 29.336H35.4L34.4 26.836ZM37 34.956C37.425 34.956 37.8326 34.7871 38.1331 34.4866C38.4337 34.1861 38.6025 33.7785 38.6025 33.3535C38.6025 32.9285 38.4337 32.5209 38.1331 32.2204C37.8326 31.9198 37.425 31.751 37 31.751C36.4092 31.8727 35.867 32.1649 35.4404 32.5914C35.0139 33.0179 34.7217 33.5602 34.6 34.151C34.6 35.113 36.04 34.955 37 34.955V34.956ZM21 34.956C21.96 34.956 23.4 35.116 23.4 34.156C23.2783 33.5652 22.9861 33.023 22.5596 32.5964C22.133 32.1699 21.5908 31.8777 21 31.756C20.575 31.756 20.1674 31.9248 19.8669 32.2253C19.5663 32.5259 19.3975 32.9335 19.3975 33.3585C19.3975 33.7835 19.5663 34.1911 19.8669 34.4916C20.1674 34.7922 20.575 34.961 21 34.961V34.956Z" fill="white"/>
<path d="M41.8951 21.2249C41.6281 21.2249 41.4852 21.0649 41.1719 20.7144C41.0448 20.5721 40.7455 20.2372 40.5537 20.0849L39.908 20.6064V19.5599V17.5649C39.908 15.6301 41.4821 14.056 43.4169 14.056H43.4632C45.3972 14.056 46.9706 15.6301 46.9706 17.5649V19.5599V20.0599H46.4706H44.9774H44.4774V19.5599V17.5649C44.4774 17.0049 44.0217 16.5493 43.4617 16.5493H43.4154C42.8554 16.5493 42.3997 17.0049 42.3997 17.5649V20.7242V21.0861L42.056 21.1992L41.9799 21.2242L41.8951 21.2249Z" fill="white"/>
<path d="M41.8951 20.7249C41.8968 20.7249 41.8983 20.7247 41.8997 20.7242V17.5649C41.8997 16.7287 42.5792 16.0493 43.4154 16.0493H43.4617C44.2979 16.0493 44.9774 16.7287 44.9774 17.5649V19.5599C45.4675 19.5599 45.4116 19.5599 46.4706 19.5599V17.5649C46.4706 15.9059 45.1207 14.556 43.4632 14.556H43.4169C41.7579 14.556 40.408 15.9059 40.408 17.5649V19.5599C40.7531 19.2812 41.7609 20.7249 41.8951 20.7249ZM41.8951 21.7249C41.4044 21.7249 41.1373 21.426 40.7991 21.0476C40.7355 20.9765 40.6322 20.8609 40.5268 20.7495L39.408 21.6533V17.5649C39.408 15.3544 41.2064 13.556 43.4169 13.556H43.4632C45.6729 13.556 47.4706 15.3544 47.4706 17.5649V20.5599H43.9774V17.5649C43.9774 17.2806 43.746 17.0493 43.4617 17.0493H43.4154C43.1311 17.0493 42.8997 17.2806 42.8997 17.5649V21.4498L42.0587 21.7242L41.8951 21.7249Z" fill="#F64E60"/>
<path d="M38.2192 30.5003C35.0656 30.5003 32.5 27.9347 32.5 24.7811C32.5 23.2806 33.0763 21.8629 34.1226 20.7893C34.6974 20.1982 35.3766 19.7472 36.1409 19.4495C36.8002 19.1912 37.4998 19.06 38.2192 19.06C38.9387 19.06 39.6383 19.1912 40.2986 19.4499C41.0622 19.7493 41.7408 20.1999 42.3157 20.7892C43.3623 21.8653 43.9385 23.2828 43.9385 24.7811C43.9385 27.9347 41.3728 30.5003 38.2192 30.5003ZM37.8384 26.9055H38.6001L38.281 25.3924C38.2043 25.0402 38.3587 24.6733 38.666 24.4785C38.8703 24.3502 39.0098 24.1424 39.0508 23.9071C39.0593 23.8583 39.0636 23.8098 39.0636 23.7626C39.0636 23.2968 38.6849 22.9178 38.2194 22.9178C38.2124 22.9178 38.2053 22.9179 38.1982 22.9181C37.7553 22.9284 37.3861 23.2974 37.3746 23.7406C37.3736 23.7931 37.3779 23.8494 37.3877 23.9052C37.4284 24.1406 37.5679 24.3482 37.7706 24.4755C38.0763 24.6693 38.2313 25.036 38.1582 25.389L37.8384 26.9055Z" fill="white"/>
<path d="M38.2192 30.0003C41.1014 30.0003 43.4385 27.6651 43.4385 24.7811C43.4385 23.3648 42.8731 22.0793 41.9578 21.1383C41.4421 20.6097 40.816 20.1898 40.1161 19.9154C39.5287 19.6852 38.8877 19.56 38.2192 19.56C37.5507 19.56 36.9098 19.6852 36.3224 19.9154C35.6225 20.188 34.9964 20.6079 34.4807 21.1383C33.5636 22.0793 33 23.3648 33 24.7811C33 27.6633 35.3371 30.0003 38.2192 30.0003ZM38.2194 22.4178C38.9611 22.4178 39.5636 23.0205 39.5636 23.7626C39.5636 23.8418 39.5562 23.9192 39.5434 23.9929C39.477 24.3741 39.2505 24.7018 38.9337 24.9008C38.803 24.9837 38.7367 25.1383 38.7699 25.2875L39.1695 27.1826C39.1935 27.2968 39.1069 27.4055 38.989 27.4055H37.4494C37.3316 27.4055 37.245 27.2986 37.2689 27.1826L37.6686 25.2875C37.6999 25.1365 37.6354 24.9818 37.5047 24.8989C37.1879 24.7 36.9614 24.3741 36.8951 23.991C36.8803 23.9063 36.873 23.8179 36.8748 23.7277C36.8932 23.015 37.4733 22.4348 38.1861 22.4182C38.1972 22.4179 38.2083 22.4178 38.2194 22.4178ZM38.2192 31.0003C34.7899 31.0003 32 28.2104 32 24.7811C32 23.1494 32.6267 21.6079 33.7646 20.4403C34.3892 19.7979 35.1279 19.3075 35.9594 18.9836C36.6762 18.7028 37.4371 18.56 38.2192 18.56C39.0014 18.56 39.7623 18.7028 40.481 18.9843C41.3112 19.3099 42.0488 19.7996 42.6736 20.44C43.8121 21.6105 44.4385 23.1518 44.4385 24.7811C44.4385 28.2104 41.6485 31.0003 38.2192 31.0003ZM37.8746 23.7509C37.8743 23.7732 37.8762 23.7962 37.8802 23.8194C37.8969 23.9157 37.9538 24.0001 38.0365 24.052C38.102 24.0936 38.1632 24.1402 38.2197 24.1911C38.2748 24.1419 38.3344 24.0967 38.3982 24.0562C38.4845 24.002 38.5415 23.9173 38.5582 23.8214C38.5618 23.8004 38.5636 23.781 38.5636 23.7626C38.5636 23.5725 38.4092 23.4178 38.2194 23.4178L38.2103 23.4179C38.0302 23.4221 37.8806 23.5713 37.8746 23.7509Z" fill="#F64E60"/>
</svg>
