<svg width="60" height="60" viewBox="0 0 60 60" fill="none" xmlns="http://www.w3.org/2000/svg">
<path d="M48 0H12C5.37258 0 0 5.37258 0 12V48C0 54.6274 5.37258 60 12 60H48C54.6274 60 60 54.6274 60 48V12C60 5.37258 54.6274 0 48 0Z" fill="#0BBEA5"/>
<path d="M19.067 29.556L19.629 28.144L20.629 25.644C21.0389 24.5995 21.7546 23.7031 22.6824 23.0722C23.6102 22.4412 24.707 22.1052 25.829 22.108H32.179C33.301 22.1053 34.3977 22.4414 35.3255 23.0723C36.2533 23.7033 36.969 24.5996 37.379 25.644L38.379 28.144L38.941 29.556C39.5491 29.7874 40.0725 30.1983 40.4417 30.7341C40.8108 31.2699 41.0084 31.9053 41.008 32.556V34.968C41.0057 35.7441 40.7214 36.4929 40.208 37.075V39.791C40.2088 40.0016 40.168 40.2103 40.0879 40.4051C40.0079 40.5999 39.8901 40.777 39.7415 40.9262C39.5928 41.0755 39.4162 41.1938 39.2217 41.2746C39.0272 41.3554 38.8186 41.397 38.608 41.397H37C36.7894 41.397 36.5808 41.3554 36.3863 41.2746C36.1918 41.1938 36.0152 41.0755 35.8665 40.9262C35.7178 40.777 35.6001 40.5999 35.5201 40.4051C35.44 40.2103 35.3992 40.0016 35.4 39.791V38.183H22.6V39.791C22.6008 40.0016 22.56 40.2103 22.4799 40.4051C22.3999 40.5999 22.2822 40.777 22.1335 40.9262C21.9848 41.0755 21.8082 41.1938 21.6137 41.2746C21.4192 41.3554 21.2106 41.397 21 41.397H19.4C19.1894 41.397 18.9808 41.3554 18.7863 41.2746C18.5918 41.1938 18.4152 41.0755 18.2665 40.9262C18.1178 40.777 18.0001 40.5999 17.9201 40.4051C17.84 40.2103 17.7992 40.0016 17.8 39.791V37.073C17.2866 36.4909 17.0023 35.7421 17 34.966V32.554C17 31.9037 17.1977 31.2687 17.5669 30.7333C17.936 30.1979 18.4592 29.7873 19.067 29.556V29.556ZM34.4 26.836C34.223 26.3892 33.9159 26.0058 33.5184 25.7355C33.121 25.4652 32.6516 25.3204 32.171 25.32H25.821C25.3404 25.3204 24.871 25.4652 24.4736 25.7355C24.0761 26.0058 23.769 26.3892 23.592 26.836L22.592 29.336H35.4L34.4 26.836ZM37 34.956C37.425 34.956 37.8326 34.7871 38.1331 34.4866C38.4337 34.1861 38.6025 33.7785 38.6025 33.3535C38.6025 32.9285 38.4337 32.5209 38.1331 32.2204C37.8326 31.9198 37.425 31.751 37 31.751C36.4092 31.8727 35.867 32.1649 35.4404 32.5914C35.0139 33.0179 34.7217 33.5602 34.6 34.151C34.6 35.113 36.04 34.955 37 34.955V34.956ZM21 34.956C21.96 34.956 23.4 35.116 23.4 34.156C23.2783 33.5652 22.9861 33.023 22.5596 32.5964C22.133 32.1699 21.5908 31.8777 21 31.756C20.575 31.756 20.1674 31.9248 19.8669 32.2253C19.5663 32.5259 19.3975 32.9335 19.3975 33.3585C19.3975 33.7835 19.5663 34.1911 19.8669 34.4916C20.1674 34.7922 20.575 34.961 21 34.961V34.956Z" fill="white"/>
<path d="M33.981 21.1899V20.1433V17.6829C33.981 15.361 35.8691 13.472 38.19 13.472H38.2471C40.569 13.472 42.4581 15.361 42.4581 17.6829V20.1433V21.1898L41.6439 20.5323C41.2485 20.213 40.8109 19.9508 40.3434 19.753C40.2175 19.6993 40.0896 19.6511 39.962 19.6091L39.6182 19.496V19.1341V17.6829C39.6182 16.9279 39.004 16.3136 38.249 16.3136H38.1919C37.4369 16.3136 36.8226 16.9279 36.8226 17.6829V19.1323V19.4911L36.4826 19.606C36.3478 19.6515 36.2181 19.7008 36.0971 19.7524C35.6281 19.9508 35.1905 20.213 34.7951 20.5323L33.981 21.1899Z" fill="white"/>
<path d="M41.9581 20.1433V17.6829C41.9581 15.6368 40.2932 13.972 38.2471 13.972H38.19C36.1458 13.972 34.481 15.6368 34.481 17.6829V20.1433C34.9119 19.7953 35.3871 19.5098 35.9009 19.2925C36.039 19.2336 36.1808 19.1802 36.3226 19.1323V17.6829C36.3226 16.6516 37.1606 15.8136 38.1919 15.8136H38.249C39.2803 15.8136 40.1182 16.6516 40.1182 17.6829V19.1341C40.2582 19.1802 40.4 19.2336 40.5381 19.2925C41.0519 19.5098 41.5271 19.7953 41.9581 20.1433ZM33.481 22.2364V17.6829C33.481 15.0853 35.5934 12.972 38.19 12.972H38.2471C40.8448 12.972 42.9581 15.0853 42.9581 17.6829V22.2363L41.3298 20.9213C40.9706 20.6312 40.5732 20.3931 40.1486 20.2135C40.0343 20.1648 39.9199 20.1216 39.8057 20.084L39.1182 19.8579V17.6829C39.1182 17.2036 38.7283 16.8136 38.249 16.8136H38.1919C37.7126 16.8136 37.3226 17.2036 37.3226 17.6829V19.85L36.6426 20.0797C36.52 20.1211 36.4024 20.1657 36.2933 20.2123C35.8658 20.3931 35.4684 20.6312 35.1093 20.9213L33.481 22.2364Z" fill="#0BBEA5"/>
<path d="M38.2192 30.5003C35.0656 30.5003 32.5 27.9347 32.5 24.7811C32.5 23.2806 33.0763 21.8629 34.1226 20.7893C34.6974 20.1982 35.3766 19.7472 36.1409 19.4495C36.8002 19.1912 37.4998 19.06 38.2192 19.06C38.9387 19.06 39.6383 19.1912 40.2986 19.4499C41.0622 19.7493 41.7408 20.1999 42.3157 20.7892C43.3623 21.8653 43.9385 23.2828 43.9385 24.7811C43.9385 27.9347 41.3728 30.5003 38.2192 30.5003ZM37.8384 26.9055H38.6001L38.281 25.3924C38.2043 25.0402 38.3587 24.6733 38.666 24.4785C38.8703 24.3502 39.0098 24.1424 39.0508 23.9071C39.0593 23.8583 39.0636 23.8098 39.0636 23.7626C39.0636 23.2968 38.6849 22.9178 38.2194 22.9178C38.2124 22.9178 38.2053 22.9179 38.1982 22.9181C37.7553 22.9284 37.3861 23.2974 37.3746 23.7406C37.3736 23.7931 37.3779 23.8494 37.3877 23.9052C37.4284 24.1406 37.5679 24.3482 37.7706 24.4755C38.0763 24.6693 38.2313 25.036 38.1582 25.389L37.8384 26.9055Z" fill="white"/>
<path d="M38.2192 30.0003C41.1014 30.0003 43.4385 27.6651 43.4385 24.7811C43.4385 23.3648 42.8731 22.0793 41.9578 21.1383C41.4421 20.6097 40.816 20.1898 40.1161 19.9154C39.5287 19.6852 38.8877 19.56 38.2192 19.56C37.5507 19.56 36.9098 19.6852 36.3224 19.9154C35.6225 20.188 34.9964 20.6079 34.4807 21.1383C33.5636 22.0793 33 23.3648 33 24.7811C33 27.6633 35.3371 30.0003 38.2192 30.0003ZM38.2194 22.4178C38.9611 22.4178 39.5636 23.0205 39.5636 23.7626C39.5636 23.8418 39.5562 23.9192 39.5434 23.9929C39.477 24.3741 39.2505 24.7018 38.9337 24.9008C38.803 24.9837 38.7367 25.1383 38.7699 25.2875L39.1695 27.1826C39.1935 27.2968 39.1069 27.4055 38.989 27.4055H37.4494C37.3316 27.4055 37.245 27.2986 37.2689 27.1826L37.6686 25.2875C37.6999 25.1365 37.6354 24.9818 37.5047 24.8989C37.1879 24.7 36.9614 24.3741 36.8951 23.991C36.8803 23.9063 36.873 23.8179 36.8748 23.7277C36.8932 23.015 37.4733 22.4348 38.1861 22.4182C38.1972 22.4179 38.2083 22.4178 38.2194 22.4178ZM38.2192 31.0003C34.7899 31.0003 32 28.2104 32 24.7811C32 23.1494 32.6267 21.6079 33.7646 20.4403C34.3892 19.7979 35.1279 19.3075 35.9594 18.9836C36.6762 18.7028 37.4371 18.56 38.2192 18.56C39.0014 18.56 39.7623 18.7028 40.481 18.9843C41.3112 19.3099 42.0488 19.7996 42.6736 20.44C43.8121 21.6105 44.4385 23.1518 44.4385 24.7811C44.4385 28.2104 41.6485 31.0003 38.2192 31.0003ZM37.8746 23.7509C37.8743 23.7732 37.8762 23.7962 37.8802 23.8194C37.8969 23.9157 37.9538 24.0001 38.0365 24.052C38.102 24.0936 38.1632 24.1402 38.2197 24.1911C38.2748 24.1419 38.3344 24.0967 38.3982 24.0562C38.4845 24.002 38.5415 23.9173 38.5582 23.8214C38.5618 23.8004 38.5636 23.781 38.5636 23.7626C38.5636 23.5725 38.4092 23.4178 38.2194 23.4178L38.2103 23.4179C38.0302 23.4221 37.8806 23.5713 37.8746 23.7509Z" fill="#0BBEA5"/>
</svg>
