<svg width="44" height="44" viewBox="0 0 44 44" fill="none" xmlns="http://www.w3.org/2000/svg">
<path d="M32 0H12C5.37258 0 0 5.37258 0 12V32C0 38.6274 5.37258 44 12 44H32C38.6274 44 44 38.6274 44 32V12C44 5.37258 38.6274 0 32 0Z" fill="#F2C129"/>
<path d="M35.568 20.979L34.248 17.989C34.1785 17.8318 34.0649 17.6982 33.9209 17.6045C33.7769 17.5107 33.6088 17.4609 33.437 17.461H31.249C31.014 17.461 30.7886 17.5543 30.6225 17.7205C30.4563 17.8867 30.363 18.112 30.363 18.347V19.74H29.682V18.594C29.682 18.359 29.5886 18.1337 29.4225 17.9675C29.2563 17.8013 29.0309 17.708 28.796 17.708H26.437V15.29C26.437 15.055 26.3436 14.8297 26.1775 14.6635C26.0113 14.4973 25.7859 14.404 25.551 14.404H21.192V13.56H25.551C25.7859 13.56 26.0113 13.4666 26.1775 13.3005C26.3436 13.1343 26.437 12.909 26.437 12.674C26.437 12.439 26.3436 12.2137 26.1775 12.0475C26.0113 11.8813 25.7859 11.788 25.551 11.788H15.061C14.826 11.788 14.6006 11.8813 14.4345 12.0475C14.2683 12.2137 14.175 12.439 14.175 12.674C14.175 12.909 14.2683 13.1343 14.4345 13.3005C14.6006 13.4666 14.826 13.56 15.061 13.56H19.42V14.404H15.061C14.826 14.404 14.6006 14.4973 14.4345 14.6635C14.2683 14.8297 14.175 15.055 14.175 15.29V16.026H12.231C11.996 16.026 11.7706 16.1193 11.6045 16.2855C11.4383 16.4517 11.345 16.677 11.345 16.912V21.667H10.128V16.912C10.128 16.677 10.0346 16.4517 9.86845 16.2855C9.7023 16.1193 9.47694 16.026 9.24196 16.026C9.00698 16.026 8.78162 16.1193 8.61546 16.2855C8.4493 16.4517 8.35596 16.677 8.35596 16.912V28.194C8.35596 28.429 8.4493 28.6543 8.61546 28.8205C8.78162 28.9866 9.00698 29.08 9.24196 29.08C9.47694 29.08 9.7023 28.9866 9.86845 28.8205C10.0346 28.6543 10.128 28.429 10.128 28.194V23.44H11.345V28.195C11.345 28.43 11.4383 28.6553 11.6045 28.8215C11.7706 28.9876 11.996 29.081 12.231 29.081H15.674L19.174 32.006C19.3333 32.1391 19.5343 32.212 19.742 32.212H28.796C28.9123 32.212 29.0275 32.1891 29.135 32.1446C29.2425 32.1 29.3402 32.0348 29.4225 31.9525C29.5047 31.8702 29.57 31.7725 29.6145 31.6651C29.659 31.5576 29.682 31.4423 29.682 31.326V28.911H30.363V30.311C30.363 30.546 30.4563 30.7713 30.6225 30.9375C30.7886 31.1036 31.014 31.197 31.249 31.197H33.437C33.6088 31.1971 33.7769 31.1472 33.9209 31.0535C34.0649 30.9598 34.1785 30.8262 34.248 30.669L35.568 27.679C35.6176 27.5662 35.6431 27.4442 35.643 27.321V21.34C35.6436 21.2157 35.618 21.0927 35.568 20.979V20.979ZM33.868 27.131L32.856 29.421H32.131V28.021C32.131 27.786 32.0376 27.5607 31.8715 27.3945C31.7053 27.2283 31.4799 27.135 31.245 27.135H28.796C28.561 27.135 28.3356 27.2283 28.1695 27.3945C28.0033 27.5607 27.91 27.786 27.91 28.021V30.44H20.062L16.562 27.515C16.4026 27.3819 16.2016 27.309 15.994 27.309H13.117V17.799H15.061C15.2959 17.799 15.5213 17.7056 15.6875 17.5395C15.8536 17.3733 15.947 17.148 15.947 16.913V16.177H24.664V18.595C24.664 18.83 24.7573 19.0553 24.9235 19.2215C25.0896 19.3876 25.315 19.481 25.55 19.481H27.909V20.63C27.909 20.865 28.0023 21.0903 28.1685 21.2565C28.3346 21.4226 28.56 21.516 28.795 21.516H31.248C31.4829 21.516 31.7083 21.4226 31.8745 21.2565C32.0406 21.0903 32.134 20.865 32.134 20.63V19.23H32.856L33.868 21.521V27.131Z" fill="white"/>
<path d="M30.7501 5.69202C30.7501 5.69202 25.0031 14.012 25.0031 17.186C25.0031 18.7104 25.6086 20.1722 26.6865 21.2501C27.7643 22.328 29.2262 22.9335 30.7505 22.9335C32.2749 22.9335 33.7368 22.328 34.8146 21.2501C35.8925 20.1722 36.498 18.7104 36.498 17.186C36.494 14.012 30.7501 5.69202 30.7501 5.69202Z" fill="white" stroke="#F2C129"/>
</svg>
