<svg xmlns="http://www.w3.org/2000/svg" xmlns:xlink="http://www.w3.org/1999/xlink" width="44" height="44" viewBox="0 0 44 44">
  <defs>
    <clipPath id="clip-path">
      <rect id="Rectangle_867" data-name="Rectangle 867" width="17.898" height="17.811" transform="translate(0 0)" fill="#fff"/>
    </clipPath>
  </defs>
  <g id="Group_540" data-name="Group 540" transform="translate(-451 -300)">
    <path id="Path_2064" data-name="Path 2064" d="M8.516,0H35.484A8.516,8.516,0,0,1,44,8.516V35.484A8.516,8.516,0,0,1,35.484,44H8.516A8.516,8.516,0,0,1,0,35.484V8.516A8.516,8.516,0,0,1,8.516,0Z" transform="translate(451 300)" fill="#f2c129"/>
    <g id="Group_522" data-name="Group 522" transform="translate(463.774 312.774)" clip-path="url(#clip-path)">
      <path id="Path_2065" data-name="Path 2065" d="M590.833,327.62H579.647a.559.559,0,0,0-.559.556v1.113a.559.559,0,0,0,.559.556h11.186a.56.56,0,0,0,.559-.556v-1.113A.56.56,0,0,0,590.833,327.62Zm5.5-11.852L593.5,312.95a.564.564,0,0,0-.79,0l-.4.393a.557.557,0,0,0,0,.786l1.318,1.311v2.16a1.949,1.949,0,0,0,1.678,1.92v5.594a.839.839,0,0,1-1.678,0V324a3.068,3.068,0,0,0-3.076-3.061h-.28v-6.68a2.234,2.234,0,0,0-2.238-2.226h-5.593a2.234,2.234,0,0,0-2.237,2.226v12.245h10.068v-3.9h.28a1.394,1.394,0,0,1,1.4,1.391v.967a2.612,2.612,0,0,0,2.255,2.64,2.519,2.519,0,0,0,2.779-2.494v-7.772A2.225,2.225,0,0,0,596.328,315.768Zm-8.292,2.947h-5.593v-4.453h5.593Z" transform="translate(-579.088 -312.035)" fill="#fff"/>
    </g>
  </g>
</svg>
