<svg xmlns="http://www.w3.org/2000/svg" width="157" height="145" viewBox="0 0 157 145">
  <g id="Group_560" data-name="Group 560" transform="translate(-345 -942)">
    <g id="Group_513" data-name="Group 513" transform="translate(83.548 788.406)">
      <g id="ios-qr-scanner" transform="translate(261.452 153.594)">
        <path id="Path_1998" data-name="Path 1998" d="M51.138,4.5H28.85A25.478,25.478,0,0,0,3.375,29.975V52.263a5.305,5.305,0,1,0,10.61,0V29.592a14.525,14.525,0,0,1,4.437-9.931,14.478,14.478,0,0,1,10.044-4.55H51.138a5.305,5.305,0,0,0,0-10.61Z" transform="translate(-3.375 -4.495)" fill="#7075f6"/>
        <path id="Path_1999" data-name="Path 1999" d="M50.753,4.5H28.087a5.305,5.305,0,0,0,0,10.61H50.758A14.455,14.455,0,0,1,60.8,19.665,14.549,14.549,0,0,1,65.24,29.6V52.267a5.305,5.305,0,1,0,10.61,0V29.6a25.128,25.128,0,0,0-25.1-25.1Z" transform="translate(81.15 -4.499)" fill="#7075f6"/>
        <path id="Path_2000" data-name="Path 2000" d="M51.138,64.109H28.467a14.455,14.455,0,0,1-10.044-4.55,14.549,14.549,0,0,1-4.437-9.931V26.962a5.305,5.305,0,0,0-10.61,0V49.633a25.128,25.128,0,0,0,25.1,25.1H51.138a5.305,5.305,0,0,0,0-10.61Z" transform="translate(-3.375 70.269)" fill="#7075f6"/>
        <path id="Path_2001" data-name="Path 2001" d="M70.545,21.656a5.322,5.322,0,0,0-5.305,5.305V49.632A14.525,14.525,0,0,1,60.8,59.563a14.478,14.478,0,0,1-10.044,4.55H28.087a5.305,5.305,0,0,0,0,10.61H50.376A25.5,25.5,0,0,0,75.85,49.249V26.967a5.322,5.322,0,0,0-5.305-5.305Z" transform="translate(81.15 70.265)" fill="#7075f6"/>
      </g>
    </g>
    <g id="qr-code-line" transform="translate(381 972)" opacity="0.3">
      <path id="Path_1980" data-name="Path 1980" d="M8.409,4A4.409,4.409,0,0,0,4,8.409V26.044H26.044V4ZM20.533,20.533H9.511V9.511H20.533Z" fill="#7075f6"/>
      <path id="Path_1981" data-name="Path 1981" d="M4,41.636a4.409,4.409,0,0,0,4.409,4.409H26.044V24H4ZM9.511,29.511H20.533V40.533H9.511Z" transform="translate(0 35.111)" fill="#7075f6"/>
      <path id="Path_1982" data-name="Path 1982" d="M24,46.044H41.636a4.409,4.409,0,0,0,4.409-4.409V24H24Zm5.511-16.533H40.533V40.533H29.511Z" transform="translate(35.111 35.111)" fill="#7075f6"/>
      <path id="Path_1983" data-name="Path 1983" d="M41.636,4H24V26.044H46.044V8.409A4.409,4.409,0,0,0,41.636,4Zm-1.1,16.533H29.511V9.511H40.533Z" transform="translate(35.111)" fill="#7075f6"/>
      <path id="Path_1984" data-name="Path 1984" d="M27.022,13.511V8H16V19.022h5.511V13.511Z" transform="translate(21.067 7.022)" fill="#7075f6"/>
      <path id="Path_1985" data-name="Path 1985" d="M12,12h5.511v5.511H12Z" transform="translate(14.044 14.044)" fill="#7075f6"/>
      <path id="Path_1986" data-name="Path 1986" d="M14,14H25.022v5.511H14Z" transform="translate(17.556 17.556)" fill="#7075f6"/>
      <path id="Path_1987" data-name="Path 1987" d="M30.533,9.511v5.511h5.511V4H14V15.022h5.511V9.511Z" transform="translate(17.556)" fill="#7075f6"/>
      <path id="Path_1988" data-name="Path 1988" d="M4,14H9.511V25.022H4Z" transform="translate(0 17.556)" fill="#7075f6"/>
      <path id="Path_1989" data-name="Path 1989" d="M26.044,19.511v5.511H20.533V14H15.022V25.022H9.511v5.511H4v5.511H15.022V30.533h5.511v5.511h5.511V30.533h5.511V19.511Z" transform="translate(0 17.556)" fill="#7075f6"/>
      <path id="Path_1990" data-name="Path 1990" d="M23.511,26.533h5.511v5.511h5.511V26.533h5.511V21.022H29.022V10H23.511v5.511H18v5.511h5.511Z" transform="translate(24.578 10.533)" fill="#7075f6"/>
      <path id="Path_1991" data-name="Path 1991" d="M25.022,33.511H14v5.511H36.044V33.511H30.533V28H25.022Z" transform="translate(17.556 42.133)" fill="#7075f6"/>
      <path id="Path_1992" data-name="Path 1992" d="M32.533,27.022V21.511H27.022V16H21.511v5.511H16v5.511h5.511v5.511h5.511V27.022Z" transform="translate(21.067 21.067)" fill="#7075f6"/>
      <path id="Path_1993" data-name="Path 1993" d="M30,20h5.511v5.511H30Z" transform="translate(45.645 28.089)" fill="#7075f6"/>
      <path id="Path_1994" data-name="Path 1994" d="M22,20H38.533v5.511H22Z" transform="translate(31.6 28.089)" fill="#7075f6"/>
      <path id="Path_1995" data-name="Path 1995" d="M37.022,14H31.511v5.511H26v5.511h5.511v5.511h5.511V25.022h5.511V19.511H37.022Z" transform="translate(38.622 17.556)" fill="#7075f6"/>
      <path id="Path_1996" data-name="Path 1996" d="M20,22h5.511V38.533H20Z" transform="translate(28.089 31.6)" fill="#7075f6"/>
      <path id="Path_1997" data-name="Path 1997" d="M14,42.044h5.511V36.533h5.511V31.022H19.511V20H14Z" transform="translate(17.556 28.089)" fill="#7075f6"/>
    </g>
  </g>
</svg>
