<svg width="96" height="89" viewBox="0 0 96 89" fill="none" xmlns="http://www.w3.org/2000/svg">
<g clip-path="url(#clip0)">
<path d="M29.317 0.00294828H15.636C11.4892 0.00347859 7.51247 1.65101 4.58026 4.58321C1.64806 7.51542 0.00053031 11.4922 0 15.6389V29.319C0 30.1826 0.343095 31.0109 0.953807 31.6216C1.56452 32.2324 2.39282 32.5754 3.2565 32.5754C4.12018 32.5754 4.94848 32.2324 5.55919 31.6216C6.16991 31.0109 6.513 30.1826 6.513 29.319V15.4029C6.59613 13.0934 7.57276 10.9064 9.237 9.30295C10.8431 7.59515 13.059 6.59124 15.402 6.50995H29.317C30.1807 6.50995 31.009 6.16685 31.6197 5.55614C32.2304 4.94543 32.5735 4.11713 32.5735 3.25345C32.5735 2.38977 32.2304 1.56147 31.6197 0.950755C31.009 0.340043 30.1807 -0.00305176 29.317 -0.00305176V0.00294828Z" fill="#7075F6"/>
<path d="M80.595 0.000946045H66.683C65.8193 0.000946045 64.991 0.344041 64.3803 0.954753C63.7696 1.56547 63.4265 2.39377 63.4265 3.25745C63.4265 4.12112 63.7696 4.94943 64.3803 5.56014C64.991 6.17085 65.8193 6.51395 66.683 6.51395H80.599C82.9423 6.59373 85.1588 7.59788 86.764 9.30695C88.427 10.9113 89.4034 13.0978 89.488 15.4069V29.3199C89.488 30.1836 89.8311 31.0119 90.4418 31.6226C91.0525 32.2334 91.8808 32.5764 92.7445 32.5764C93.6082 32.5764 94.4365 32.2334 95.0472 31.6226C95.6579 31.0119 96.001 30.1836 96.001 29.3199V15.4009C95.9949 11.3174 94.3696 7.40302 91.4816 4.5161C88.5935 1.62919 84.6785 0.00544255 80.595 0.000946045Z" fill="#7075F6"/>
<path d="M29.317 82.4809H15.401C13.0577 82.4012 10.8412 81.397 9.23599 79.6879C7.57297 78.0836 6.59657 75.8971 6.51199 73.5879V59.6799C6.51199 58.8163 6.1689 57.988 5.55819 57.3773C4.94747 56.7665 4.11917 56.4234 3.25549 56.4234C2.39182 56.4234 1.56351 56.7665 0.9528 57.3773C0.342088 57.988 -0.00100707 58.8163 -0.00100708 59.6799V73.5959C0.00507649 77.6784 1.62953 81.5919 4.51627 84.4787C7.40301 87.3654 11.3165 88.9899 15.399 88.9959H29.317C30.1807 88.9959 31.009 88.6529 31.6197 88.0421C32.2304 87.4314 32.5735 86.6031 32.5735 85.7394C32.5735 84.8758 32.2304 84.0475 31.6197 83.4368C31.009 82.826 30.1807 82.4829 29.317 82.4829V82.4809Z" fill="#7075F6"/>
<path d="M92.745 56.4199C91.8823 56.4228 91.0558 56.7668 90.4458 57.3768C89.8359 57.9868 89.4919 58.8133 89.489 59.6759V73.5919C89.3499 75.904 88.3687 78.085 86.7309 79.7229C85.0931 81.3607 82.912 82.3419 80.6 82.4809H66.683C65.8193 82.4809 64.991 82.824 64.3803 83.4348C63.7696 84.0455 63.4265 84.8738 63.4265 85.7374C63.4265 86.6011 63.7696 87.4294 64.3803 88.0401C64.991 88.6509 65.8193 88.9939 66.683 88.9939H80.363C84.5089 88.9897 88.4837 87.3409 91.4153 84.4093C94.3469 81.4777 95.9958 77.5028 96 73.3569V59.6799C95.9973 58.8173 95.6536 57.9907 95.0438 57.3805C94.434 56.7703 93.6076 56.4261 92.745 56.4229V56.4199Z" fill="#7075F6"/>
<g opacity="0.3">
<path opacity="0.3" d="M22.712 16.5C21.8394 16.5 21.0026 16.8466 20.3856 17.4636C19.7686 18.0806 19.422 18.9174 19.422 19.79V32.951H35.873V16.5H22.712ZM31.76 28.838H23.535V20.613H31.76V28.838Z" fill="#7075F6"/>
<path opacity="0.3" d="M19.422 70.788C19.422 71.6606 19.7686 72.4974 20.3856 73.1144C21.0026 73.7314 21.8394 74.078 22.712 74.078H35.873V57.627H19.422V70.788ZM23.535 61.74H31.76V69.965H23.535V61.74Z" fill="#7075F6"/>
<path opacity="0.3" d="M60.549 74.078H73.71C74.5826 74.078 75.4194 73.7314 76.0364 73.1144C76.6534 72.4974 77 71.6606 77 70.788V57.627H60.549V74.078ZM64.662 61.74H72.887V69.965H64.662V61.74Z" fill="#7075F6"/>
<path opacity="0.3" d="M73.71 16.5H60.549V32.951H77V19.79C77 18.9174 76.6534 18.0806 76.0364 17.4636C75.4194 16.8466 74.5826 16.5 73.71 16.5ZM72.887 28.838H64.662V20.613H72.887V28.838Z" fill="#7075F6"/>
<path opacity="0.3" d="M52.323 28.838V24.725H44.098V32.95H48.211V28.838H52.323Z" fill="#7075F6"/>
<path opacity="0.3" d="M35.873 32.951H39.986V37.064H35.873V32.951Z" fill="#7075F6"/>
<path opacity="0.3" d="M39.986 37.064H48.211V41.177H39.986V37.064Z" fill="#7075F6"/>
<path opacity="0.3" d="M52.324 20.613V24.726H56.437V16.5H39.986V24.725H44.099V20.613H52.324Z" fill="#7075F6"/>
<path opacity="0.3" d="M19.422 37.064H23.535V45.289H19.422V37.064Z" fill="#7075F6"/>
<path opacity="0.3" d="M35.873 41.177V45.29H31.76V37.064H27.647V45.289H23.535V49.402H19.422V53.515H27.647V49.402H31.76V53.515H35.873V49.402H39.986V41.177H35.873Z" fill="#7075F6"/>
<path opacity="0.3" d="M52.324 41.176H56.437V45.289H60.55V41.176H64.663V37.063H56.436V28.838H52.324V32.951H48.211V37.064H52.324V41.176Z" fill="#7075F6"/>
<path opacity="0.3" d="M48.211 69.966H39.986V74.079H56.437V69.966H52.324V65.853H48.211V69.966Z" fill="#7075F6"/>
<path opacity="0.3" d="M56.436 49.401V45.289H52.323V41.176H48.211V45.289H44.098V49.402H48.211V53.515H52.324V49.401H56.436Z" fill="#7075F6"/>
<path opacity="0.3" d="M72.887 49.402H77V53.515H72.887V49.402Z" fill="#7075F6"/>
<path opacity="0.3" d="M56.437 49.402H68.775V53.515H56.437V49.402Z" fill="#7075F6"/>
<path opacity="0.3" d="M72.887 37.064H68.775V41.177H64.662V45.29H68.775V49.403H72.888V45.289H77.001V41.177H72.887V37.064Z" fill="#7075F6"/>
<path opacity="0.3" d="M52.324 53.515H56.437V65.853H52.324V53.515Z" fill="#7075F6"/>
<path opacity="0.3" d="M39.986 65.853H44.099V61.74H48.212V57.627H44.099V49.402H39.986V65.853Z" fill="#7075F6"/>
</g>
<rect x="31" y="28" width="34" height="34" rx="17" fill="#F64E60"/>
<path d="M54 39L41 51M41 39L54 51" stroke="white" stroke-width="3" stroke-linecap="round"/>
</g>
<defs>
<clipPath id="clip0">
<rect width="96" height="89" fill="white"/>
</clipPath>
</defs>
</svg>
