<svg xmlns="http://www.w3.org/2000/svg" width="62" height="62" viewBox="0 0 62 62">
  <g id="Group_538" data-name="Group 538" transform="translate(-353 -193)">
    <rect id="Rectangle_393" data-name="Rectangle 393" width="62" height="62" rx="12" transform="translate(353 193)" fill="#0bbea5"/>
    <path id="Path_1000" data-name="Path 1000" d="M770.1,374.387a.591.591,0,0,0-.991-.27l-3.663,3.644-3.344-.554-.557-3.327,3.663-3.645a.588.588,0,0,0-.279-.988,7.11,7.11,0,0,0-6.727,1.859,7.034,7.034,0,0,0-1.677,7.215l-10.511,10.46a3.126,3.126,0,0,0,0,4.436,3.163,3.163,0,0,0,4.458,0l10.5-10.451a7.054,7.054,0,0,0,9.126-8.379ZM748.24,392.175A1.177,1.177,0,1,1,749.422,391,1.18,1.18,0,0,1,748.24,392.175Z" transform="translate(-373.697 -157.587)" fill="#fff"/>
  </g>
</svg>
