<svg xmlns="http://www.w3.org/2000/svg" width="24" height="24" viewBox="0 0 24 24">
  <g id="Group_536" data-name="Group 536" transform="translate(-26 -320)">
    <g id="Group_144" data-name="Group 144" transform="translate(-25.979 29.021)">
      <path id="Path_775" data-name="Path 775" d="M56.992,388.538l-.3.544a.453.453,0,0,1-.56.206,4.072,4.072,0,0,1-1.19-.709.482.482,0,0,1-.1-.6l.3-.546a3.3,3.3,0,0,1-.59-1.044h-.612a.461.461,0,0,1-.452-.392,4.418,4.418,0,0,1,0-1.415.465.465,0,0,1,.452-.4h.612a3.328,3.328,0,0,1,.59-1.044l-.3-.544a.479.479,0,0,1,.1-.6,4.118,4.118,0,0,1,1.19-.709.453.453,0,0,1,.56.206l.3.546a3.2,3.2,0,0,1,1.176,0l.3-.546a.453.453,0,0,1,.56-.206,4.071,4.071,0,0,1,1.19.709.484.484,0,0,1,.1.6l-.3.544a3.328,3.328,0,0,1,.59,1.044h.612a.462.462,0,0,1,.453.393,4.409,4.409,0,0,1,0,1.414.465.465,0,0,1-.453.4h-.612a3.3,3.3,0,0,1-.59,1.044l.3.546a.477.477,0,0,1-.1.6,4.122,4.122,0,0,1-1.19.709.453.453,0,0,1-.56-.206l-.3-.544A3.2,3.2,0,0,1,56.992,388.538ZM56.6,386.3a1.4,1.4,0,0,0,1.958-2.013A1.4,1.4,0,0,0,56.6,386.3Zm-4.276,5.865,1.25.641a.929.929,0,0,1,.389,1.109,9.026,9.026,0,0,1-1.58,2.507.869.869,0,0,1-1.124.2l-1.079-.639a6.32,6.32,0,0,1-2.036,1.207v1.281a.9.9,0,0,1-.731.9,8.116,8.116,0,0,1-2.815,0,.908.908,0,0,1-.742-.9v-1.281a6.4,6.4,0,0,1-2.036-1.207l-1.079.636a.872.872,0,0,1-1.124-.2,9.036,9.036,0,0,1-1.565-2.5.932.932,0,0,1,.39-1.109l1.235-.641a6.783,6.783,0,0,1,0-2.416l-1.235-.644a.92.92,0,0,1-.39-1.1,8.994,8.994,0,0,1,1.565-2.508.871.871,0,0,1,1.124-.2l1.079.641a6.349,6.349,0,0,1,2.036-1.209v-1.284a.9.9,0,0,1,.727-.894,8.251,8.251,0,0,1,2.819,0,.908.908,0,0,1,.742.9v1.282a6.4,6.4,0,0,1,2.036,1.207l1.079-.639a.87.87,0,0,1,1.124.2,8.969,8.969,0,0,1,1.561,2.507.924.924,0,0,1-.371,1.109l-1.25.641A6.8,6.8,0,0,1,52.326,392.161Zm-4.361.8c2.2-2.934-1.064-6.285-3.92-4.027C41.85,391.872,45.11,395.221,47.965,392.965Zm9.026,6.964-.3.544a.453.453,0,0,1-.56.206,4.074,4.074,0,0,1-1.19-.709.484.484,0,0,1-.1-.6l.3-.544a3.3,3.3,0,0,1-.59-1.044h-.612a.461.461,0,0,1-.452-.393,4.409,4.409,0,0,1,0-1.414.465.465,0,0,1,.452-.4h.612a3.312,3.312,0,0,1,.59-1.044l-.3-.544a.479.479,0,0,1,.1-.6,4.118,4.118,0,0,1,1.19-.709.453.453,0,0,1,.56.206l.3.544a3.264,3.264,0,0,1,1.176,0l.3-.544a.453.453,0,0,1,.56-.206,4.071,4.071,0,0,1,1.19.709.484.484,0,0,1,.1.6l-.3.544a3.312,3.312,0,0,1,.59,1.044h.612a.461.461,0,0,1,.453.393,4.409,4.409,0,0,1,0,1.414.465.465,0,0,1-.453.4h-.612a3.3,3.3,0,0,1-.59,1.044l.3.544a.479.479,0,0,1-.1.6,4.123,4.123,0,0,1-1.19.709.453.453,0,0,1-.56-.206l-.3-.544A3.261,3.261,0,0,1,56.992,399.929Zm-.389-2.246a1.4,1.4,0,0,0,1.958-2.011A1.4,1.4,0,0,0,56.6,397.683Z" transform="translate(14 -88.016)" fill="#d1defe"/>
      <rect id="Rectangle_381" data-name="Rectangle 381" width="24" height="24" transform="translate(51.979 290.979)" fill="none"/>
    </g>
  </g>
</svg>
