<svg width="60" height="60" viewBox="0 0 60 60" fill="none" xmlns="http://www.w3.org/2000/svg">
<path d="M48 0H12C5.37258 0 0 5.37258 0 12V48C0 54.6274 5.37258 60 12 60H48C54.6274 60 60 54.6274 60 48V12C60 5.37258 54.6274 0 48 0Z" fill="#F64E60"/>
<path d="M48.892 27.762H44.664C40.83 22.04 44.147 27.282 40.716 21.997C40.6437 21.8105 40.5166 21.6503 40.3515 21.5374C40.1864 21.4244 39.9911 21.364 39.791 21.364H24.186C24.0144 21.3639 23.8456 21.4084 23.6963 21.493C23.5469 21.5777 23.4221 21.6997 23.334 21.847L19.798 27.762H12.198C11.9606 27.762 11.731 27.8471 11.551 28.002C11.371 28.1569 11.2525 28.3712 11.217 28.606L9.97505 36.889C9.95405 37.03 9.96371 37.1739 10.0034 37.3108C10.043 37.4477 10.1118 37.5745 10.2049 37.6824C10.298 37.7903 10.4133 37.8769 10.543 37.9362C10.6726 37.9955 10.8135 38.0261 10.956 38.026H14.621C15.0303 38.9134 15.6851 39.6649 16.5081 40.1917C17.3312 40.7185 18.2879 40.9985 19.265 40.9985C20.2422 40.9985 21.1989 40.7185 22.022 40.1917C22.845 39.6649 23.4998 38.9134 23.909 38.026H36.664C37.0731 38.9134 37.7278 39.6651 38.5508 40.1919C39.3737 40.7188 40.3304 40.9988 41.3075 40.9988C42.2847 40.9988 43.2414 40.7188 44.0643 40.1919C44.8873 39.6651 45.542 38.9134 45.951 38.026H48.89C49.0203 38.0261 49.1492 38.0006 49.2696 37.9509C49.3899 37.9011 49.4993 37.8282 49.5914 37.7361C49.6836 37.6441 49.7566 37.5348 49.8065 37.4145C49.8564 37.2942 49.882 37.1652 49.882 37.035V28.753C49.8818 28.4904 49.7774 28.2387 49.5919 28.0529C49.4063 27.8672 49.1546 27.7625 48.892 27.762V27.762ZM47.9 36.045H45.264C45.0491 36.045 44.8399 36.1148 44.668 36.2439C44.4961 36.373 44.3709 36.5545 44.311 36.761C44.1222 37.4117 43.7272 37.9834 43.1855 38.3902C42.6437 38.7971 41.9845 39.017 41.307 39.017C40.6296 39.017 39.9704 38.7971 39.4286 38.3902C38.8869 37.9834 38.4919 37.4117 38.303 36.761C38.2432 36.5545 38.118 36.373 37.9461 36.2439C37.7742 36.1148 37.565 36.045 37.35 36.045H23.223C23.0081 36.045 22.7989 36.1148 22.627 36.2439C22.4551 36.373 22.3299 36.5545 22.27 36.761C22.0809 37.4115 21.6857 37.983 21.1439 38.3897C20.6021 38.7963 19.943 39.0162 19.2655 39.0162C18.5881 39.0162 17.929 38.7963 17.3872 38.3897C16.8454 37.983 16.4502 37.4115 16.261 36.761C16.2012 36.5545 16.076 36.373 15.9041 36.2439C15.7322 36.1148 15.523 36.045 15.308 36.045H12.108L13.051 29.745H20.364C20.5357 29.7451 20.7045 29.7007 20.8538 29.616C21.0031 29.5313 21.128 29.4094 21.216 29.262L24.752 23.347H39.116L41.349 29.112C41.4214 29.2985 41.5485 29.4587 41.7136 29.5717C41.8787 29.6846 42.074 29.7451 42.274 29.745H47.901V36.045H47.9Z" fill="white" stroke="white"/>
<path d="M26.5 19.5H38.5" stroke="white" stroke-width="2" stroke-linecap="round"/>
</svg>
