<svg width="44" height="44" viewBox="0 0 44 44" fill="none" xmlns="http://www.w3.org/2000/svg">
<path d="M12 0H32C35.1826 0 38.2348 1.26428 40.4853 3.51472C42.7357 5.76516 44 8.8174 44 12V32C44 35.1826 42.7357 38.2348 40.4853 40.4853C38.2348 42.7357 35.1826 44 32 44H12C8.8174 44 5.76516 42.7357 3.51472 40.4853C1.26428 38.2348 0 35.1826 0 32L0 12C0 8.8174 1.26428 5.76516 3.51472 3.51472C5.76516 1.26428 8.8174 0 12 0V0Z" fill="#F2C129"/>
<path d="M26.942 28.622C28.1556 27.4263 29.0229 25.9244 29.4518 24.2755C29.8807 22.6267 29.8552 20.8925 29.3779 19.257C29.3044 18.994 29.1911 18.7438 29.0419 18.515L27.142 15.627C26.8506 15.176 26.6967 14.65 26.699 14.113V13.339C26.6943 13.2543 26.7232 13.1711 26.7793 13.1075C26.8354 13.0439 26.9143 13.0049 26.999 12.999H28.1539C28.2541 13.0045 28.3486 13.0474 28.4186 13.1193C28.4887 13.1911 28.5291 13.2867 28.532 13.387L28.6639 15.045C28.6992 15.5126 28.8539 15.9632 29.113 16.354C30.2912 18.0712 30.9165 20.1075 30.9051 22.19C30.8937 24.2726 30.246 26.3019 29.049 28.006L28.3409 30.562C28.3311 30.6014 28.3094 30.6369 28.2789 30.6637C28.2483 30.6905 28.2104 30.7073 28.17 30.712L26.4899 30.812V29.757H25.1899V30.807H23.89V29.757H22.59V30.807H21.29V29.757H19.9899V30.807H18.6899V29.757H17.39V30.807L15.71 30.707C15.6696 30.7023 15.6316 30.6855 15.6011 30.6587C15.5705 30.6319 15.5488 30.5964 15.5389 30.557L14.8309 28.001C13.6339 26.2969 12.9863 24.2676 12.9749 22.185C12.9634 20.1025 13.5887 18.0662 14.767 16.349C15.0261 15.9582 15.1806 15.5075 15.2159 15.04L15.348 13.382C15.3508 13.2817 15.3913 13.1862 15.4613 13.1143C15.5313 13.0424 15.6258 12.9995 15.726 12.994H16.881C16.9656 12.9999 17.0445 13.0389 17.1006 13.1025C17.1568 13.1661 17.1856 13.2493 17.181 13.334V14.108C17.1833 14.645 17.0294 15.171 16.738 15.622L14.838 18.51C14.6888 18.7388 14.5755 18.989 14.502 19.252C14.0247 20.8875 13.9992 22.6217 14.4281 24.2705C14.857 25.9194 15.7243 27.4213 16.938 28.617L26.942 28.622Z" fill="white"/>
<path d="M22 27C22.5523 27 23 26.5523 23 26C23 25.4477 22.5523 25 22 25C21.4477 25 21 25.4477 21 26C21 26.5523 21.4477 27 22 27Z" fill="white"/>
<path d="M22 26.5C22.2761 26.5 22.5 26.2761 22.5 26C22.5 25.7239 22.2761 25.5 22 25.5C21.7239 25.5 21.5 25.7239 21.5 26C21.5 26.2761 21.7239 26.5 22 26.5Z" stroke="white"/>
<path d="M22 17V22.91" stroke="white" stroke-width="2" stroke-linecap="round"/>
</svg>
