<svg width="44" height="44" viewBox="0 0 44 44" fill="none" xmlns="http://www.w3.org/2000/svg">
<path d="M32 0H12C5.37258 0 0 5.37258 0 12V32C0 38.6274 5.37258 44 12 44H32C38.6274 44 44 38.6274 44 32V12C44 5.37258 38.6274 0 32 0Z" fill="#F2C129"/>
<path d="M22.042 34.864C29.2449 34.864 35.084 29.0249 35.084 21.822C35.084 14.6191 29.2449 8.78 22.042 8.78C14.8391 8.78 9 14.6191 9 21.822C9 29.0249 14.8391 34.864 22.042 34.864Z" fill="white"/>
<path d="M16.825 17.91V27.039" stroke="#F2C129" stroke-linecap="round"/>
<path d="M22.042 17.91V27.039" stroke="#F2C129" stroke-linecap="round"/>
<path d="M27.258 21.822H16.825" stroke="#F2C129" stroke-linecap="round"/>
<path d="M27.259 17.91V27.039" stroke="#F2C129" stroke-linecap="round"/>
<path d="M15.6978 30.039H17.2532V29.6619H16.337V29.647L16.6556 29.3348C17.1041 28.9257 17.2245 28.7212 17.2245 28.473C17.2245 28.0948 16.9155 27.8274 16.4478 27.8274C15.9897 27.8274 15.6755 28.1011 15.6765 28.5294H16.1144C16.1133 28.3206 16.2454 28.1928 16.4446 28.1928C16.6364 28.1928 16.7792 28.3121 16.7792 28.5038C16.7792 28.6775 16.6726 28.7968 16.4745 28.9875L15.6978 29.7066V30.039Z" fill="#F2C129"/>
<path d="M21.7213 16.7228C22.2114 16.7228 22.5619 16.4533 22.5608 16.0804C22.5619 15.8088 22.3893 15.6149 22.0686 15.5744V15.5573C22.3126 15.5137 22.4809 15.3411 22.4798 15.096C22.4809 14.7519 22.1794 14.4813 21.7277 14.4813C21.2803 14.4813 20.9436 14.7434 20.9372 15.1205H21.3793C21.3847 14.9544 21.537 14.8468 21.7256 14.8468C21.912 14.8468 22.0367 14.9597 22.0356 15.1237C22.0367 15.2953 21.8907 15.4114 21.6808 15.4114H21.4774V15.7502H21.6808C21.928 15.7502 22.0825 15.8737 22.0814 16.0495C22.0825 16.2232 21.9333 16.3425 21.7224 16.3425C21.5189 16.3425 21.3666 16.236 21.358 16.0762H20.8935C20.901 16.4576 21.2419 16.7228 21.7213 16.7228Z" fill="#F2C129"/>
<path d="M16.9511 14.5112H16.5175L15.9774 14.8531V15.2622L16.477 14.949H16.4898V16.693H16.9511V14.5112Z" fill="#F2C129"/>
<path d="M20.8818 29.6555H21.9291V30.039H22.3701V29.6555H22.6407V29.2858H22.3701V27.8572H21.7927L20.8818 29.2922V29.6555ZM21.9376 29.2858H21.3463V29.2688L21.9205 28.36H21.9376V29.2858Z" fill="#F2C129"/>
<path d="M26.9277 15.7228C27.4135 15.7228 27.7438 15.4064 27.7427 14.9654C27.7438 14.5478 27.4519 14.2473 27.0588 14.2473C26.867 14.2473 26.7019 14.3272 26.6252 14.4348H26.6124L26.6689 13.8883H27.6223V13.5112H26.2885L26.1852 14.6617L26.5953 14.7353C26.6625 14.6447 26.7924 14.5882 26.9213 14.5882C27.1408 14.5893 27.2985 14.748 27.2985 14.9771C27.2985 15.204 27.144 15.3606 26.9277 15.3606C26.7445 15.3606 26.5964 15.2455 26.5858 15.0762H26.1383C26.1468 15.4533 26.476 15.7228 26.9277 15.7228Z" fill="#F2C129"/>
<path d="M26.1436 30.039H26.6049V29.2656H26.9416L27.3549 30.039H27.8642L27.4007 29.191C27.649 29.0845 27.7864 28.8682 27.7864 28.5699C27.7864 28.1363 27.4998 27.8572 27.0044 27.8572H26.1436V30.039ZM26.6049 28.8948V28.2343H26.916C27.1823 28.2343 27.3113 28.3526 27.3113 28.5699C27.3113 28.7862 27.1823 28.8948 26.9181 28.8948H26.6049Z" fill="#F2C129"/>
<path d="M30.616 5C30.616 5 25.458 12.467 25.458 15.316C25.458 15.9934 25.5914 16.6641 25.8506 17.2899C26.1099 17.9157 26.4898 18.4843 26.9688 18.9633C27.4477 19.4422 28.0163 19.8222 28.6421 20.0814C29.2679 20.3406 29.9386 20.474 30.616 20.474C31.2934 20.474 31.9641 20.3406 32.5899 20.0814C33.2157 19.8222 33.7843 19.4422 34.2633 18.9633C34.7422 18.4843 35.1222 17.9157 35.3814 17.2899C35.6406 16.6641 35.774 15.9934 35.774 15.316C35.774 12.467 30.616 5 30.616 5Z" fill="white" stroke="#F2C129"/>
</svg>
