<svg width="60" height="60" viewBox="0 0 60 60" fill="none" xmlns="http://www.w3.org/2000/svg">
<path d="M48 0H12C5.37258 0 0 5.37258 0 12V48C0 54.6274 5.37258 60 12 60H48C54.6274 60 60 54.6274 60 48V12C60 5.37258 54.6274 0 48 0Z" fill="#F64E60"/>
<path d="M17.17 34.121C17.17 37.483 19.405 40.221 22.15 40.221C24.895 40.221 27.13 37.484 27.13 34.121H17.17Z" fill="white"/>
<path d="M44.227 27.106L32.894 15.772C32.6497 15.5266 32.3592 15.332 32.0393 15.1995C31.7193 15.067 31.3763 14.9992 31.03 15H17.637C16.9379 15.0008 16.2676 15.2789 15.7732 15.7732C15.2789 16.2676 15.0008 16.9379 15 17.637V42.363C15.0008 43.0621 15.2789 43.7324 15.7732 44.2268C16.2676 44.7211 16.9379 44.9992 17.637 45H31.758C31.9212 45 32.0812 44.9545 32.22 44.8686C32.3588 44.7828 32.471 44.66 32.544 44.514C33.5338 42.5399 35.0551 40.8814 36.9365 39.7251C38.8179 38.5687 40.9847 37.9606 43.193 37.969H44.121C44.2365 37.9691 44.3508 37.9465 44.4575 37.9024C44.5642 37.8582 44.6612 37.7935 44.7428 37.7118C44.8245 37.6302 44.8892 37.5332 44.9334 37.4265C44.9775 37.3198 45.0001 37.2055 45 37.09V28.97C45.0008 28.6236 44.9328 28.2805 44.8002 27.9606C44.6675 27.6406 44.4727 27.3502 44.227 27.106V27.106ZM25.547 36.211C25.5314 37.1331 25.1542 38.0122 24.4966 38.6588C23.839 39.3054 22.9537 39.6677 22.0315 39.6677C21.1093 39.6677 20.224 39.3054 19.5664 38.6588C18.9088 38.0122 18.5316 37.1331 18.516 36.211V35.332C18.5159 35.2165 18.5385 35.1022 18.5826 34.9955C18.6268 34.8888 18.6915 34.7918 18.7732 34.7102C18.8548 34.6285 18.9518 34.5638 19.0585 34.5196C19.1652 34.4755 19.2795 34.4529 19.395 34.453H24.668C24.7835 34.4529 24.8978 34.4755 25.0045 34.5196C25.1112 34.5638 25.2082 34.6285 25.2898 34.7102C25.3715 34.7918 25.4362 34.8888 25.4804 34.9955C25.5245 35.1022 25.5471 35.2165 25.547 35.332V36.211ZM40.606 30.879H19.395C19.2795 30.8791 19.1652 30.8565 19.0585 30.8124C18.9518 30.7682 18.8548 30.7035 18.7732 30.6218C18.6915 30.5402 18.6268 30.4432 18.5826 30.3365C18.5385 30.2298 18.5159 30.1155 18.516 30V19.395C18.5159 19.2795 18.5385 19.1652 18.5826 19.0585C18.6268 18.9518 18.6915 18.8548 18.7732 18.7732C18.8548 18.6915 18.9518 18.6268 19.0585 18.5826C19.1652 18.5385 19.2795 18.5159 19.395 18.516H30.3C30.4154 18.5161 30.5296 18.5389 30.6362 18.5832C30.7427 18.6275 30.8395 18.6923 30.921 18.774L41.221 29.074C41.7 29.548 41.58 30.879 40.605 30.879H40.606Z" fill="white"/>
<path d="M29.976 20.2H19.99V29.343H39.119L29.976 20.2Z" fill="white"/>
</svg>
