<svg xmlns="http://www.w3.org/2000/svg" width="157" height="145" viewBox="0 0 157 145">
  <g id="Group_509" data-name="Group 509" transform="translate(-261.452 -153.594)">
    <g id="ios-qr-scanner" transform="translate(261.452 153.594)">
      <path id="Path_1998" data-name="Path 1998" d="M51.138,4.5H28.85A25.478,25.478,0,0,0,3.375,29.975V52.263a5.305,5.305,0,1,0,10.61,0V29.592a14.525,14.525,0,0,1,4.437-9.931,14.478,14.478,0,0,1,10.044-4.55H51.138a5.305,5.305,0,0,0,0-10.61Z" transform="translate(-3.375 -4.495)" fill="#7075f6"/>
      <path id="Path_1999" data-name="Path 1999" d="M50.753,4.5H28.087a5.305,5.305,0,0,0,0,10.61H50.758A14.455,14.455,0,0,1,60.8,19.665,14.549,14.549,0,0,1,65.24,29.6V52.267a5.305,5.305,0,1,0,10.61,0V29.6a25.128,25.128,0,0,0-25.1-25.1Z" transform="translate(81.15 -4.499)" fill="#7075f6"/>
      <path id="Path_2000" data-name="Path 2000" d="M51.138,64.109H28.467a14.455,14.455,0,0,1-10.044-4.55,14.549,14.549,0,0,1-4.437-9.931V26.962a5.305,5.305,0,0,0-10.61,0V49.633a25.128,25.128,0,0,0,25.1,25.1H51.138a5.305,5.305,0,0,0,0-10.61Z" transform="translate(-3.375 70.269)" fill="#7075f6"/>
      <path id="Path_2001" data-name="Path 2001" d="M70.545,21.656a5.322,5.322,0,0,0-5.305,5.305V49.632A14.525,14.525,0,0,1,60.8,59.563a14.478,14.478,0,0,1-10.044,4.55H28.087a5.305,5.305,0,0,0,0,10.61H50.376A25.5,25.5,0,0,0,75.85,49.249V26.967a5.322,5.322,0,0,0-5.305-5.305Z" transform="translate(81.15 70.265)" fill="#7075f6"/>
    </g>
    <path id="barcode" d="M0,3V79.219H7.64V3ZM14.183,3V79.219H16.02V3Zm4.409,0V79.219H24.4V3H18.593ZM30.3,3V79.219h2.479V3Zm9.024,0V79.219h1.831V3H39.326Zm2.619,0V79.219h7.592V3ZM54.091,3V79.219h3.823V3ZM65.447,3V79.219H66.3V3H65.45Zm6.678,0V79.219h2.553V3h-2.55Zm9.1,0V79.219h1.836V3H81.22Zm2.624,0V79.219h7.594V3H83.847Z" transform="translate(294.331 184.611)" fill="#7075f6" opacity="0.302"/>
  </g>
</svg>
