<svg xmlns="http://www.w3.org/2000/svg" width="62" height="62" viewBox="0 0 62 62">
  <g id="Group_544" data-name="Group 544" transform="translate(-259 -467)">
    <path id="Path_2063" data-name="Path 2063" d="M12,0H50A12,12,0,0,1,62,12V50A12,12,0,0,1,50,62H12A12,12,0,0,1,0,50V12A12,12,0,0,1,12,0Z" transform="translate(259 467)" fill="#f64e60"/>
    <path id="Path_2062" data-name="Path 2062" d="M602.731,378.275h-1.576V375.91a.789.789,0,0,0-.789-.789h-4.728a.788.788,0,0,0-.788.789v2.365h-6.3V375.91a.788.788,0,0,0-.788-.789h-4.729a.788.788,0,0,0-.788.789v2.365h-1.576a1.576,1.576,0,0,0-1.576,1.577v12.617a1.576,1.576,0,0,0,1.576,1.577h22.067a1.577,1.577,0,0,0,1.576-1.577V379.852A1.577,1.577,0,0,0,602.731,378.275Zm-14.186,6.7a.393.393,0,0,1-.394.394h-5.517a.394.394,0,0,1-.394-.394v-.789a.393.393,0,0,1,.394-.394h5.517a.393.393,0,0,1,.394.394Zm12.61,0a.394.394,0,0,1-.4.394h-1.97v1.971a.394.394,0,0,1-.394.4h-.788a.394.394,0,0,1-.394-.4v-1.971h-1.97a.394.394,0,0,1-.394-.394v-.789a.394.394,0,0,1,.394-.394h1.97v-1.971a.394.394,0,0,1,.394-.4h.788a.394.394,0,0,1,.394.4V383.8h1.97a.394.394,0,0,1,.4.394Z" transform="translate(-302.088 113.879)" fill="#fff"/>
  </g>
</svg>
