<svg xmlns="http://www.w3.org/2000/svg" width="16.197" height="17" viewBox="0 0 16.197 17">
  <g id="Group_550" data-name="Group 550" transform="translate(-792.902 -335.5)">
    <path id="Path_1091" data-name="Path 1091" d="M1390.01,917.351a1.5,1.5,0,0,1,.019,2.061l-7.261,7.669a1.43,1.43,0,0,1-1.017.452l-3.051.065.067-3.112a1.492,1.492,0,0,1,.428-1.013l7.423-7.488a1.43,1.43,0,0,1,2.043,0Z" transform="translate(-581.331 -579.5)" fill="#7075f6"/>
    <path id="Path_1092" data-name="Path 1092" d="M1382.811,915a.852.852,0,0,1,0,1.7h-5.579a1.659,1.659,0,0,0-1.616,1.7v10.2a1.659,1.659,0,0,0,1.616,1.7h9.694a1.659,1.659,0,0,0,1.616-1.7v-4.25a.809.809,0,1,1,1.616,0v4.25a3.317,3.317,0,0,1-3.231,3.4h-9.694a3.317,3.317,0,0,1-3.231-3.4V918.4a3.317,3.317,0,0,1,3.231-3.4Z" transform="translate(-581.098 -579.5)" fill="#7075f6" opacity="0.3"/>
  </g>
</svg>
