<svg xmlns="http://www.w3.org/2000/svg" width="111" height="33" viewBox="0 0 111 33">
  <g id="Group_554" data-name="Group 554" transform="translate(-1589 -186)">
    <g id="Path_1555" data-name="Path 1555" transform="translate(1589 186)" fill="#fff">
      <path d="M 99 32.5 L 12 32.5 C 8.928242683410645 32.5 6.040342807769775 31.30378532409668 3.868271350860596 29.13172912597656 C 1.696214318275452 26.95965766906738 0.5 24.07175636291504 0.5 21 L 0.5 12 C 0.5 8.928242683410645 1.696214318275452 6.040342807769775 3.868271350860596 3.868271350860596 C 6.040342807769775 1.696214318275452 8.928242683410645 0.5 12 0.5 L 99 0.5 C 102.0717544555664 0.5 104.9596557617188 1.696214318275452 107.1317291259766 3.868271350860596 C 109.3037872314453 6.040342807769775 110.5 8.928242683410645 110.5 12 L 110.5 21 C 110.5 24.07175636291504 109.3037872314453 26.95965766906738 107.1317291259766 29.13172912597656 C 104.9596557617188 31.30378532409668 102.0717544555664 32.5 99 32.5 Z" stroke="none"/>
      <path d="M 12 1 C 9.061798095703125 1 6.299446105957031 2.144199371337891 4.221832275390625 4.221830368041992 C 2.144203186035156 6.299446105957031 1 9.061800003051758 1 12 L 1 21 C 1 23.93819999694824 2.144203186035156 26.70055389404297 4.221832275390625 28.77816963195801 C 6.299446105957031 30.85580062866211 9.061798095703125 32 12 32 L 99 32 C 101.9382019042969 32 104.700553894043 30.85580062866211 106.7781677246094 28.77816963195801 C 108.8557968139648 26.70055389404297 110 23.93819999694824 110 21 L 110 12 C 110 9.061800003051758 108.8557968139648 6.299446105957031 106.7781677246094 4.221830368041992 C 104.700553894043 2.144199371337891 101.9382019042969 1 99 1 L 12 1 M 12 0 L 99 0 C 105.6274185180664 0 111 5.372585296630859 111 12 L 111 21 C 111 27.62741470336914 105.6274185180664 33 99 33 L 12 33 C 5.372581481933594 33 0 27.62741470336914 0 21 L 0 12 C 0 5.372585296630859 5.372581481933594 0 12 0 Z" stroke="none" fill="#0bbea5"/>
    </g>
    <text id="Get_Direction" data-name="Get Direction" transform="translate(1605 207)" fill="#0bbea5" font-size="12" font-family="Poppins-SemiBold, Poppins" font-weight="600"><tspan x="0" y="0">Get Direction</tspan></text>
  </g>
</svg>
