<svg xmlns="http://www.w3.org/2000/svg" width="127" height="44" viewBox="0 0 127 44">
  <g id="Group_442" data-name="Group 442" transform="translate(-231 -609)" opacity="0.996">
    <rect id="Rectangle_819" data-name="Rectangle 819" width="127" height="44" rx="8" transform="translate(231 609)" fill="#ffa80f"/>
    <g id="Group_443" data-name="Group 443" transform="translate(3.626 -0.5)">
      <text id="Import" transform="translate(279 637)" fill="#fff" font-size="16" font-family="Poppins-Regular, Poppins"><tspan x="-26.632" y="0">Import</tspan></text>
      <path id="Path_2041" data-name="Path 2041" d="M1161.868,792.844V787h-7.917a.994.994,0,0,0-.95,1.031v19.938a.994.994,0,0,0,.95,1.031h13.306a.994.994,0,0,0,.95-1.031V793.875h-5.389A1,1,0,0,1,1161.868,792.844Zm-3.8,6.187a.331.331,0,0,1-.314.344h-.314a.664.664,0,0,0-.637.687v1.376a.664.664,0,0,0,.637.687h.314a.331.331,0,0,1,.314.344v.687a.331.331,0,0,1-.314.344h-.314a1.983,1.983,0,0,1-1.9-2.062v-1.376a1.983,1.983,0,0,1,1.9-2.062h.314a.331.331,0,0,1,.314.344Zm1.758,4.469h-.485a.333.333,0,0,1-.323-.344v-.687a.333.333,0,0,1,.323-.344h.485c.238,0,.409-.15.409-.284a.225.225,0,0,0-.085-.165l-.865-.807a1.66,1.66,0,0,1,1.15-2.869h.485a.333.333,0,0,1,.323.344v.688a.332.332,0,0,1-.323.343h-.485c-.238,0-.409.151-.409.285a.226.226,0,0,0,.086.165l.865.806a1.66,1.66,0,0,1-1.15,2.869Zm3.317-5.156v.893a1.3,1.3,0,1,0,1.264,0v-.893a.331.331,0,0,1,.314-.344h.637a.331.331,0,0,1,.314.344v.893a6.17,6.17,0,0,1-1.435,4.043.593.593,0,0,1-.922,0,6.178,6.178,0,0,1-1.445-4.043v-.893a.333.333,0,0,1,.323-.344h.627A.333.333,0,0,1,1163.141,798.344Zm4.79-6.832-3.878-4.211a.913.913,0,0,0-.675-.3h-.238v5.5h5.066v-.262A1.059,1.059,0,0,0,1167.931,791.512Z" transform="translate(-838.46 -166.5)" fill="#fff"/>
    </g>
  </g>
</svg>
