<svg xmlns="http://www.w3.org/2000/svg" width="41.025" height="42.244" viewBox="0 0 41.025 42.244">
  <g id="Group_524" data-name="Group 524" transform="translate(-990.339 -310.557)">
    <path id="Path_1486" data-name="Path 1486" d="M220.025,104.122c0,11.146-8.77,20.122-19.512,20.122S181,115.268,181,104.122,189.77,84,200.512,84,220.025,92.975,220.025,104.122Z" transform="translate(810.339 227.557)" fill="#0ebda6" stroke="#fff" stroke-width="2"/>
    <path id="Path_1487" data-name="Path 1487" d="M197.746,92.42a7.253,7.253,0,0,0-5.806,11.6l5.359,7.216c.013.018.034.024.049.04a.54.54,0,0,0,.845-.04c1.543-2.059,4.371-5.9,5.459-7.354a0,0,0,0,1,0,0l.006-.01a7.252,7.252,0,0,0-5.912-11.451Zm0,11.164a3.912,3.912,0,1,1,3.912-3.912A3.922,3.922,0,0,1,197.746,103.584Z" transform="translate(812.423 229.405)" fill="#fff"/>
  </g>
</svg>
