<svg xmlns="http://www.w3.org/2000/svg" xmlns:xlink="http://www.w3.org/1999/xlink" width="62" height="62" viewBox="0 0 62 62">
  <defs>
    <clipPath id="clip-path">
      <rect id="Rectangle_304" data-name="Rectangle 304" width="25.219" height="25.097" transform="translate(579.088 312.035)" fill="#fff"/>
    </clipPath>
  </defs>
  <g id="Group_542" data-name="Group 542" transform="translate(-259 -282)">
    <rect id="Rectangle_390" data-name="Rectangle 390" width="62" height="62" rx="12" transform="translate(259 282)" fill="#f64e60"/>
    <g id="Group_136" data-name="Group 136" transform="translate(-302.088 -12.035)" clip-path="url(#clip-path)">
      <path id="Path_811" data-name="Path 811" d="M595.638,333.995H579.876a.788.788,0,0,0-.788.784v1.569a.788.788,0,0,0,.788.784h15.762a.789.789,0,0,0,.788-.784v-1.569A.789.789,0,0,0,595.638,333.995Zm7.743-16.7-3.99-3.971a.8.8,0,0,0-1.113,0l-.557.554a.785.785,0,0,0,0,1.108l1.857,1.848v3.044a2.746,2.746,0,0,0,2.365,2.706v7.882a1.183,1.183,0,0,1-2.365,0V328.9a4.323,4.323,0,0,0-4.334-4.313h-.394v-9.412a3.148,3.148,0,0,0-3.153-3.137h-7.881a3.148,3.148,0,0,0-3.152,3.137v17.254H594.85v-5.489h.394a1.965,1.965,0,0,1,1.97,1.96v1.363a3.681,3.681,0,0,0,3.177,3.72,3.55,3.55,0,0,0,3.916-3.514V319.515A3.134,3.134,0,0,0,603.381,317.3ZM591.7,321.447h-7.881v-6.275H591.7Z" fill="#fff"/>
    </g>
  </g>
</svg>
