<svg xmlns="http://www.w3.org/2000/svg" width="24" height="24" viewBox="0 0 24 24">
  <g id="Group_534" data-name="Group 534" transform="translate(-26 -260)">
    <g id="Group_449" data-name="Group 449" transform="translate(26 260)">
      <rect id="Rectangle_380" data-name="Rectangle 380" width="24" height="24" fill="none"/>
      <g id="link-line" transform="translate(-6.333 -5.915)">
        <path id="Path_2050" data-name="Path 2050" d="M17.6,24.32l-2.46,2.44a4,4,0,0,1-5.62,0,3.92,3.92,0,0,1,0-5.55l4.69-4.65a4,4,0,0,1,5.62,0,3.86,3.86,0,0,1,1,1.71A2,2,0,0,0,21.1,18l1.29-1.28a5.89,5.89,0,0,0-1.15-1.62,6,6,0,0,0-8.44,0L8.1,19.79a5.91,5.91,0,0,0,0,8.39,6,6,0,0,0,8.44,0l3.65-3.62h-.5a8,8,0,0,1-2.09-.24Z" fill="#d1defe"/>
        <path id="Path_2051" data-name="Path 2051" d="M28.61,7.82a6,6,0,0,0-8.44,0l-3.65,3.62h.49a8,8,0,0,1,2.1.28l2.46-2.44a4,4,0,0,1,5.62,0,3.92,3.92,0,0,1,0,5.55L22.5,19.48a4,4,0,0,1-5.62,0,3.86,3.86,0,0,1-1-1.71,2,2,0,0,0-.28.23l-1.29,1.28a5.89,5.89,0,0,0,1.15,1.62,6,6,0,0,0,8.44,0l4.69-4.65a5.92,5.92,0,0,0,0-8.39Z" fill="#d1defe"/>
      </g>
    </g>
  </g>
</svg>
