<svg xmlns="http://www.w3.org/2000/svg" width="20" height="20" viewBox="0 0 20 20">
  <g id="Group_291" data-name="Group 291" transform="translate(-1269 -833)">
    <rect id="Rectangle_587" data-name="Rectangle 587" width="20" height="20" rx="9" transform="translate(1269 833)" fill="#d4d5fc"/>
    <path id="Path_1546" data-name="Path 1546" d="M1342.345,920.284a3.6,3.6,0,0,0-2.642-1.187,3.992,3.992,0,0,0-3.745,3.324.285.285,0,0,1-.266.24h-1.321a.31.31,0,0,1-.276-.371A5.972,5.972,0,0,1,1339.7,917a5.315,5.315,0,0,1,3.935,1.8l.827-.936a.546.546,0,0,1,.941.445v3.514a.6.6,0,0,1-.551.629h-3.079a.642.642,0,0,1-.39-1.074Zm-7.794,4.264h3.079a.642.642,0,0,1,.39,1.074l-.96,1.094a3.6,3.6,0,0,0,2.642,1.187,3.991,3.991,0,0,0,3.745-3.324.285.285,0,0,1,.266-.24h1.321a.31.31,0,0,1,.276.371A5.972,5.972,0,0,1,1339.7,930a5.315,5.315,0,0,1-3.935-1.8l-.827.936a.546.546,0,0,1-.941-.445v-3.514A.6.6,0,0,1,1334.551,924.548Z" transform="translate(-60.703 -80.5)" fill="#7075f6"/>
  </g>
</svg>
