<svg xmlns="http://www.w3.org/2000/svg" width="63.679" height="26" viewBox="0 0 63.679 26">
  <g id="Group_552" data-name="Group 552" transform="translate(-792.902 -382.774)">
    <rect id="Rectangle_439" data-name="Rectangle 439" width="63.679" height="26" rx="6" transform="translate(792.902 382.774)" fill="rgba(27,197,189,0.2)"/>
    <path id="Path_1090" data-name="Path 1090" d="M1256.495,929l-1.825-3.336h-1V929h-1.3v-8.34h2.737a3.227,3.227,0,0,1,1.54.336,2.238,2.238,0,0,1,.95.9,2.554,2.554,0,0,1,.323,1.26,2.591,2.591,0,0,1-.456,1.488,2.291,2.291,0,0,1-1.388.9l1.967,3.456Zm-2.823-4.428h1.435a1.455,1.455,0,0,0,1.1-.384,1.423,1.423,0,0,0,.371-1.032,1.373,1.373,0,0,0-.361-1.008,1.507,1.507,0,0,0-1.112-.372h-1.435Zm11.6-2.184V929h-1.293v-.78a2.158,2.158,0,0,1-.817.648,2.435,2.435,0,0,1-1.046.228,2.706,2.706,0,0,1-1.331-.324,2.334,2.334,0,0,1-.931-.96,3.318,3.318,0,0,1-.323-1.536v-3.888h1.283v3.684a1.99,1.99,0,0,0,.428,1.368,1.647,1.647,0,0,0,2.3,0,1.992,1.992,0,0,0,.437-1.368v-3.684Zm4.895-.108a2.67,2.67,0,0,1,1.321.324,2.258,2.258,0,0,1,.922.96,3.316,3.316,0,0,1,.333,1.536V929h-1.293v-3.7a1.988,1.988,0,0,0-.418-1.356,1.459,1.459,0,0,0-1.15-.48,1.5,1.5,0,0,0-1.169.48,1.988,1.988,0,0,0-.418,1.356V929h-1.3v-6.612h1.3v.756a2.169,2.169,0,0,1,.808-.636A2.52,2.52,0,0,1,1270.162,922.28Zm7.4,0a2.67,2.67,0,0,1,1.321.324,2.2,2.2,0,0,1,.922.96,3.318,3.318,0,0,1,.333,1.536V929h-1.293v-3.7a1.941,1.941,0,0,0-.418-1.356,1.459,1.459,0,0,0-1.15-.48,1.513,1.513,0,0,0-1.169.48,1.988,1.988,0,0,0-.418,1.356V929h-1.3v-6.612h1.3v.756a2.169,2.169,0,0,1,.808-.636A2.552,2.552,0,0,1,1277.566,922.28Zm4.895-.768a.777.777,0,0,1-.589-.252.938.938,0,0,1,0-1.248.777.777,0,0,1,.589-.252.757.757,0,0,1,.58.252.911.911,0,0,1,0,1.248A.757.757,0,0,1,1282.461,921.512Zm.637.876V929H1281.8v-6.612Zm4.885-.108a2.67,2.67,0,0,1,1.321.324,2.257,2.257,0,0,1,.922.96,3.316,3.316,0,0,1,.333,1.536V929h-1.293v-3.7a1.987,1.987,0,0,0-.418-1.356,1.459,1.459,0,0,0-1.15-.48,1.5,1.5,0,0,0-1.169.48,1.988,1.988,0,0,0-.418,1.356V929h-1.3v-6.612h1.3v.756a2.168,2.168,0,0,1,.808-.636A2.52,2.52,0,0,1,1287.983,922.28Zm6.767,0a2.578,2.578,0,0,1,1.283.312,2.517,2.517,0,0,1,.893.756v-.96h1.312v6.72a3.442,3.442,0,0,1-.371,1.62,2.634,2.634,0,0,1-1.055,1.128,3.162,3.162,0,0,1-1.644.408,3.408,3.408,0,0,1-2.119-.636,2.337,2.337,0,0,1-.96-1.7h1.293a1.411,1.411,0,0,0,.627.828,2.044,2.044,0,0,0,1.159.324,1.655,1.655,0,0,0,1.264-.5,1.993,1.993,0,0,0,.494-1.464V928a2.723,2.723,0,0,1-.9.792,2.567,2.567,0,0,1-1.274.312,2.775,2.775,0,0,1-1.511-.432,3.171,3.171,0,0,1-1.074-1.224,4.037,4.037,0,0,1-.38-1.788,3.884,3.884,0,0,1,.38-1.764,3.007,3.007,0,0,1,1.074-1.188A2.775,2.775,0,0,1,1294.75,922.28Zm2.177,3.408a2.474,2.474,0,0,0-.276-1.188,1.9,1.9,0,0,0-.694-.768,1.781,1.781,0,0,0-.941-.264,1.748,1.748,0,0,0-.931.264,1.893,1.893,0,0,0-.7.756,2.4,2.4,0,0,0-.266,1.176,2.543,2.543,0,0,0,.266,1.2,2.059,2.059,0,0,0,.7.792,1.792,1.792,0,0,0,1.872,0,1.9,1.9,0,0,0,.694-.768A2.546,2.546,0,0,0,1296.926,925.688Z" transform="translate(-450.563 -528.226)" fill="#1bc5bd"/>
  </g>
</svg>
