<svg xmlns="http://www.w3.org/2000/svg" width="63.679" height="26" viewBox="0 0 63.679 26">
  <g id="Group_553" data-name="Group 553" transform="translate(-933.079 -382.774)">
    <rect id="Rectangle_483" data-name="Rectangle 483" width="63.679" height="26" rx="6" transform="translate(933.079 382.774)" fill="rgba(255,168,0,0.2)"/>
    <path id="Path_1266" data-name="Path 1266" d="M1261.911,1133.14a2.589,2.589,0,0,1-.285,1.2,2.216,2.216,0,0,1-.913.93,3.3,3.3,0,0,1-1.606.35h-1.435V1139h-1.3v-8.34h2.737a3.158,3.158,0,0,1,1.54.34,2.151,2.151,0,0,1,.95.88A2.571,2.571,0,0,1,1261.911,1133.14Zm-2.8,1.36a1.541,1.541,0,0,0,1.1-.35,1.333,1.333,0,0,0,.371-1.01c0-.91-.494-1.36-1.473-1.36h-1.435v2.72Zm3.612,1.16a3.876,3.876,0,0,1,.39-1.76,3.025,3.025,0,0,1,1.074-1.19,2.747,2.747,0,0,1,1.5-.43,2.568,2.568,0,0,1,1.293.31,2.515,2.515,0,0,1,.884.76v-.96h1.312V1139h-1.312v-.98a2.615,2.615,0,0,1-.893.78,2.825,2.825,0,0,1-2.785-.12,3.218,3.218,0,0,1-1.074-1.23A4.036,4.036,0,0,1,1262.719,1135.66Zm5.142.03a2.483,2.483,0,0,0-.266-1.19,1.923,1.923,0,0,0-.7-.77,1.8,1.8,0,0,0-1.863,0,1.851,1.851,0,0,0-.713.76,2.512,2.512,0,0,0-.257,1.17,2.641,2.641,0,0,0,.257,1.2,2.034,2.034,0,0,0,.713.8,1.851,1.851,0,0,0,.931.26,1.8,1.8,0,0,0,.931-.26,1.991,1.991,0,0,0,.7-.77A2.58,2.58,0,0,0,1267.861,1135.69Zm4.324-2.34a1.991,1.991,0,0,1,.751-.78,2.176,2.176,0,0,1,1.131-.29v1.42h-.333a1.545,1.545,0,0,0-1.16.4,2.031,2.031,0,0,0-.39,1.42V1139h-1.3v-6.61h1.3Zm5.56,2.35,2.9,3.3h-1.758l-2.329-2.84V1139h-1.293v-8.88h1.293v5.16l2.281-2.89h1.806Zm9.59-.17a4.705,4.705,0,0,1-.047.67h-4.8a1.9,1.9,0,0,0,.561,1.28,1.7,1.7,0,0,0,1.226.48,1.506,1.506,0,0,0,1.483-.93h1.407a2.964,2.964,0,0,1-1.036,1.5,2.9,2.9,0,0,1-1.853.58,3.13,3.13,0,0,1-1.616-.42,3.092,3.092,0,0,1-1.122-1.2,3.9,3.9,0,0,1-.4-1.8,3.945,3.945,0,0,1,.39-1.79,2.878,2.878,0,0,1,1.112-1.2,3.176,3.176,0,0,1,1.635-.42,3.094,3.094,0,0,1,1.587.41,2.744,2.744,0,0,1,1.083,1.15A3.582,3.582,0,0,1,1287.335,1135.53Zm-1.359-.43a1.6,1.6,0,0,0-.513-1.21,1.757,1.757,0,0,0-1.245-.46,1.6,1.6,0,0,0-1.15.46,1.934,1.934,0,0,0-.57,1.21Zm2.2.56a3.876,3.876,0,0,1,.39-1.76,2.956,2.956,0,0,1,1.074-1.19,2.773,2.773,0,0,1,2.718-.14,2.4,2.4,0,0,1,.96.74v-3.19h1.312V1139h-1.312v-1a2.449,2.449,0,0,1-.884.8,2.73,2.73,0,0,1-1.293.31,2.809,2.809,0,0,1-1.5-.43,3.141,3.141,0,0,1-1.074-1.23A4.036,4.036,0,0,1,1288.181,1135.66Zm5.142.03a2.377,2.377,0,0,0-.276-1.19,1.837,1.837,0,0,0-.694-.77,1.8,1.8,0,0,0-.931-.26,1.859,1.859,0,0,0-.941.26,1.893,1.893,0,0,0-.7.76,2.51,2.51,0,0,0-.266,1.17,2.638,2.638,0,0,0,.266,1.2,2.086,2.086,0,0,0,.7.8,1.885,1.885,0,0,0,.941.26,1.8,1.8,0,0,0,.931-.26,1.9,1.9,0,0,0,.694-.77A2.469,2.469,0,0,0,1293.323,1135.69Z" transform="translate(-310.583 -738.222)" fill="#ffa800"/>
  </g>
</svg>
