<svg xmlns="http://www.w3.org/2000/svg" width="62" height="62" viewBox="0 0 62 62">
  <g id="Group_543" data-name="Group 543" transform="translate(-259 -378)">
    <path id="Path_2061" data-name="Path 2061" d="M12,0H50A12,12,0,0,1,62,12V50A12,12,0,0,1,50,62H12A12,12,0,0,1,0,50V12A12,12,0,0,1,12,0Z" transform="translate(259 378)" fill="#f64e60"/>
    <path id="Path_2060" data-name="Path 2060" d="M763.725,336.056a13.3,13.3,0,0,0,3.433-13.2,3.778,3.778,0,0,0-.474-1.045l-2.672-4.07a3.9,3.9,0,0,1-.624-2.133v-1.09a.455.455,0,0,1,.427-.479h1.628a.563.563,0,0,1,.532.546l.186,2.336a3.864,3.864,0,0,0,.633,1.845,14.395,14.395,0,0,1-.09,16.419l-1,3.6a.275.275,0,0,1-.241.211l-2.367.139v-1.48h-1.831v1.48h-1.831v-1.48H757.6v1.48h-1.831v-1.48h-1.832v1.48H752.11v-1.48h-1.831v1.48L747.912,339a.275.275,0,0,1-.241-.211l-1-3.6a14.395,14.395,0,0,1-.09-16.419,3.864,3.864,0,0,0,.633-1.845l.186-2.336a.563.563,0,0,1,.532-.546h1.628a.456.456,0,0,1,.427.479v1.09a3.9,3.9,0,0,1-.624,2.133l-2.672,4.07a3.778,3.778,0,0,0-.474,1.045,13.3,13.3,0,0,0,3.433,13.2Z" transform="translate(-467.079 81.957)" fill="#fff"/>
  </g>
</svg>
