<svg xmlns="http://www.w3.org/2000/svg" width="44" height="44" viewBox="0 0 44 44">
  <g id="Group_547" data-name="Group 547" transform="translate(-451 -396)">
    <path id="Path_2067" data-name="Path 2067" d="M12,0H32A12,12,0,0,1,44,12V32A12,12,0,0,1,32,44H12A12,12,0,0,1,0,32V12A12,12,0,0,1,12,0Z" transform="translate(451 396)" fill="#f2c129"/>
    <path id="Path_2066" data-name="Path 2066" d="M758.021,329.665a9.436,9.436,0,0,0,2.436-9.365,2.682,2.682,0,0,0-.336-.742l-1.9-2.888a2.768,2.768,0,0,1-.443-1.514v-.774a.323.323,0,0,1,.3-.34h1.155a.4.4,0,0,1,.378.388l.132,1.658a2.742,2.742,0,0,0,.449,1.309,10.216,10.216,0,0,1-.064,11.652l-.708,2.556a.2.2,0,0,1-.171.15l-1.68.1V330.8h-1.3v1.05h-1.3V330.8h-1.3v1.05h-1.3V330.8h-1.3v1.05h-1.3V330.8h-1.3v1.05l-1.68-.1a.2.2,0,0,1-.171-.15l-.708-2.556a10.216,10.216,0,0,1-.064-11.652,2.743,2.743,0,0,0,.449-1.309l.132-1.658a.4.4,0,0,1,.378-.388h1.155a.323.323,0,0,1,.3.34v.774a2.768,2.768,0,0,1-.443,1.514l-1.9,2.888a2.679,2.679,0,0,0-.336.742,9.436,9.436,0,0,0,2.436,9.365Z" transform="translate(-280.305 94.731)" fill="#fff"/>
  </g>
</svg>
