<svg xmlns="http://www.w3.org/2000/svg" width="185" height="36" viewBox="0 0 111 24" fill="none"><path fill-rule="evenodd" clip-rule="evenodd" d="M0.0363002 6.11787C-0.144967 5.38206 0.37348 4.65808 1.12708 4.57832C7.05946 3.95048 10.8054 2.97671 10.8054 2.97671C14.8064 0.842375 19.4741 0.189007 22.9416 0.0147751C26.009 -0.115898 29.0319 0.624585 31.6992 2.06199L36.5893 4.80614C47.5591 5.5985 54.6358 7.72596 57.1156 8.58098C57.6591 8.76838 57.8962 9.38096 57.6478 9.89942L57.3551 10.5105C57.1888 10.8576 56.8381 11.0785 56.4532 11.0785H56.0043C55.7545 11.0785 55.5138 10.985 55.3294 10.8164L54.2823 9.85885C53.7489 9.33616 53.0821 8.9877 52.3708 8.81346C42.5896 6.13621 30.9036 7.71023 28.4677 8.08597C28.1604 8.13337 27.8532 8.11528 27.5575 8.01901C26.3302 7.61936 25.2531 7.13416 24.3782 6.67756C23.5358 6.23791 23.8656 5.1546 24.8159 5.1546H32.7662C32.7662 5.1546 31.2547 2.93315 26.0979 2.01844C20.4966 1.14728 15.7844 3.76075 15.7844 3.76075L16.5265 4.72533C17.0646 5.42472 16.4994 6.42186 15.6247 6.30528C13.9577 6.08313 12.5779 5.85913 11.6501 5.6773C10.8499 5.50307 10.0052 5.6773 9.29396 6.15643L8.18258 6.89692C6.71557 7.85519 4.89292 8.20365 3.15918 7.85519L1.44949 7.48874C0.754907 7.33987 0.206217 6.80761 0.0363002 6.11787ZM83.7239 23.6676H86.6708V12.7664H83.7239V23.6676ZM83.9012 7.91405C83.5466 8.26856 83.3694 8.69693 83.3694 9.19915C83.3694 9.68661 83.5466 10.1076 83.9012 10.4621C84.2557 10.8166 84.684 10.9939 85.1863 10.9939C85.6885 10.9939 86.1169 10.8166 86.4714 10.4621C86.8259 10.1076 87.0031 9.68661 87.0031 9.19915C87.0031 8.68216 86.8259 8.24641 86.4714 7.89189C86.1169 7.53738 85.6885 7.36013 85.1863 7.36013C84.684 7.36013 84.2557 7.54477 83.9012 7.91405ZM62.3206 23.6676H59.3737V7.62601H62.3206V23.6676ZM18.2982 9.50935V12.7664H20.4917V15.3809H18.2982V19.9453C18.2982 20.4032 18.4016 20.7282 18.6084 20.9202C18.8152 21.1122 19.1401 21.2082 19.5833 21.2082C19.9821 21.2082 20.2849 21.1787 20.4917 21.1196V23.5569C20.0633 23.7341 19.5094 23.8227 18.8299 23.8227C17.7664 23.8227 16.9244 23.5273 16.304 22.9365C15.6836 22.3308 15.3734 21.5036 15.3734 20.4549V15.3809H13.4015V12.7664H13.9554C14.5019 12.7664 14.9155 12.6113 15.1962 12.3011C15.4916 11.9762 15.6393 11.5552 15.6393 11.0382V9.50935H18.2982ZM5.70024 20.4992C6.24678 21.0457 6.9041 21.319 7.67221 21.319C8.44032 21.319 9.09025 21.0457 9.62202 20.4992C10.1686 19.9527 10.4418 19.1919 10.4418 18.217C10.4418 17.2421 10.1686 16.4814 9.62202 15.9349C9.09025 15.3883 8.44032 15.1151 7.67221 15.1151C6.9041 15.1151 6.24678 15.3883 5.70024 15.9349C5.16847 16.4814 4.90259 17.2421 4.90259 18.217C4.90259 19.1919 5.16847 19.9527 5.70024 20.4992ZM3.57317 14.0737C4.66625 12.9806 6.03259 12.4341 7.67221 12.4341C9.31182 12.4341 10.6708 12.9806 11.7491 14.0737C12.8422 15.1668 13.3887 16.5479 13.3887 18.217C13.3887 19.8862 12.8422 21.2673 11.7491 22.3604C10.6708 23.4535 9.31182 24 7.67221 24C6.03259 24 4.66625 23.4535 3.57317 22.3604C2.49487 21.2673 1.95572 19.8862 1.95572 18.217C1.95572 16.5479 2.49487 15.1668 3.57317 14.0737ZM26.7763 21.319C26.0082 21.319 25.3508 21.0457 24.8043 20.4992C24.2725 19.9527 24.0067 19.1919 24.0067 18.217C24.0067 17.2421 24.2725 16.4814 24.8043 15.9349C25.3508 15.3883 26.0082 15.1151 26.7763 15.1151C27.5444 15.1151 28.1943 15.3883 28.7261 15.9349C29.2726 16.4814 29.5459 17.2421 29.5459 18.217C29.5459 19.1919 29.2726 19.9527 28.7261 20.4992C28.1943 21.0457 27.5444 21.319 26.7763 21.319ZM26.7763 12.4341C25.1367 12.4341 23.7703 12.9806 22.6772 14.0737C21.5989 15.1668 21.0598 16.5479 21.0598 18.217C21.0598 19.8862 21.5989 21.2673 22.6772 22.3604C23.7703 23.4535 25.1367 24 26.7763 24C28.4159 24 29.7749 23.4535 30.8532 22.3604C31.9462 21.2673 32.4928 19.8862 32.4928 18.217C32.4928 16.5479 31.9462 15.1668 30.8532 14.0737C29.7749 12.9806 28.4159 12.4341 26.7763 12.4341ZM37.3484 20.6321L39.8743 20.0782C39.9038 20.5509 40.0884 20.9497 40.4282 21.2747C40.7827 21.5849 41.2628 21.74 41.8684 21.74C42.3263 21.74 42.6808 21.6366 42.9319 21.4298C43.183 21.223 43.3086 20.9645 43.3086 20.6543C43.3086 20.1078 42.9171 19.7532 42.1343 19.5908L40.6941 19.2584C39.6748 19.0368 38.9067 18.638 38.3897 18.0619C37.8875 17.4859 37.6364 16.799 37.6364 16.0013C37.6364 15.0117 38.0205 14.1697 38.7886 13.4754C39.5714 12.7812 40.5464 12.4341 41.7133 12.4341C42.4519 12.4341 43.1018 12.5449 43.6631 12.7664C44.2244 12.9732 44.6602 13.2465 44.9704 13.5862C45.2806 13.9112 45.5169 14.2436 45.6794 14.5833C45.8419 14.923 45.9453 15.2554 45.9896 15.5804L43.5302 16.1343C43.4711 15.7502 43.2938 15.4105 42.9984 15.1151C42.7177 14.8196 42.2967 14.6719 41.7354 14.6719C41.3514 14.6719 41.019 14.7753 40.7384 14.9821C40.4725 15.1889 40.3396 15.4474 40.3396 15.7576C40.3396 16.2894 40.6719 16.6143 41.3366 16.7325L42.8876 17.0649C43.9364 17.2864 44.734 17.6926 45.2806 18.2835C45.8419 18.8744 46.1225 19.5834 46.1225 20.4106C46.1225 21.3855 45.7532 22.2274 45.0147 22.9365C44.2761 23.6455 43.2347 24 41.8905 24C41.1224 24 40.4356 23.8892 39.8299 23.6676C39.2243 23.4313 38.7516 23.1359 38.4119 22.7814C38.0869 22.4121 37.8358 22.0502 37.6586 21.6957C37.4961 21.3264 37.3927 20.9719 37.3484 20.6321ZM52.3382 21.319C51.5701 21.319 50.9128 21.0457 50.3662 20.4992C49.8345 19.9527 49.5686 19.1919 49.5686 18.217C49.5686 17.2421 49.8345 16.4814 50.3662 15.9349C50.9128 15.3883 51.5701 15.1151 52.3382 15.1151C53.1063 15.1151 53.7562 15.3883 54.288 15.9349C54.8345 16.4814 55.1078 17.2421 55.1078 18.217C55.1078 19.1919 54.8345 19.9527 54.288 20.4992C53.7562 21.0457 53.1063 21.319 52.3382 21.319ZM52.3382 12.4341C50.6986 12.4341 49.3322 12.9806 48.2392 14.0737C47.1609 15.1668 46.6217 16.5479 46.6217 18.217C46.6217 19.8862 47.1609 21.2673 48.2392 22.3604C49.3322 23.4535 50.6986 24 52.3382 24C53.9778 24 55.3368 23.4535 56.4151 22.3604C57.5082 21.2673 58.0547 19.8862 58.0547 18.217C58.0547 16.5479 57.5082 15.1668 56.4151 14.0737C55.3368 12.9806 53.9778 12.4341 52.3382 12.4341ZM71.471 22.4933C71.471 22.9808 71.5005 23.3722 71.5596 23.6676H74.3736C74.2997 23.0472 74.2628 22.3899 74.2628 21.6957V12.7664H71.3159V19.1033C71.3159 19.7532 71.1313 20.2776 70.762 20.6765C70.3927 21.0605 69.8905 21.2525 69.2553 21.2525C68.6054 21.2525 68.1105 21.0531 67.7708 20.6543C67.4311 20.2407 67.2612 19.7089 67.2612 19.059V12.7664H64.3143V19.6572C64.3143 20.8832 64.6836 21.9099 65.4222 22.737C66.1607 23.5495 67.1726 23.9557 68.4577 23.9557C69.0781 23.9557 69.6615 23.8375 70.2081 23.6012C70.7694 23.3501 71.1904 22.9808 71.471 22.4933ZM80.0343 9.50935V12.7664H82.2278V15.3809H80.0343V19.9453C80.0343 20.4032 80.1377 20.7282 80.3445 20.9202C80.5513 21.1122 80.8763 21.2082 81.3194 21.2082C81.7182 21.2082 82.021 21.1787 82.2278 21.1196V23.5569C81.7995 23.7341 81.2455 23.8227 80.5661 23.8227C79.5025 23.8227 78.6606 23.5273 78.0402 22.9365C77.4198 22.3308 77.1096 21.5036 77.1096 20.4549V15.3809H75.1376V12.7664H75.6915C76.2381 12.7664 76.6517 12.6113 76.9323 12.3011C77.2277 11.9762 77.3755 11.5552 77.3755 11.0382V9.50935H80.0343ZM91.7433 20.4992C92.2898 21.0457 92.9472 21.319 93.7153 21.319C94.4834 21.319 95.1333 21.0457 95.6651 20.4992C96.2116 19.9527 96.4849 19.1919 96.4849 18.217C96.4849 17.2421 96.2116 16.4814 95.6651 15.9349C95.1333 15.3883 94.4834 15.1151 93.7153 15.1151C92.9472 15.1151 92.2898 15.3883 91.7433 15.9349C91.2115 16.4814 90.9457 17.2421 90.9457 18.217C90.9457 19.1919 91.2115 19.9527 91.7433 20.4992ZM89.6162 14.0737C90.7093 12.9806 92.0757 12.4341 93.7153 12.4341C95.3549 12.4341 96.7138 12.9806 97.7922 14.0737C98.8852 15.1668 99.4318 16.5479 99.4318 18.217C99.4318 19.8862 98.8852 21.2673 97.7922 22.3604C96.7138 23.4535 95.3549 24 93.7153 24C92.0757 24 90.7093 23.4535 89.6162 22.3604C88.5379 21.2673 87.9988 19.8862 87.9988 18.217C87.9988 16.5479 88.5379 15.1668 89.6162 14.0737ZM103.698 23.6676V17.3972C103.698 16.7473 103.882 16.2081 104.252 15.7798C104.621 15.3514 105.116 15.1372 105.736 15.1372C106.416 15.1372 106.918 15.3366 107.243 15.7355C107.582 16.1343 107.752 16.6587 107.752 17.3086V23.6676H110.699V16.799C110.699 15.5287 110.359 14.4947 109.68 13.697C109.015 12.8846 108.04 12.4784 106.755 12.4784C106.12 12.4784 105.515 12.6187 104.938 12.8994C104.362 13.18 103.919 13.5862 103.609 14.118V12.7664H100.751V23.6676H103.698Z" fill="#7075F6"></path></svg> 