<svg xmlns="http://www.w3.org/2000/svg" width="96" height="89" viewBox="0 0 96 89">
  <g id="Group_558" data-name="Group 558" transform="translate(-283 -1321)">
    <g id="Group_372" data-name="Group 372" transform="translate(283 1321)">
      <g id="ios-qr-scanner">
        <path id="Path_1998" data-name="Path 1998" d="M32.692,4.5H19.011A15.638,15.638,0,0,0,3.375,20.136v13.68a3.256,3.256,0,1,0,6.513,0V19.9a8.916,8.916,0,0,1,2.724-6.1,8.886,8.886,0,0,1,6.165-2.793H32.692a3.256,3.256,0,0,0,0-6.513Z" transform="translate(-3.375 -4.497)" fill="#7075f6"/>
        <path id="Path_1999" data-name="Path 1999" d="M39.95,4.5H26.038a3.256,3.256,0,0,0,0,6.513H39.954a8.872,8.872,0,0,1,6.165,2.793,8.93,8.93,0,0,1,2.724,6.1V33.819a3.256,3.256,0,1,0,6.513,0V19.9A15.423,15.423,0,0,0,39.95,4.5Z" transform="translate(40.645 -4.499)" fill="#7075f6"/>
        <path id="Path_2000" data-name="Path 2000" d="M32.692,47.714H18.776a8.872,8.872,0,0,1-6.165-2.793,8.93,8.93,0,0,1-2.724-6.1V24.913a3.256,3.256,0,0,0-6.513,0V38.829a15.423,15.423,0,0,0,15.4,15.4H32.692a3.256,3.256,0,0,0,0-6.513Z" transform="translate(-3.375 34.767)" fill="#7075f6"/>
        <path id="Path_2001" data-name="Path 2001" d="M52.1,21.656a3.267,3.267,0,0,0-3.256,3.256V38.828a9.475,9.475,0,0,1-8.889,8.889H26.038a3.256,3.256,0,0,0,0,6.513h13.68A15.653,15.653,0,0,0,55.355,38.593V24.916A3.267,3.267,0,0,0,52.1,21.659Z" transform="translate(40.645 34.764)" fill="#7075f6"/>
      </g>
    </g>
    <g id="qr-code-line" transform="translate(298.422 1333.5)" opacity="0.3">
      <path id="Path_1980" data-name="Path 1980" d="M7.29,4A3.29,3.29,0,0,0,4,7.29V20.451H20.451V4Zm9.048,12.338H8.113V8.113h8.225Z" transform="translate(0)" fill="#7075f6"/>
      <path id="Path_1981" data-name="Path 1981" d="M4,37.161a3.29,3.29,0,0,0,3.29,3.29H20.451V24H4Zm4.113-9.048h8.225v8.225H8.113Z" transform="translate(0 21.127)" fill="#7075f6"/>
      <path id="Path_1982" data-name="Path 1982" d="M24,40.451H37.161a3.29,3.29,0,0,0,3.29-3.29V24H24Zm4.113-12.338h8.225v8.225H28.113Z" transform="translate(21.127 21.127)" fill="#7075f6"/>
      <path id="Path_1983" data-name="Path 1983" d="M37.161,4H24V20.451H40.451V7.29A3.29,3.29,0,0,0,37.161,4Zm-.823,12.338H28.113V8.113h8.225Z" transform="translate(21.127)" fill="#7075f6"/>
      <path id="Path_1984" data-name="Path 1984" d="M24.225,12.113V8H16v8.225h4.113V12.113Z" transform="translate(12.676 4.225)" fill="#7075f6"/>
      <path id="Path_1985" data-name="Path 1985" d="M12,12h4.113v4.113H12Z" transform="translate(8.451 8.451)" fill="#7075f6"/>
      <path id="Path_1986" data-name="Path 1986" d="M14,14h8.225v4.113H14Z" transform="translate(10.564 10.564)" fill="#7075f6"/>
      <path id="Path_1987" data-name="Path 1987" d="M26.338,8.113v4.113h4.113V4H14v8.225h4.113V8.113Z" transform="translate(10.564)" fill="#7075f6"/>
      <path id="Path_1988" data-name="Path 1988" d="M4,14H8.113v8.225H4Z" transform="translate(0 10.564)" fill="#7075f6"/>
      <path id="Path_1989" data-name="Path 1989" d="M20.451,18.113v4.113H16.338V14H12.225v8.225H8.113v4.113H4v4.113h8.225V26.338h4.113v4.113h4.113V26.338h4.113V18.113Z" transform="translate(0 10.564)" fill="#7075f6"/>
      <path id="Path_1990" data-name="Path 1990" d="M22.113,22.338h4.113v4.113h4.113V22.338h4.113V18.225H26.225V10H22.113v4.113H18v4.113h4.113Z" transform="translate(14.789 6.338)" fill="#7075f6"/>
      <path id="Path_1991" data-name="Path 1991" d="M22.225,32.113H14v4.113H30.451V32.113H26.338V28H22.225Z" transform="translate(10.564 25.353)" fill="#7075f6"/>
      <path id="Path_1992" data-name="Path 1992" d="M28.338,24.225V20.113H24.225V16H20.113v4.113H16v4.113h4.113v4.113h4.113V24.225Z" transform="translate(12.676 12.676)" fill="#7075f6"/>
      <path id="Path_1993" data-name="Path 1993" d="M30,20h4.113v4.113H30Z" transform="translate(27.465 16.902)" fill="#7075f6"/>
      <path id="Path_1994" data-name="Path 1994" d="M22,20H34.338v4.113H22Z" transform="translate(19.015 16.902)" fill="#7075f6"/>
      <path id="Path_1995" data-name="Path 1995" d="M34.225,14H30.113v4.113H26v4.113h4.113v4.113h4.113V22.225h4.113V18.113H34.225Z" transform="translate(23.24 10.564)" fill="#7075f6"/>
      <path id="Path_1996" data-name="Path 1996" d="M20,22h4.113V34.338H20Z" transform="translate(16.902 19.015)" fill="#7075f6"/>
      <path id="Path_1997" data-name="Path 1997" d="M14,36.451h4.113V32.338h4.113V28.225H18.113V20H14Z" transform="translate(10.564 16.902)" fill="#7075f6"/>
    </g>
    <text id="_" data-name="􀁡" transform="translate(330 1378)" fill="#d91e27" font-size="34" font-family="SFProText-Regular, SF Pro Text"><tspan x="-19.905" y="0">􀁡</tspan></text>
  </g>
</svg>
