<svg width="20" height="20" viewBox="0 0 20 20" fill="none" xmlns="http://www.w3.org/2000/svg">
<path d="M12.642 6.784C12.3078 6.41398 11.9005 6.11742 11.4457 5.91309C10.9909 5.70876 10.4986 5.6011 10 5.59698C9.09027 5.64068 8.22276 5.99419 7.54155 6.59882C6.86035 7.20344 6.40642 8.02286 6.25505 8.92102C6.24485 8.98542 6.21288 9.04434 6.16448 9.08801C6.11607 9.13169 6.05416 9.15747 5.98906 9.16101H4.66802C4.62454 9.15711 4.58245 9.14406 4.54436 9.12274C4.50627 9.10142 4.47312 9.07232 4.44707 9.03729C4.42101 9.00227 4.40259 8.96211 4.39311 8.91949C4.38364 8.87688 4.38325 8.83274 4.39202 8.78998C4.55097 7.38826 5.20105 6.08809 6.22698 5.11981C7.25291 4.15154 8.58843 3.57771 9.997 3.5C10.7425 3.50729 11.4781 3.67134 12.1561 3.98145C12.834 4.29155 13.4391 4.74077 13.9321 5.29999L14.7591 4.36401C14.838 4.27907 14.942 4.22144 15.0558 4.19952C15.1697 4.17761 15.2875 4.19255 15.3924 4.24213C15.4972 4.2917 15.5835 4.37336 15.6388 4.47528C15.6942 4.5772 15.7156 4.69411 15.7 4.80902V8.323C15.7081 8.47892 15.6551 8.63182 15.5522 8.74927C15.4493 8.86671 15.3047 8.93948 15.1491 8.95203H12.07C11.9528 8.93725 11.842 8.89043 11.7497 8.81671C11.6574 8.74299 11.5872 8.64522 11.5469 8.53418C11.5066 8.42314 11.4977 8.30315 11.5212 8.18738C11.5447 8.07161 11.5997 7.96452 11.6801 7.87799L12.642 6.784ZM4.84807 11.048H7.92705C8.04425 11.0627 8.15506 11.1096 8.24736 11.1833C8.33967 11.257 8.40992 11.3548 8.45024 11.4658C8.49056 11.5769 8.49949 11.6969 8.476 11.8126C8.4525 11.9284 8.39748 12.0355 8.31706 12.122L7.3571 13.216C7.69128 13.586 8.0986 13.8826 8.55339 14.0869C9.00819 14.2912 9.5005 14.3989 9.99907 14.403C10.9089 14.3595 11.7764 14.0061 12.4577 13.4014C13.1389 12.7968 13.5929 11.9772 13.7441 11.079C13.7543 11.0146 13.7862 10.9557 13.8346 10.912C13.883 10.8683 13.945 10.8425 14.0101 10.839H15.3311C15.3746 10.8429 15.4167 10.8559 15.4548 10.8773C15.4928 10.8986 15.526 10.9277 15.552 10.9627C15.5781 10.9977 15.5965 11.0379 15.606 11.0805C15.6155 11.1231 15.6159 11.1673 15.6071 11.21C15.448 12.6125 14.7971 13.9133 13.7702 14.8817C12.7432 15.8501 11.4064 16.4234 9.997 16.5C9.25154 16.4927 8.51599 16.3287 7.83806 16.0186C7.16013 15.7084 6.55504 15.2592 6.06206 14.7L5.23503 15.636C5.15609 15.7209 5.05215 15.7786 4.93828 15.8005C4.82441 15.8224 4.70656 15.8074 4.60173 15.7579C4.4969 15.7083 4.41058 15.6266 4.35527 15.5247C4.29996 15.4228 4.27842 15.3059 4.29399 15.191V11.677C4.28598 11.5206 4.33953 11.3672 4.44304 11.2497C4.54655 11.1322 4.6919 11.0598 4.84807 11.048V11.048Z" fill="#7075F6"/>
</svg>
