<svg xmlns="http://www.w3.org/2000/svg" width="182" height="36" viewBox="0 0 182 36">
  <path id="Path_294" data-name="Path 294" d="M34.054,26.638a1.9,1.9,0,0,1,1.7-2.305,110.721,110.721,0,0,0,14.568-2.4c6.042-3.2,13.09-4.182,18.326-4.443a25.76,25.76,0,0,1,13.224,3.071l7.384,4.116c17.232,1.236,28.1,4.64,31.414,5.808a1.017,1.017,0,0,1,.587,1.416l-.753,1.561a1.121,1.121,0,0,1-1.013.624h-1.061a1.141,1.141,0,0,1-.766-.293l-1.691-1.536a6.238,6.238,0,0,0-2.886-1.568c-15-4.077-32.959-1.581-36.255-1.067a2.3,2.3,0,0,1-1.05-.072A31.866,31.866,0,0,1,69.733,26.9a.9.9,0,0,1,.536-1.7H83.48S81.2,21.87,73.41,20.5a26.991,26.991,0,0,0-15.574,2.613L59.57,25.35a1.069,1.069,0,0,1-1.021,1.7c-2.945-.373-5.381-.759-6.956-1.065a4.633,4.633,0,0,0-3.558.719l-1.678,1.111a10.305,10.305,0,0,1-7.586,1.437l-2.53-.539A2.845,2.845,0,0,1,34.054,26.638ZM164.877,52.972h-4.451V36.62h4.451Zm-4.986-21.7a2.791,2.791,0,0,1,2.744-2.759,2.734,2.734,0,0,1,2.744,2.759,2.58,2.58,0,0,1-.8,1.894,2.759,2.759,0,0,1-3.881,0A2.58,2.58,0,0,1,159.891,31.269Zm-36.234,21.7h4.45V28.909h-4.45ZM61.63,36.62V31.734H57.615v2.293a2.7,2.7,0,0,1-.669,1.894,2.407,2.407,0,0,1-1.874.7h-.837v3.922h2.978v7.611a4.944,4.944,0,0,0,1.405,3.722A5.324,5.324,0,0,0,62.433,53.2a6.678,6.678,0,0,0,2.509-.4V49.15a5.342,5.342,0,0,1-1.372.133,2.121,2.121,0,0,1-1.472-.432,1.921,1.921,0,0,1-.468-1.462V40.542h3.312V36.62ZM45.584,49.449a4.074,4.074,0,0,1-2.978-1.23A4.684,4.684,0,0,1,41.4,44.8a4.684,4.684,0,0,1,1.2-3.423,4.073,4.073,0,0,1,2.978-1.23,3.963,3.963,0,0,1,2.944,1.23A4.609,4.609,0,0,1,49.767,44.8a4.609,4.609,0,0,1-1.238,3.423A3.964,3.964,0,0,1,45.584,49.449Zm0-13.327A8.383,8.383,0,0,0,36.952,44.8a8.383,8.383,0,0,0,8.632,8.674A8.435,8.435,0,0,0,54.217,44.8a8.435,8.435,0,0,0-8.632-8.674Zm25.87,12.1a4.073,4.073,0,0,0,2.978,1.23,3.964,3.964,0,0,0,2.944-1.23A4.609,4.609,0,0,0,78.615,44.8a4.609,4.609,0,0,0-1.238-3.423,3.964,3.964,0,0,0-2.944-1.23,4.073,4.073,0,0,0-2.978,1.23,4.684,4.684,0,0,0-1.2,3.423A4.684,4.684,0,0,0,71.455,48.219Zm-3.212-9.638a8.428,8.428,0,0,1,6.19-2.459A8.435,8.435,0,0,1,83.065,44.8a8.634,8.634,0,1,1-17.264,0A8.455,8.455,0,0,1,68.243,38.581Zm25.968,9.007-3.814.831a5.822,5.822,0,0,0,.468,1.6A7.736,7.736,0,0,0,92,51.642a5.88,5.88,0,0,0,2.141,1.329,9.071,9.071,0,0,0,3.112.5,6.564,6.564,0,0,0,4.718-1.6,5.061,5.061,0,0,0,1.673-3.789,4.453,4.453,0,0,0-1.271-3.191,6.652,6.652,0,0,0-3.613-1.828l-2.342-.5q-1.506-.266-1.506-1.462a1.416,1.416,0,0,1,.6-1.163,2.48,2.48,0,0,1,1.506-.465,2.522,2.522,0,0,1,1.907.665,2.7,2.7,0,0,1,.8,1.529l3.714-.831a5.03,5.03,0,0,0-.468-1.5,5.83,5.83,0,0,0-1.071-1.5,4.924,4.924,0,0,0-1.974-1.23,8.032,8.032,0,0,0-2.944-.5,6.439,6.439,0,0,0-4.417,1.562,4.908,4.908,0,0,0-1.74,3.789,4.529,4.529,0,0,0,1.138,3.091,6.342,6.342,0,0,0,3.48,1.795l2.175.5q1.773.366,1.773,1.6a1.443,1.443,0,0,1-.569,1.163,2.473,2.473,0,0,1-1.606.465,3.2,3.2,0,0,1-2.175-.7A2.619,2.619,0,0,1,94.211,47.588Zm15.844.631a4.072,4.072,0,0,0,2.978,1.23,3.964,3.964,0,0,0,2.944-1.23,4.611,4.611,0,0,0,1.238-3.423,4.611,4.611,0,0,0-1.238-3.423,3.963,3.963,0,0,0-2.944-1.23,4.072,4.072,0,0,0-2.978,1.23,4.681,4.681,0,0,0-1.2,3.423A4.681,4.681,0,0,0,110.055,48.219Zm-3.212-9.638a8.429,8.429,0,0,1,6.19-2.459,8.435,8.435,0,0,1,8.632,8.674,8.634,8.634,0,1,1-17.265,0A8.455,8.455,0,0,1,106.843,38.581Zm35.215,14.391a9.258,9.258,0,0,1-.134-1.761,4,4,0,0,1-1.907,1.662,6.621,6.621,0,0,1-2.643.532,5.9,5.9,0,0,1-4.584-1.828,6.659,6.659,0,0,1-1.672-4.62V36.62h4.45v9.439a3.63,3.63,0,0,0,.769,2.393,2.791,2.791,0,0,0,2.242.9,3.021,3.021,0,0,0,2.276-.864,3.326,3.326,0,0,0,.836-2.36V36.62h4.45V50.014a24.829,24.829,0,0,0,.168,2.958Zm12.8-16.352V31.734h-4.016v2.293a2.7,2.7,0,0,1-.668,1.894,2.408,2.408,0,0,1-1.874.7h-.836v3.922h2.978v7.611a4.945,4.945,0,0,0,1.4,3.722,5.326,5.326,0,0,0,3.815,1.329,6.678,6.678,0,0,0,2.509-.4V49.15a5.335,5.335,0,0,1-1.371.133,2.119,2.119,0,0,1-1.472-.432,1.918,1.918,0,0,1-.468-1.462V40.542h3.312V36.62Zm20.659,12.829a4.072,4.072,0,0,1-2.978-1.23,4.681,4.681,0,0,1-1.2-3.423,4.681,4.681,0,0,1,1.2-3.423,4.072,4.072,0,0,1,2.978-1.23,3.963,3.963,0,0,1,2.944,1.23A4.611,4.611,0,0,1,179.7,44.8a4.611,4.611,0,0,1-1.238,3.423A3.964,3.964,0,0,1,175.514,49.449Zm0-13.327a8.383,8.383,0,0,0-8.632,8.674,8.383,8.383,0,0,0,8.632,8.674,8.435,8.435,0,0,0,8.632-8.674,8.435,8.435,0,0,0-8.632-8.674Zm15.074,7.445v9.406h-4.45V36.62h4.315v2.027a4.581,4.581,0,0,1,2.007-1.828,6.227,6.227,0,0,1,2.744-.631,5.39,5.39,0,0,1,4.416,1.828,6.9,6.9,0,0,1,1.539,4.653v10.3h-4.45V43.433a3.5,3.5,0,0,0-.769-2.36,2.773,2.773,0,0,0-2.276-.9,2.82,2.82,0,0,0-2.242.964A3.574,3.574,0,0,0,190.588,43.566Zm15.978,4.021-3.815.831a5.85,5.85,0,0,0,.468,1.6,7.763,7.763,0,0,0,1.138,1.628,5.883,5.883,0,0,0,2.142,1.329,9.07,9.07,0,0,0,3.112.5,6.561,6.561,0,0,0,4.717-1.6A5.06,5.06,0,0,0,216,48.086a4.454,4.454,0,0,0-1.271-3.191,6.654,6.654,0,0,0-3.614-1.828l-2.343-.5q-1.506-.266-1.506-1.462a1.417,1.417,0,0,1,.6-1.163,2.479,2.479,0,0,1,1.506-.465,2.521,2.521,0,0,1,1.907.665,2.7,2.7,0,0,1,.8,1.529l3.713-.831a4.984,4.984,0,0,0-.468-1.5,5.814,5.814,0,0,0-1.07-1.5,4.929,4.929,0,0,0-1.975-1.23,8.028,8.028,0,0,0-2.944-.5,6.44,6.44,0,0,0-4.416,1.562,4.907,4.907,0,0,0-1.74,3.789,4.527,4.527,0,0,0,1.138,3.091,6.34,6.34,0,0,0,3.479,1.795l2.175.5q1.774.366,1.773,1.6a1.443,1.443,0,0,1-.568,1.163,2.476,2.476,0,0,1-1.606.465,3.2,3.2,0,0,1-2.175-.7A2.619,2.619,0,0,1,206.565,47.588Z" transform="translate(-34 -17.47)" fill="#7075f6" fill-rule="evenodd"/>
</svg>
