<svg xmlns="http://www.w3.org/2000/svg" width="24" height="24" viewBox="0 0 24 24">
  <g id="Group_532" data-name="Group 532" transform="translate(-26 -200)">
    <g id="Group_149" data-name="Group 149" transform="translate(0 21)">
      <g id="Group_146" data-name="Group 146" transform="translate(-35 30)">
        <path id="Path_768" data-name="Path 768" d="M40.067,178.043l.562-1.412,1-2.5a5.571,5.571,0,0,1,5.2-3.536h6.35a5.572,5.572,0,0,1,5.2,3.536l1,2.5.562,1.412a3.208,3.208,0,0,1,2.067,3v2.412a3.2,3.2,0,0,1-.8,2.107v2.716a1.6,1.6,0,0,1-1.6,1.606H58a1.6,1.6,0,0,1-1.6-1.606v-1.608H43.6v1.608a1.6,1.6,0,0,1-1.6,1.606H40.4a1.6,1.6,0,0,1-1.6-1.606V185.56a3.2,3.2,0,0,1-.8-2.107v-2.412A3.208,3.208,0,0,1,40.067,178.043ZM55.4,175.323a2.4,2.4,0,0,0-2.229-1.516h-6.35a2.4,2.4,0,0,0-2.229,1.516l-1,2.5H56.4Zm2.6,8.12a1.6,1.6,0,0,0,0-3.205,3.086,3.086,0,0,0-2.4,2.4C55.6,183.6,57.04,183.442,58,183.442Zm-16,0c.96,0,2.4.16,2.4-.8a3.086,3.086,0,0,0-2.4-2.4,1.6,1.6,0,0,0,0,3.205Z" transform="translate(23 -19.237)" fill="#d1defe"/>
        <rect id="Rectangle_382" data-name="Rectangle 382" width="24" height="24" transform="translate(61 149)" fill="none"/>
      </g>
    </g>
  </g>
</svg>
