<svg width="127" height="44" viewBox="0 0 127 44" fill="none" xmlns="http://www.w3.org/2000/svg">
<g opacity="0.996">
<path opacity="0.996" d="M119 0H8C3.58172 0 0 3.58172 0 8V36C0 40.4183 3.58172 44 8 44H119C123.418 44 127 40.4183 127 36V8C127 3.58172 123.418 0 119 0Z" fill="#FFA80F"/>
<g opacity="0.996">
<path opacity="0.996" d="M27.682 18.348V29.5H26.226V18.348H27.682ZM40.7075 20.572C41.3902 20.572 41.9982 20.716 42.5315 21.004C43.0648 21.2813 43.4862 21.7027 43.7955 22.268C44.1048 22.8333 44.2595 23.5213 44.2595 24.332V29.5H42.8195V24.54C42.8195 23.6653 42.6008 22.9987 42.1635 22.54C41.7368 22.0707 41.1555 21.836 40.4195 21.836C39.6622 21.836 39.0595 22.0813 38.6115 22.572C38.1635 23.052 37.9395 23.7507 37.9395 24.668V29.5H36.4995V24.54C36.4995 23.6653 36.2808 22.9987 35.8435 22.54C35.4168 22.0707 34.8355 21.836 34.0995 21.836C33.3422 21.836 32.7395 22.0813 32.2915 22.572C31.8435 23.052 31.6195 23.7507 31.6195 24.668V29.5H30.1635V20.732H31.6195V21.996C31.9075 21.5373 32.2915 21.1853 32.7715 20.94C33.2622 20.6947 33.8008 20.572 34.3875 20.572C35.1235 20.572 35.7742 20.7373 36.3395 21.068C36.9048 21.3987 37.3262 21.884 37.6035 22.524C37.8488 21.9053 38.2542 21.4253 38.8195 21.084C39.3848 20.7427 40.0142 20.572 40.7075 20.572ZM48.1039 22.348C48.3919 21.8467 48.8185 21.4307 49.3839 21.1C49.9599 20.7587 50.6265 20.588 51.3839 20.588C52.1625 20.588 52.8665 20.7747 53.4959 21.148C54.1359 21.5213 54.6372 22.0493 54.9999 22.732C55.3625 23.404 55.5439 24.188 55.5439 25.084C55.5439 25.9693 55.3625 26.7587 54.9999 27.452C54.6372 28.1453 54.1359 28.684 53.4959 29.068C52.8665 29.452 52.1625 29.644 51.3839 29.644C50.6372 29.644 49.9759 29.4787 49.3999 29.148C48.8345 28.8067 48.4025 28.3853 48.1039 27.884V33.66H46.6479V20.732H48.1039V22.348ZM54.0559 25.084C54.0559 24.4227 53.9225 23.8467 53.6559 23.356C53.3892 22.8653 53.0265 22.492 52.5679 22.236C52.1199 21.98 51.6239 21.852 51.0799 21.852C50.5465 21.852 50.0505 21.9853 49.5919 22.252C49.1439 22.508 48.7812 22.8867 48.5039 23.388C48.2372 23.8787 48.1039 24.4493 48.1039 25.1C48.1039 25.7613 48.2372 26.3427 48.5039 26.844C48.7812 27.3347 49.1439 27.7133 49.5919 27.98C50.0505 28.236 50.5465 28.364 51.0799 28.364C51.6239 28.364 52.1199 28.236 52.5679 27.98C53.0265 27.7133 53.3892 27.3347 53.6559 26.844C53.9225 26.3427 54.0559 25.756 54.0559 25.084ZM61.2844 29.644C60.463 29.644 59.7164 29.4573 59.0444 29.084C58.383 28.7107 57.8604 28.1827 57.4764 27.5C57.103 26.8067 56.9164 26.0067 56.9164 25.1C56.9164 24.204 57.1084 23.4147 57.4924 22.732C57.887 22.0387 58.4204 21.5107 59.0924 21.148C59.7644 20.7747 60.5164 20.588 61.3484 20.588C62.1804 20.588 62.9324 20.7747 63.6044 21.148C64.2764 21.5107 64.8044 22.0333 65.1884 22.716C65.583 23.3987 65.7804 24.1933 65.7804 25.1C65.7804 26.0067 65.5777 26.8067 65.1724 27.5C64.7777 28.1827 64.239 28.7107 63.5564 29.084C62.8737 29.4573 62.1164 29.644 61.2844 29.644ZM61.2844 28.364C61.807 28.364 62.2977 28.2413 62.7564 27.996C63.215 27.7507 63.583 27.3827 63.8604 26.892C64.1484 26.4013 64.2924 25.804 64.2924 25.1C64.2924 24.396 64.1537 23.7987 63.8764 23.308C63.599 22.8173 63.2364 22.4547 62.7884 22.22C62.3404 21.9747 61.855 21.852 61.3324 21.852C60.799 21.852 60.3084 21.9747 59.8604 22.22C59.423 22.4547 59.071 22.8173 58.8044 23.308C58.5377 23.7987 58.4044 24.396 58.4044 25.1C58.4044 25.8147 58.5324 26.4173 58.7884 26.908C59.055 27.3987 59.407 27.7667 59.8444 28.012C60.2817 28.2467 60.7617 28.364 61.2844 28.364ZM69.1508 22.156C69.4068 21.6547 69.7694 21.2653 70.2388 20.988C70.7188 20.7107 71.3001 20.572 71.9828 20.572V22.076H71.5988C69.9668 22.076 69.1508 22.9613 69.1508 24.732V29.5H67.6948V20.732H69.1508V22.156ZM75.4395 21.932V27.1C75.4395 27.5267 75.5302 27.8307 75.7115 28.012C75.8928 28.1827 76.2075 28.268 76.6555 28.268H77.7275V29.5H76.4155C75.6048 29.5 74.9968 29.3133 74.5915 28.94C74.1862 28.5667 73.9835 27.9533 73.9835 27.1V21.932H72.8475V20.732H73.9835V18.524H75.4395V20.732H77.7275V21.932H75.4395Z" fill="white"/>
<path opacity="0.996" d="M96.034 16.844V11H88.1171C87.8546 11.0114 87.6073 11.1263 87.4293 11.3195C87.2513 11.5127 87.157 11.7685 87.167 12.031V31.969C87.157 32.2315 87.2513 32.4873 87.4293 32.6805C87.6073 32.8737 87.8546 32.9886 88.1171 33H101.423C101.685 32.9886 101.933 32.8737 102.111 32.6805C102.289 32.4873 102.383 32.2315 102.373 31.969V17.875H96.984C96.7221 17.862 96.4758 17.7467 96.2981 17.5538C96.1204 17.361 96.0256 17.1061 96.034 16.844ZM92.234 23.031C92.2375 23.1181 92.2065 23.2032 92.1477 23.2676C92.0889 23.332 92.0071 23.3706 91.92 23.375H91.6059C91.4305 23.382 91.2651 23.4582 91.1457 23.587C91.0264 23.7157 90.9628 23.8865 90.969 24.062V25.438C90.9628 25.6135 91.0264 25.7843 91.1457 25.913C91.2651 26.0418 91.4305 26.118 91.6059 26.125H91.92C92.0071 26.1294 92.0889 26.168 92.1477 26.2324C92.2065 26.2968 92.2375 26.3819 92.234 26.469V27.156C92.2375 27.2431 92.2065 27.3282 92.1477 27.3926C92.0889 27.457 92.0071 27.4956 91.92 27.5H91.6059C91.0806 27.4784 90.5854 27.2491 90.2291 26.8624C89.8728 26.4757 89.6847 25.9634 89.706 25.438V24.062C89.6847 23.5366 89.8728 23.0243 90.2291 22.6376C90.5854 22.2509 91.0806 22.0216 91.6059 22H91.92C92.0071 22.0044 92.0889 22.043 92.1477 22.1074C92.2065 22.1718 92.2375 22.2569 92.234 22.344V23.031ZM93.9921 27.5H93.507C93.4631 27.4987 93.4201 27.4888 93.3801 27.4708C93.3401 27.4528 93.3041 27.427 93.274 27.3951C93.244 27.3631 93.2206 27.3256 93.2052 27.2845C93.1897 27.2435 93.1825 27.1998 93.184 27.156V26.469C93.1825 26.4252 93.1897 26.3815 93.2052 26.3405C93.2206 26.2994 93.244 26.2619 93.274 26.2299C93.3041 26.198 93.3401 26.1722 93.3801 26.1542C93.4201 26.1362 93.4631 26.1263 93.507 26.125H93.9921C94.2301 26.125 94.401 25.975 94.401 25.841C94.3994 25.809 94.391 25.7778 94.3763 25.7493C94.3617 25.7209 94.3411 25.6959 94.316 25.676L93.451 24.869C93.208 24.6404 93.0395 24.3437 92.9675 24.0179C92.8956 23.692 92.9234 23.3521 93.0476 23.0424C93.1718 22.7326 93.3865 22.4674 93.6636 22.2815C93.9407 22.0956 94.2674 21.9975 94.6011 22H95.0861C95.1299 22.0013 95.1729 22.0112 95.2129 22.0292C95.2529 22.0472 95.289 22.073 95.319 22.1049C95.349 22.1369 95.3724 22.1744 95.3878 22.2155C95.4033 22.2565 95.4105 22.3002 95.409 22.344V23.032C95.4105 23.0758 95.4033 23.1194 95.3878 23.1603C95.3723 23.2013 95.3489 23.2389 95.3188 23.2708C95.2888 23.3026 95.2529 23.3282 95.2129 23.3461C95.1729 23.364 95.1298 23.3738 95.0861 23.375H94.6011C94.3631 23.375 94.192 23.526 94.192 23.66C94.1938 23.692 94.2024 23.7233 94.2173 23.7518C94.2321 23.7802 94.2528 23.8052 94.2781 23.825L95.1431 24.631C95.3861 24.8596 95.5545 25.1563 95.6265 25.4821C95.6984 25.808 95.6705 26.1479 95.5464 26.4576C95.4222 26.7674 95.2076 27.0326 94.9305 27.2185C94.6534 27.4044 94.3267 27.5025 93.993 27.5H93.9921ZM97.309 22.344V23.237C97.0573 23.377 96.8593 23.5966 96.746 23.8613C96.6326 24.126 96.6103 24.4208 96.6826 24.6995C96.7549 24.9782 96.9178 25.225 97.1455 25.4012C97.3732 25.5774 97.6531 25.673 97.941 25.673C98.229 25.673 98.5087 25.5774 98.7364 25.4012C98.9642 25.225 99.127 24.9782 99.1993 24.6995C99.2716 24.4208 99.2493 24.126 99.136 23.8613C99.0226 23.5966 98.8246 23.377 98.573 23.237V22.344C98.5695 22.2569 98.6005 22.1718 98.6593 22.1074C98.7181 22.043 98.7999 22.0044 98.887 22H99.524C99.6111 22.0044 99.6929 22.043 99.7517 22.1074C99.8105 22.1718 99.8415 22.2569 99.838 22.344V23.237C99.8587 24.7129 99.3496 26.1474 98.4031 27.28C98.3475 27.3487 98.2771 27.4041 98.1974 27.4422C98.1176 27.4803 98.0304 27.5 97.942 27.5C97.8536 27.5 97.7664 27.4803 97.6866 27.4422C97.6069 27.4041 97.5365 27.3487 97.4809 27.28C96.5314 26.1485 96.0188 24.7141 96.036 23.237V22.344C96.0345 22.3002 96.0418 22.2565 96.0572 22.2155C96.0727 22.1744 96.0961 22.1369 96.1261 22.1049C96.1561 22.073 96.1921 22.0472 96.232 22.0292C96.272 22.0112 96.3152 22.0013 96.359 22H96.986C97.0741 22.0031 97.1575 22.0411 97.2176 22.1056C97.2778 22.1701 97.31 22.2558 97.307 22.344H97.309ZM102.099 15.512L98.2211 11.301C98.1357 11.2068 98.0314 11.1314 97.9152 11.0797C97.7989 11.028 97.6732 11.0012 97.546 11.001H97.308V16.501H102.374V16.239C102.377 15.9703 102.278 15.7104 102.097 15.512H102.099Z" fill="white"/>
</g>
</g>
</svg>
