<svg width="151" height="44" viewBox="0 0 151 44" fill="none" xmlns="http://www.w3.org/2000/svg">
<g opacity="0.996">
<path opacity="0.996" d="M8 0H143C145.122 0 147.157 0.842855 148.657 2.34315C150.157 3.84344 151 5.87827 151 8V36C151 38.1217 150.157 40.1566 148.657 41.6569C147.157 43.1571 145.122 44 143 44H8C5.87827 44 3.84344 43.1571 2.34315 41.6569C0.842855 40.1566 0 38.1217 0 36V8C0 5.87827 0.842855 3.84344 2.34315 2.34315C3.84344 0.842855 5.87827 0 8 0V0Z" fill="#7075F6"/>
<g opacity="0.996">
<path opacity="0.996" d="M52.732 18.62V29H51.367V21.26L47.917 29H46.957L43.492 21.245V29H42.127V18.62H43.597L47.437 27.2L51.277 18.62H52.732ZM54.5369 24.86C54.5369 24.02 54.7069 23.285 55.0469 22.655C55.3869 22.015 55.8519 21.52 56.4419 21.17C57.0419 20.82 57.7069 20.645 58.4369 20.645C59.1569 20.645 59.7819 20.8 60.3119 21.11C60.8419 21.42 61.2369 21.81 61.4969 22.28V20.78H62.8769V29H61.4969V27.47C61.2269 27.95 60.8219 28.35 60.2819 28.67C59.7519 28.98 59.1319 29.135 58.4219 29.135C57.6919 29.135 57.0319 28.955 56.4419 28.595C55.8519 28.235 55.3869 27.73 55.0469 27.08C54.7069 26.43 54.5369 25.69 54.5369 24.86ZM61.4969 24.875C61.4969 24.255 61.3719 23.715 61.1219 23.255C60.8719 22.795 60.5319 22.445 60.1019 22.205C59.6819 21.955 59.2169 21.83 58.7069 21.83C58.1969 21.83 57.7319 21.95 57.3119 22.19C56.8919 22.43 56.5569 22.78 56.3069 23.24C56.0569 23.7 55.9319 24.24 55.9319 24.86C55.9319 25.49 56.0569 26.04 56.3069 26.51C56.5569 26.97 56.8919 27.325 57.3119 27.575C57.7319 27.815 58.1969 27.935 58.7069 27.935C59.2169 27.935 59.6819 27.815 60.1019 27.575C60.5319 27.325 60.8719 26.97 61.1219 26.51C61.3719 26.04 61.4969 25.495 61.4969 24.875ZM66.5486 22.115C66.7886 21.645 67.1286 21.28 67.5686 21.02C68.0186 20.76 68.5636 20.63 69.2036 20.63V22.04H68.8436C67.3136 22.04 66.5486 22.87 66.5486 24.53V29H65.1836V20.78H66.5486V22.115ZM75.3693 29L72.1443 25.37V29H70.7793V17.9H72.1443V24.425L75.3093 20.78H77.2143L73.3443 24.875L77.2293 29H75.3693ZM81.9881 24.86C81.9881 24.02 82.1581 23.285 82.4981 22.655C82.8381 22.015 83.3031 21.52 83.8931 21.17C84.4931 20.82 85.1581 20.645 85.8881 20.645C86.6081 20.645 87.2331 20.8 87.7631 21.11C88.2931 21.42 88.6881 21.81 88.9481 22.28V20.78H90.3281V29H88.9481V27.47C88.6781 27.95 88.2731 28.35 87.7331 28.67C87.2031 28.98 86.5831 29.135 85.8731 29.135C85.1431 29.135 84.4831 28.955 83.8931 28.595C83.3031 28.235 82.8381 27.73 82.4981 27.08C82.1581 26.43 81.9881 25.69 81.9881 24.86ZM88.9481 24.875C88.9481 24.255 88.8231 23.715 88.5731 23.255C88.3231 22.795 87.9831 22.445 87.5531 22.205C87.1331 21.955 86.6681 21.83 86.1581 21.83C85.6481 21.83 85.1831 21.95 84.7631 22.19C84.3431 22.43 84.0081 22.78 83.7581 23.24C83.5081 23.7 83.3831 24.24 83.3831 24.86C83.3831 25.49 83.5081 26.04 83.7581 26.51C84.0081 26.97 84.3431 27.325 84.7631 27.575C85.1831 27.815 85.6481 27.935 86.1581 27.935C86.6681 27.935 87.1331 27.815 87.5531 27.575C87.9831 27.325 88.3231 26.97 88.5731 26.51C88.8231 26.04 88.9481 25.495 88.9481 24.875ZM95.5448 29.135C94.9148 29.135 94.3498 29.03 93.8498 28.82C93.3498 28.6 92.9548 28.3 92.6648 27.92C92.3748 27.53 92.2148 27.085 92.1848 26.585H93.5948C93.6348 26.995 93.8248 27.33 94.1648 27.59C94.5148 27.85 94.9698 27.98 95.5298 27.98C96.0498 27.98 96.4598 27.865 96.7598 27.635C97.0598 27.405 97.2098 27.115 97.2098 26.765C97.2098 26.405 97.0498 26.14 96.7298 25.97C96.4098 25.79 95.9148 25.615 95.2448 25.445C94.6348 25.285 94.1348 25.125 93.7448 24.965C93.3648 24.795 93.0348 24.55 92.7548 24.23C92.4848 23.9 92.3498 23.47 92.3498 22.94C92.3498 22.52 92.4748 22.135 92.7248 21.785C92.9748 21.435 93.3298 21.16 93.7898 20.96C94.2498 20.75 94.7748 20.645 95.3648 20.645C96.2748 20.645 97.0098 20.875 97.5698 21.335C98.1298 21.795 98.4298 22.425 98.4698 23.225H97.1048C97.0748 22.795 96.8998 22.45 96.5798 22.19C96.2698 21.93 95.8498 21.8 95.3198 21.8C94.8298 21.8 94.4398 21.905 94.1498 22.115C93.8598 22.325 93.7148 22.6 93.7148 22.94C93.7148 23.21 93.7998 23.435 93.9698 23.615C94.1498 23.785 94.3698 23.925 94.6298 24.035C94.8998 24.135 95.2698 24.25 95.7398 24.38C96.3298 24.54 96.8098 24.7 97.1798 24.86C97.5498 25.01 97.8648 25.24 98.1248 25.55C98.3948 25.86 98.5348 26.265 98.5448 26.765C98.5448 27.215 98.4198 27.62 98.1698 27.98C97.9198 28.34 97.5648 28.625 97.1048 28.835C96.6548 29.035 96.1348 29.135 95.5448 29.135ZM107.786 29.105C107.096 29.105 106.476 28.985 105.926 28.745C105.386 28.495 104.961 28.155 104.651 27.725C104.341 27.285 104.181 26.78 104.171 26.21H105.626C105.676 26.7 105.876 27.115 106.226 27.455C106.586 27.785 107.106 27.95 107.786 27.95C108.436 27.95 108.946 27.79 109.316 27.47C109.696 27.14 109.886 26.72 109.886 26.21C109.886 25.81 109.776 25.485 109.556 25.235C109.336 24.985 109.061 24.795 108.731 24.665C108.401 24.535 107.956 24.395 107.396 24.245C106.706 24.065 106.151 23.885 105.731 23.705C105.321 23.525 104.966 23.245 104.666 22.865C104.376 22.475 104.231 21.955 104.231 21.305C104.231 20.735 104.376 20.23 104.666 19.79C104.956 19.35 105.361 19.01 105.881 18.77C106.411 18.53 107.016 18.41 107.696 18.41C108.676 18.41 109.476 18.655 110.096 19.145C110.726 19.635 111.081 20.285 111.161 21.095H109.661C109.611 20.695 109.401 20.345 109.031 20.045C108.661 19.735 108.171 19.58 107.561 19.58C106.991 19.58 106.526 19.73 106.166 20.03C105.806 20.32 105.626 20.73 105.626 21.26C105.626 21.64 105.731 21.95 105.941 22.19C106.161 22.43 106.426 22.615 106.736 22.745C107.056 22.865 107.501 23.005 108.071 23.165C108.761 23.355 109.316 23.545 109.736 23.735C110.156 23.915 110.516 24.2 110.816 24.59C111.116 24.97 111.266 25.49 111.266 26.15C111.266 26.66 111.131 27.14 110.861 27.59C110.591 28.04 110.191 28.405 109.661 28.685C109.131 28.965 108.506 29.105 107.786 29.105ZM116.859 29.135C116.089 29.135 115.389 28.96 114.759 28.61C114.139 28.26 113.649 27.765 113.289 27.125C112.939 26.475 112.764 25.725 112.764 24.875C112.764 24.035 112.944 23.295 113.304 22.655C113.674 22.005 114.174 21.51 114.804 21.17C115.434 20.82 116.139 20.645 116.919 20.645C117.699 20.645 118.404 20.82 119.034 21.17C119.664 21.51 120.159 22 120.519 22.64C120.889 23.28 121.074 24.025 121.074 24.875C121.074 25.725 120.884 26.475 120.504 27.125C120.134 27.765 119.629 28.26 118.989 28.61C118.349 28.96 117.639 29.135 116.859 29.135ZM116.859 27.935C117.349 27.935 117.809 27.82 118.239 27.59C118.669 27.36 119.014 27.015 119.274 26.555C119.544 26.095 119.679 25.535 119.679 24.875C119.679 24.215 119.549 23.655 119.289 23.195C119.029 22.735 118.689 22.395 118.269 22.175C117.849 21.945 117.394 21.83 116.904 21.83C116.404 21.83 115.944 21.945 115.524 22.175C115.114 22.395 114.784 22.735 114.534 23.195C114.284 23.655 114.159 24.215 114.159 24.875C114.159 25.545 114.279 26.11 114.519 26.57C114.769 27.03 115.099 27.375 115.509 27.605C115.919 27.825 116.369 27.935 116.859 27.935ZM124.234 17.9V29H122.869V17.9H124.234ZM126.051 24.86C126.051 24.02 126.221 23.285 126.561 22.655C126.901 22.015 127.366 21.52 127.956 21.17C128.556 20.82 129.226 20.645 129.966 20.645C130.606 20.645 131.201 20.795 131.751 21.095C132.301 21.385 132.721 21.77 133.011 22.25V17.9H134.391V29H133.011V27.455C132.741 27.945 132.341 28.35 131.811 28.67C131.281 28.98 130.661 29.135 129.951 29.135C129.221 29.135 128.556 28.955 127.956 28.595C127.366 28.235 126.901 27.73 126.561 27.08C126.221 26.43 126.051 25.69 126.051 24.86ZM133.011 24.875C133.011 24.255 132.886 23.715 132.636 23.255C132.386 22.795 132.046 22.445 131.616 22.205C131.196 21.955 130.731 21.83 130.221 21.83C129.711 21.83 129.246 21.95 128.826 22.19C128.406 22.43 128.071 22.78 127.821 23.24C127.571 23.7 127.446 24.24 127.446 24.86C127.446 25.49 127.571 26.04 127.821 26.51C128.071 26.97 128.406 27.325 128.826 27.575C129.246 27.815 129.711 27.935 130.221 27.935C130.731 27.935 131.196 27.815 131.616 27.575C132.046 27.325 132.386 26.97 132.636 26.51C132.886 26.04 133.011 25.495 133.011 24.875Z" fill="white"/>
<path opacity="0.996" d="M33 23C33 24.5823 32.5308 26.129 31.6518 27.4446C30.7727 28.7602 29.5233 29.7855 28.0615 30.391C26.5997 30.9965 24.9911 31.155 23.4393 30.8463C21.8874 30.5376 20.462 29.7757 19.3431 28.6569C18.2243 27.538 17.4624 26.1126 17.1537 24.5607C16.845 23.0089 17.0035 21.4003 17.609 19.9385C18.2145 18.4767 19.2398 17.2273 20.5554 16.3482C21.871 15.4692 23.4178 15 25 15C27.1217 15 29.1566 15.8429 30.6569 17.3431C32.1571 18.8434 33 20.8783 33 23ZM24.075 27.236L30.01 21.3C30.058 21.2521 30.096 21.1952 30.122 21.1326C30.1479 21.0699 30.1613 21.0028 30.1613 20.935C30.1613 20.8672 30.1479 20.8001 30.122 20.7374C30.096 20.6748 30.058 20.6179 30.01 20.57L29.28 19.84C29.2321 19.792 29.1752 19.754 29.1126 19.728C29.0499 19.7021 28.9828 19.6887 28.915 19.6887C28.8472 19.6887 28.7801 19.7021 28.7175 19.728C28.6548 19.754 28.5979 19.792 28.55 19.84L23.71 24.681L21.45 22.421C21.4021 22.373 21.3452 22.335 21.2826 22.309C21.2199 22.2831 21.1528 22.2697 21.085 22.2697C21.0172 22.2697 20.9501 22.2831 20.8875 22.309C20.8248 22.335 20.7679 22.373 20.72 22.421L19.99 23.151C19.942 23.1989 19.904 23.2558 19.8781 23.3184C19.8521 23.3811 19.8387 23.4482 19.8387 23.516C19.8387 23.5838 19.8521 23.6509 19.8781 23.7136C19.904 23.7762 19.942 23.8331 19.99 23.881L23.345 27.236C23.3929 27.284 23.4498 27.322 23.5125 27.348C23.5751 27.3739 23.6422 27.3873 23.71 27.3873C23.7778 27.3873 23.8449 27.3739 23.9076 27.348C23.9702 27.322 24.0271 27.284 24.075 27.236Z" fill="white"/>
</g>
</g>
</svg>
