<svg xmlns="http://www.w3.org/2000/svg" width="24" height="24" viewBox="0 0 24 24">
  <g id="Group_559" data-name="Group 559" transform="translate(-360 -33)">
    <g id="Component_57_5" data-name="Component 57 – 5" transform="translate(360 33)">
      <g id="notification-solid-badged">
        <path id="Path_1003" data-name="Path 1003" d="M17.333,33.713A2.006,2.006,0,0,0,19.271,32H15.32a2.006,2.006,0,0,0,2.013,1.713Z" transform="translate(-6.103 -9.713)" fill="#888c9f"/>
        <path id="Path_1004" data-name="Path 1004" d="M25.435,20.669l-.255-.215a10.45,10.45,0,0,1-1.885-2.1,8.742,8.742,0,0,1-1.014-3.448V11.364a7.481,7.481,0,0,0-.12-1.283A5.444,5.444,0,0,1,17.66,4.8V4.352a8.223,8.223,0,0,0-2.494-.717v-.9a1,1,0,0,0-2.006,0v.939a7.876,7.876,0,0,0-6.986,7.693v3.542a8.742,8.742,0,0,1-1.014,3.448,10.46,10.46,0,0,1-1.855,2.1l-.255.215v2.022H25.435Z" transform="translate(-3.05 -1.193)" fill="#888c9f"/>
        <path id="Path_1005" data-name="Path 1005" d="M32.512,4.756A3.756,3.756,0,1,1,28.756,1a3.756,3.756,0,0,1,3.756,3.756Z" transform="translate(-8.512 -1)" fill="#ff0a00"/>
      </g>
      <rect id="Rectangle_396" data-name="Rectangle 396" width="24" height="23.001" fill="none"/>
    </g>
    <path id="Path_2069" data-name="Path 2069" d="M17.333,33.713A2.006,2.006,0,0,0,19.271,32H15.32a2.006,2.006,0,0,0,2.013,1.713Z" transform="translate(353.897 23.287)" fill="#888c9f"/>
    <path id="Path_2070" data-name="Path 2070" d="M25.435,20.669l-.255-.215a10.45,10.45,0,0,1-1.885-2.1,8.742,8.742,0,0,1-1.014-3.448V11.364a7.481,7.481,0,0,0-.12-1.283A5.444,5.444,0,0,1,17.66,4.8V4.352a8.223,8.223,0,0,0-2.494-.717v-.9a1,1,0,0,0-2.006,0v.939a7.876,7.876,0,0,0-6.986,7.693v3.542a8.742,8.742,0,0,1-1.014,3.448,10.46,10.46,0,0,1-1.855,2.1l-.255.215v2.022H25.435Z" transform="translate(356.95 31.807)" fill="#888c9f"/>
  </g>
</svg>
