<svg width="136" height="44" viewBox="0 0 136 44" fill="none" xmlns="http://www.w3.org/2000/svg">
<path d="M128 0H8C3.58172 0 0 3.58172 0 8V36C0 40.4183 3.58172 44 8 44H128C132.418 44 136 40.4183 136 36V8C136 3.58172 132.418 0 128 0Z" fill="#888C9F"/>
<path d="M43.112 21.612C43.112 22.54 42.792 23.3133 42.152 23.932C41.5227 24.54 40.5573 24.844 39.256 24.844H37.112V29.5H35.656V18.348H39.256C40.5147 18.348 41.4693 18.652 42.12 19.26C42.7813 19.868 43.112 20.652 43.112 21.612ZM39.256 23.644C40.0667 23.644 40.664 23.468 41.048 23.116C41.432 22.764 41.624 22.2627 41.624 21.612C41.624 20.236 40.8347 19.548 39.256 19.548H37.112V23.644H39.256ZM46.3776 22.156C46.6336 21.6547 46.9963 21.2653 47.4656 20.988C47.9456 20.7107 48.527 20.572 49.2096 20.572V22.076H48.8256C47.1936 22.076 46.3776 22.9613 46.3776 24.732V29.5H44.9216V20.732H46.3776V22.156ZM51.6424 19.308C51.3651 19.308 51.1304 19.212 50.9384 19.02C50.7464 18.828 50.6504 18.5933 50.6504 18.316C50.6504 18.0387 50.7464 17.804 50.9384 17.612C51.1304 17.42 51.3651 17.324 51.6424 17.324C51.9091 17.324 52.1331 17.42 52.3144 17.612C52.5064 17.804 52.6024 18.0387 52.6024 18.316C52.6024 18.5933 52.5064 18.828 52.3144 19.02C52.1331 19.212 51.9091 19.308 51.6424 19.308ZM52.3464 20.732V29.5H50.8904V20.732H52.3464ZM59.0999 20.572C60.1666 20.572 61.0306 20.8973 61.6919 21.548C62.3532 22.188 62.6839 23.116 62.6839 24.332V29.5H61.2439V24.54C61.2439 23.6653 61.0252 22.9987 60.5879 22.54C60.1506 22.0707 59.5532 21.836 58.7959 21.836C58.0279 21.836 57.4146 22.076 56.9559 22.556C56.5079 23.036 56.2839 23.7347 56.2839 24.652V29.5H54.8279V20.732H56.2839V21.98C56.5719 21.532 56.9612 21.1853 57.4519 20.94C57.9532 20.6947 58.5026 20.572 59.0999 20.572ZM66.8383 21.932V27.1C66.8383 27.5267 66.9289 27.8307 67.1103 28.012C67.2916 28.1827 67.6063 28.268 68.0543 28.268H69.1263V29.5H67.8143C67.0036 29.5 66.3956 29.3133 65.9903 28.94C65.5849 28.5667 65.3823 27.9533 65.3823 27.1V21.932H64.2463V20.732H65.3823V18.524H66.8383V20.732H69.1263V21.932H66.8383Z" fill="#F7F7FF"/>
<path d="M85.161 30.399H96.921V27.04H85.161V30.399ZM85.161 21.999H96.921V16.96H94.821C94.6554 16.9606 94.4912 16.9285 94.3381 16.8654C94.1849 16.8023 94.0457 16.7095 93.9286 16.5924C93.8115 16.4753 93.7187 16.3361 93.6556 16.1829C93.5925 16.0298 93.5604 15.8656 93.561 15.7V13.6H85.161V22V21.999ZM100.28 22.839C100.283 22.6414 100.216 22.449 100.093 22.2949C99.969 22.1407 99.7957 22.0344 99.6022 21.994C99.4088 21.9536 99.2073 21.9817 99.0323 22.0735C98.8573 22.1653 98.7197 22.3151 98.6429 22.4972C98.5662 22.6793 98.5552 22.8824 98.6117 23.0718C98.6683 23.2611 98.7889 23.4249 98.9529 23.5352C99.1169 23.6454 99.3141 23.6952 99.5108 23.676C99.7075 23.6568 99.8914 23.5698 100.031 23.43C100.111 23.3537 100.174 23.2619 100.217 23.1602C100.259 23.0586 100.281 22.9493 100.28 22.839ZM101.96 22.839V28.299C101.958 28.4098 101.913 28.5156 101.835 28.594C101.757 28.6723 101.651 28.7172 101.54 28.719H98.6V30.819C98.6007 30.9846 98.5685 31.1488 98.5055 31.3019C98.4424 31.4551 98.3496 31.5943 98.2324 31.7114C98.1153 31.8285 97.9761 31.9213 97.823 31.9844C97.6698 32.0475 97.5057 32.0796 97.34 32.079H84.741C84.5754 32.0796 84.4114 32.0475 84.2583 31.9845C84.1052 31.9215 83.9661 31.8288 83.8489 31.7118C83.7318 31.5947 83.639 31.4557 83.5759 31.3026C83.5127 31.1496 83.4805 30.9855 83.481 30.82V28.72H80.541C80.485 28.7213 80.4294 28.7109 80.3777 28.6893C80.3261 28.6678 80.2795 28.6356 80.241 28.595C80.2005 28.5564 80.1686 28.5098 80.1472 28.4581C80.1259 28.4064 80.1156 28.3509 80.117 28.295V22.835C80.1136 22.5041 80.1779 22.176 80.306 21.8709C80.4342 21.5658 80.6234 21.2902 80.862 21.061C81.0923 20.8226 81.3689 20.6339 81.6748 20.5064C81.9808 20.379 82.3096 20.3155 82.641 20.32H83.481V13.18C83.4782 13.014 83.5094 12.8493 83.5727 12.6959C83.636 12.5425 83.73 12.4036 83.849 12.288C83.9647 12.169 84.1035 12.0749 84.2569 12.0116C84.4103 11.9483 84.5751 11.9171 84.741 11.92H93.56C93.9586 11.9308 94.3511 12.0202 94.715 12.183C95.0862 12.3259 95.4259 12.5399 95.715 12.813L97.71 14.808C97.9832 15.097 98.1973 15.4367 98.34 15.808C98.5025 16.172 98.5919 16.5645 98.603 16.963V20.32H99.443C100.111 20.3231 100.75 20.5898 101.222 21.0619C101.694 21.534 101.96 22.1734 101.963 22.841L101.96 22.839Z" fill="white"/>
</svg>
