<svg xmlns="http://www.w3.org/2000/svg" width="63.679" height="26" viewBox="0 0 63.679 26">
  <g id="Group_551" data-name="Group 551" transform="translate(-862 -382.774)">
    <rect id="Rectangle_479" data-name="Rectangle 479" width="63.679" height="26" rx="6" transform="translate(862 382.774)" fill="rgba(246,78,96,0.65)"/>
    <path id="Path_1250" data-name="Path 1250" d="M1261.539,971.084a4.019,4.019,0,0,1-2.043-.54,4.09,4.09,0,0,1-1.473-1.524,4.6,4.6,0,0,1-.532-2.208,4.531,4.531,0,0,1,.532-2.2,4,4,0,0,1,1.473-1.512,4.022,4.022,0,0,1,5.56,1.512,4.531,4.531,0,0,1,.532,2.2,4.6,4.6,0,0,1-.532,2.208,3.939,3.939,0,0,1-3.517,2.064Zm0-1.188a2.7,2.7,0,0,0,1.407-.372,2.576,2.576,0,0,0,.95-1.08,3.582,3.582,0,0,0,.361-1.632,3.508,3.508,0,0,0-.361-1.62,2.5,2.5,0,0,0-.95-1.068,2.846,2.846,0,0,0-2.813,0,2.6,2.6,0,0,0-.969,1.068,3.629,3.629,0,0,0-.342,1.62,3.707,3.707,0,0,0,.342,1.632,2.537,2.537,0,0,0,2.376,1.452Zm7.965-4.392h-1.16V971h-1.312v-5.5h-.741v-1.116h.741v-.468a2.133,2.133,0,0,1,.57-1.656,2.609,2.609,0,0,1,1.806-.528v1.14a1.153,1.153,0,0,0-.827.24,1.078,1.078,0,0,0-.238.8v.468h1.16Zm3.783,0h-1.16V971h-1.312v-5.5h-.741v-1.116h.741v-.468a2.133,2.133,0,0,1,.57-1.656,2.636,2.636,0,0,1,1.815-.528v1.14a1.165,1.165,0,0,0-.836.24,1.078,1.078,0,0,0-.238.8v.468h1.16Zm2.452-3.384V971h-1.293v-8.88Zm2.376,1.392a.8.8,0,0,1-.6-.252.938.938,0,0,1,0-1.248.8.8,0,0,1,.6-.252.771.771,0,0,1,.58.252.938.938,0,0,1,0,1.248A.772.772,0,0,1,1278.114,963.512Zm.637.876V971h-1.3v-6.612Zm4.876-.108a2.67,2.67,0,0,1,1.321.324,2.2,2.2,0,0,1,.922.96,3.2,3.2,0,0,1,.333,1.536V971h-1.283v-3.7a1.943,1.943,0,0,0-.428-1.356,1.446,1.446,0,0,0-1.15-.48,1.479,1.479,0,0,0-1.16.48,1.943,1.943,0,0,0-.428,1.356V971h-1.3v-6.612h1.3v.756a2.247,2.247,0,0,1,.808-.636A2.584,2.584,0,0,1,1283.627,964.28Zm10,3.252a4.737,4.737,0,0,1-.048.672h-4.8a1.878,1.878,0,0,0,.551,1.272,1.739,1.739,0,0,0,1.236.48,1.507,1.507,0,0,0,1.483-.924h1.407a3,3,0,0,1-1.046,1.5,2.9,2.9,0,0,1-1.844.576,3.131,3.131,0,0,1-1.616-.42,3.065,3.065,0,0,1-1.121-1.2,3.9,3.9,0,0,1-.4-1.8,3.942,3.942,0,0,1,.39-1.788,2.918,2.918,0,0,1,1.1-1.2,3.21,3.21,0,0,1,1.644-.42,3.1,3.1,0,0,1,1.587.408,2.784,2.784,0,0,1,1.083,1.152A3.584,3.584,0,0,1,1293.626,967.532Zm-1.359-.432a1.607,1.607,0,0,0-.513-1.212,1.781,1.781,0,0,0-1.245-.456,1.6,1.6,0,0,0-1.15.456,1.856,1.856,0,0,0-.57,1.212Z" transform="translate(-381.718 -570.301)" fill="#fbfcfc"/>
  </g>
</svg>
